<?xml version="1.0" encoding="utf-8"?>
<!-- Generator: Adobe Illustrator 24.0.2, SVG Export Plug-In . SVG Version: 6.00 Build 0)  -->
<svg version="1.1" id="レイヤー_1" xmlns="http://www.w3.org/2000/svg" xmlns:xlink="http://www.w3.org/1999/xlink" x="0px"
	 y="0px" viewBox="0 0 170.08 170.08" style="enable-background:new 0 0 170.08 170.08;" xml:space="preserve">
<style type="text/css">
	.st0{fill:#1DA0A7;}
	.st1{fill:#38A6D3;}
	.st2{fill:#38A6D3;stroke:#FFFFFF;stroke-width:0.5;stroke-miterlimit:10.0001;}
	.st3{fill:#EFEFEF;}
	.st4{fill:#FFFFFF;}
</style>
<polygon class="st0" points="43.21,101.75 97.39,111.3 86.89,133.96 45.33,126.63 "/>
<polyline class="st1" points="145.51,121.9 122.16,117.78 106.36,91.8 140.5,97.82 "/>
<polyline class="st1" points="158.11,50.49 138.59,47.04 118.12,66.63 146.63,71.66 "/>
<ellipse transform="matrix(0.1736 -0.9848 0.9848 0.1736 -8.6929 138.9093)" class="st2" cx="78.43" cy="74.63" rx="36.7" ry="76.47"/>
<ellipse transform="matrix(0.1736 -0.9848 0.9848 0.1736 -8.6929 138.9093)" class="st3" cx="78.43" cy="74.63" rx="30.22" ry="76.47"/>
<ellipse transform="matrix(0.1736 -0.9848 0.9848 0.1736 -8.6684 138.9416)" class="st2" cx="78.46" cy="74.64" rx="25.64" ry="76.45"/>
<ellipse transform="matrix(0.1736 -0.9848 0.9848 0.1736 -8.718 138.8624)" class="st3" cx="78.39" cy="74.63" rx="17.8" ry="76.43"/>
<ellipse transform="matrix(0.1736 -0.9848 0.9848 0.1736 -8.6676 138.9428)" class="st1" cx="78.46" cy="74.64" rx="9.18" ry="76.45"/>
<path class="st4" d="M53.39,118.5l-1.95-0.34c-1.27-0.22-2.12-1.44-1.9-2.71v0c0.22-1.27,1.44-2.12,2.71-1.9l1.95,0.34
	c1.27,0.22,2.12,1.44,1.9,2.71l0,0C55.87,117.87,54.66,118.72,53.39,118.5z"/>
<path class="st4" d="M74.22,122.17l-1.95-0.34c-1.27-0.22-2.12-1.44-1.9-2.71v0c0.22-1.27,1.44-2.12,2.71-1.9l1.95,0.34
	c1.27,0.22,2.12,1.44,1.9,2.71v0C76.71,121.54,75.5,122.39,74.22,122.17z"/>
<path class="st4" d="M84.64,124.01l-1.95-0.34c-1.27-0.22-2.12-1.44-1.9-2.71l0,0c0.22-1.27,1.44-2.12,2.71-1.9l1.95,0.34
	c1.27,0.22,2.12,1.44,1.9,2.71l0,0C87.13,123.39,85.92,124.23,84.64,124.01z"/>
<path class="st4" d="M63.8,120.34l-1.95-0.34c-1.27-0.22-2.12-1.44-1.9-2.71l0,0c0.22-1.27,1.44-2.12,2.71-1.9l1.95,0.34
	c1.27,0.22,2.12,1.44,1.9,2.71v0C66.29,119.71,65.07,120.56,63.8,120.34z"/>
<polygon class="st2" points="167.24,87.36 166.18,93.22 130.17,84.74 130.52,82.79 "/>
</svg>
