<svg xmlns="http://www.w3.org/2000/svg" viewBox="0 0 1562.36 2044"><defs><style>.cls-1{fill:#38a6d3;}.cls-1,.cls-2,.cls-3,.cls-4{opacity:0.37;}.cls-2{fill:#1da0a7;}.cls-3{fill:#b3b3b3;}.cls-4{fill:#f39800;}.cls-5{fill:none;}.cls-6,.cls-8{fill:#f29600;}.cls-6{opacity:0.5;}.cls-7{fill:#c8c9ca;}.cls-7,.cls-9{opacity:0.64;}.cls-8{opacity:0.42;}.cls-9{fill:#fff;}</style></defs><g id="レイヤー_2" data-name="レイヤー 2"><g id="レイヤー_1-2" data-name="レイヤー 1"><rect class="cls-1" x="147.83" y="1976.19" width="79.48" height="67.05"/><polygon class="cls-1" points="294.36 1563.62 147.83 1450.39 147.83 1304.11 222.75 1287.36 294.36 1563.62"/><rect class="cls-1" x="244.03" y="2004.27" width="54.66" height="37.25"/><polygon class="cls-1" points="453.5 1779.4 393.85 1834.61 406.45 1758.84 406.45 1319.34 1169.03 1319.34 1169.03 1769.7 445.11 1769.7 453.5 1779.4"/><rect class="cls-1" x="393.41" y="1918.19" width="93.83" height="125.81"/><rect class="cls-1" x="545.29" y="1834.31" width="206.14" height="209.69"/><rect class="cls-1" x="816.04" y="1961.76" width="80.85" height="82.24"/><rect class="cls-1" x="914.74" y="1939.16" width="95.49" height="104.84"/><rect class="cls-1" x="1041.2" y="1854.04" width="25.94" height="189.96"/><rect class="cls-1" x="1095.91" y="2006.75" width="36.83" height="37.25"/><rect class="cls-1" x="1138.7" y="1999.3" width="31.65" height="44.7"/><rect class="cls-1" x="1202.15" y="1939.16" width="95.49" height="104.84"/><rect class="cls-1" x="1305.21" y="1991.58" width="47.75" height="52.42"/><polygon class="cls-1" points="1332.49 1741.26 1245.89 1670.92 1390.8 1674.24 1332.49 1741.26"/><polygon class="cls-1" points="1427.65 1225.47 1427.65 1383.52 1269 1260.93 1427.65 1225.47"/><rect class="cls-1" x="1379.9" y="1991.58" width="47.75" height="52.42"/><polygon class="cls-2" points="294.36 1563.62 147.83 1450.39 1 1336.93 147.83 1304.11 222.75 1287.36 294.36 1563.62"/><polygon class="cls-2" points="1562.36 1487.62 1427.65 1383.52 1269 1260.93 1427.65 1225.47 1490.75 1211.36 1562.36 1487.62"/><polygon class="cls-3" points="453.5 1779.4 393.85 1834.61 406.45 1758.84 411.17 1730.45 445.11 1769.7 453.5 1779.4"/><polygon class="cls-4" points="1390.8 1674.24 1332.49 1741.26 1245.89 1670.92 1390.8 1674.24"/><rect class="cls-5" x="406.45" y="1319.34" width="762.58" height="450.36"/><rect class="cls-6" x="393.41" y="1918.19" width="93.83" height="125.81"/><rect class="cls-7" x="147.76" y="1976.19" width="79.55" height="67.05"/><rect class="cls-7" x="244.03" y="2004.27" width="54.66" height="37.25"/><rect class="cls-7" x="545.29" y="1834.31" width="206.14" height="209.69"/><rect class="cls-7" x="816.04" y="1961.76" width="80.85" height="82.24"/><rect class="cls-7" x="914.74" y="1939.16" width="95.49" height="104.84"/><rect class="cls-7" x="1202.15" y="1939.16" width="95.49" height="104.84"/><rect class="cls-7" x="1305.21" y="1991.58" width="47.75" height="52.42"/><rect class="cls-7" x="1379.9" y="1991.58" width="47.75" height="52.42"/><rect class="cls-8" x="1095.91" y="2006.75" width="36.83" height="37.25"/><rect class="cls-7" x="1138.7" y="1999.3" width="31.65" height="44.7"/><rect class="cls-7" x="1041.2" y="1854.04" width="25.94" height="189.96"/><rect class="cls-9" x="590.19" y="1910.96" width="29.57" height="23.59"/><rect class="cls-9" x="590.19" y="1951.75" width="29.57" height="23.59"/><rect class="cls-9" x="668" y="1951.75" width="29.57" height="23.59"/><rect class="cls-9" x="1314.3" y="2027.86" width="14.78" height="16.14"/><rect class="cls-9" x="1216.77" y="1955.47" width="14.78" height="16.14"/><rect class="cls-9" x="1216.77" y="1998.68" width="14.78" height="16.14"/><rect class="cls-9" x="1256.97" y="1998.68" width="14.78" height="16.14"/><rect class="cls-9" x="1256.97" y="1955.47" width="14.78" height="16.14"/><rect class="cls-9" x="668" y="1910.96" width="29.57" height="23.59"/><path class="cls-1" d="M1427.65,1020h-1V363.52L1268,240.93l158.65-35.46V0H146.83V284.11l74.92-16.75,71.61,276.26L146.83,430.39V1024h1v280.11l74.92-16.75,71.61,276.26L147.83,1450.39v525.8h79.48v67H147.83v.76H393.41V1918.19h93.83V2044h58V1834.31H751.43V2044H816v-82.24h80.85V2044h17.85V1939.16h95.49V2044h31V1854h25.94v190h28.77v-37.25h36.83V2044h6v-44.7h31.65V2044h31.8V1939.16h95.49V2044h7.57v-52.42H1353V2044h26.94v-52.42h47.75V1383.52L1269,1260.93l158.65-35.46ZM1389.8,654.24l-58.31,67-86.6-70.34ZM395.65,312a98.63,98.63,0,0,1,98.64-98.63h567.44a98.29,98.29,0,0,1,71.11,30.29,98.51,98.51,0,0,1,34.53,55.7h.66v3.27a98.44,98.44,0,0,1,1.62,17.88V702.36a98.44,98.44,0,0,1-1.62,17.88V749.7h-10.46A98.63,98.63,0,0,1,1071,801H503.57a98.36,98.36,0,0,1-71.16-30.33,98.76,98.76,0,0,1-19.43-21h-7.53V736.76a98.16,98.16,0,0,1-9.8-42.9ZM239.44,767.47l89.47,103.45L202.85,987.61Zm59.25,1274.05H244v-37.25h54.66ZM1169,1769.7H445.11l8.39,9.7-59.65,55.21,12.6-75.77v-439.5H1169Zm221.77-95.46-58.31,67-86.6-70.34Z"/><polygon class="cls-1" points="293.36 543.62 146.83 430.39 146.83 284.11 221.75 267.36 293.36 543.62"/><polygon class="cls-1" points="239.44 767.47 328.91 870.92 202.85 987.61 239.44 767.47"/><path class="cls-1" d="M1168,302.61a98.44,98.44,0,0,1,1.62,17.88V702.36a98.44,98.44,0,0,1-1.62,17.88V749.7h-10.46A98.63,98.63,0,0,1,1071,801H503.57a98.36,98.36,0,0,1-71.16-30.33,98.76,98.76,0,0,1-19.43-21h-7.53V736.76a98.16,98.16,0,0,1-9.8-42.9V312a98.63,98.63,0,0,1,98.64-98.63h567.44a98.29,98.29,0,0,1,71.11,30.29,98.51,98.51,0,0,1,34.53,55.7h.66Z"/><polygon class="cls-1" points="1244.89 650.92 1389.8 654.24 1331.49 721.26 1244.89 650.92"/><polygon class="cls-1" points="1426.65 205.47 1426.65 363.52 1268 240.93 1426.65 205.47"/><polygon class="cls-2" points="293.36 543.62 146.83 430.39 0 316.93 146.83 284.11 221.75 267.36 293.36 543.62"/><polygon class="cls-2" points="1561.36 467.62 1426.65 363.52 1268 240.93 1426.65 205.47 1489.75 191.36 1561.36 467.62"/><polygon class="cls-3" points="328.91 870.92 202.85 987.61 239.44 767.47 328.91 870.92"/><polygon class="cls-4" points="1389.8 654.24 1331.49 721.26 1244.89 650.92 1389.8 654.24"/><rect class="cls-5" x="405.45" y="299.34" width="762.58" height="450.36"/></g></g></svg>