<?xml version="1.0" encoding="utf-8"?>
<!-- Generator: Adobe Illustrator 24.2.1, SVG Export Plug-In . SVG Version: 6.00 Build 0)  -->
<svg version="1.1" id="レイヤー_1" xmlns="http://www.w3.org/2000/svg" xmlns:xlink="http://www.w3.org/1999/xlink" x="0px"
	 y="0px" viewBox="0 0 1920 3098" style="enable-background:new 0 0 1920 3098;" xml:space="preserve">
<style type="text/css">
	.st0{opacity:0.37;fill:#38A6D3;}
	.st1{opacity:0.37;fill:#1DA0A7;}
	.st2{opacity:0.37;fill:#B3B3B3;}
	.st3{opacity:0.37;fill:#F39800;}
	.st4{fill:none;}
	.st5{opacity:0.5;fill:#F29600;}
	.st6{opacity:0.64;fill:#C8C9CA;}
	.st7{opacity:0.42;fill:#F29600;}
	.st8{opacity:0.64;fill:#FFFFFF;}
</style>
<rect x="-9.5" y="2998.6" class="st0" width="120.6" height="101.7"/>
<polygon class="st0" points="212.9,2372.6 -9.5,2200.8 -9.5,1978.9 104.2,1953.4 "/>
<rect x="136.5" y="3041.2" class="st0" width="82.9" height="56.5"/>
<polygon class="st0" points="454.3,2700 363.8,2783.8 383,2668.8 383,2002 1540,2002 1540,2685.3 441.6,2685.3 "/>
<rect x="363.2" y="2910.6" class="st0" width="142.4" height="190.9"/>
<rect x="593.6" y="2783.3" class="st0" width="312.8" height="318.2"/>
<rect x="1004.4" y="2976.7" class="st0" width="122.7" height="124.8"/>
<rect x="1154.2" y="2942.4" class="st0" width="144.9" height="159.1"/>
<rect x="1346.1" y="2813.3" class="st0" width="39.4" height="288.2"/>
<rect x="1429.1" y="3045" class="st0" width="55.9" height="56.5"/>
<rect x="1494" y="3033.7" class="st0" width="48" height="67.8"/>
<rect x="1590.3" y="2942.4" class="st0" width="144.9" height="159.1"/>
<rect x="1746.6" y="3022" class="st0" width="72.5" height="79.5"/>
<polygon class="st0" points="1788,2642.2 1656.6,2535.4 1876.5,2540.5 "/>
<polygon class="st0" points="1932.4,1859.5 1932.4,2099.4 1691.7,1913.3 "/>
<rect x="1860" y="3022" class="st0" width="72.5" height="79.5"/>
<polygon class="st1" points="568.9,2236.6 346.5,2064.8 123.8,1892.7 346.5,1842.9 460.2,1817.4 "/>
<polygon class="st1" points="1768.8,2152.3 1564.4,1994.4 1323.7,1808.3 1564.4,1754.5 1660.2,1733.1 "/>
<polygon class="st2" points="454.3,2700 363.8,2783.8 383,2668.8 390.1,2625.8 441.6,2685.3 "/>
<polygon class="st3" points="1876.5,2540.5 1788,2642.2 1656.6,2535.4 "/>
<rect x="383" y="2002" class="st4" width="1157.1" height="683.3"/>
<rect x="363.2" y="2910.6" class="st5" width="142.4" height="190.9"/>
<rect x="-9.6" y="2998.6" class="st6" width="120.7" height="101.7"/>
<rect x="136.5" y="3041.2" class="st6" width="82.9" height="56.5"/>
<rect x="593.6" y="2783.3" class="st6" width="312.8" height="318.2"/>
<rect x="1004.4" y="2976.7" class="st6" width="122.7" height="124.8"/>
<rect x="1154.2" y="2942.4" class="st6" width="144.9" height="159.1"/>
<rect x="1590.3" y="2942.4" class="st6" width="144.9" height="159.1"/>
<rect x="1746.6" y="3022" class="st6" width="72.5" height="79.5"/>
<rect x="1860" y="3022" class="st6" width="72.5" height="79.5"/>
<rect x="1429.1" y="3045" class="st7" width="55.9" height="56.5"/>
<rect x="1494" y="3033.7" class="st6" width="48" height="67.8"/>
<rect x="1346.1" y="2813.3" class="st6" width="39.4" height="288.2"/>
<rect x="661.7" y="2899.6" class="st8" width="44.9" height="35.8"/>
<rect x="661.7" y="2961.5" class="st8" width="44.9" height="35.8"/>
<rect x="779.8" y="2961.5" class="st8" width="44.9" height="35.8"/>
<rect x="1760.4" y="3077" class="st8" width="22.4" height="24.5"/>
<rect x="1612.4" y="2967.2" class="st8" width="22.4" height="24.5"/>
<rect x="1612.4" y="3032.7" class="st8" width="22.4" height="24.5"/>
<rect x="1673.4" y="3032.7" class="st8" width="22.4" height="24.5"/>
<rect x="1673.4" y="2967.2" class="st8" width="22.4" height="24.5"/>
<rect x="779.8" y="2899.6" class="st8" width="44.9" height="35.8"/>
<path class="st0" d="M1932.4,1547.8h-1.5V551.7l-240.7-186l240.7-53.8V0.1H-11v431.1l113.7-25.4L211.4,825L-11,653.2v900.7h1.5v425
	l113.7-25.4l108.7,419.2L-9.5,2200.8v797.8h120.6v101.7H-9.5v1.2h372.6v-190.9h142.4v190.9h88.1v-318.2h312.8v318.2h98v-124.8h122.7
	v124.8h27.1v-159.1h144.9v159.1h47v-288.2h39.4v288.2h43.7V3045h55.9v56.5h9v-67.8h48v67.8h48.3v-159.1h144.9v159.1h11.5V3022h72.5
	v79.5h40.9V3022h72.5v-922.6l-240.7-186l240.7-53.8V1547.8z M1875,992.8l-88.5,101.7l-131.4-106.7L1875,992.8z M366.6,473.5
	c0-82.6,67-149.7,149.7-149.7h861c42.4,0,80.7,17.6,107.9,46c26.1,21,45,50.6,52.4,84.5h1v5c1.6,8.8,2.5,17.9,2.5,27.1v579.4
	c0,9.3-0.8,18.3-2.5,27.1v44.7h-15.9c-25.4,46.4-74.7,77.8-131.3,77.8h-861c-42.4,0-80.7-17.7-108-46c-11.3-9.1-21.2-19.8-29.5-31.8
	h-11.4V1118c-9.5-19.7-14.9-41.8-14.9-65.1V473.5z M129.5,1164.6l135.8,157L74,1498.6L129.5,1164.6z M219.4,3097.7h-82.9v-56.5h82.9
	V3097.7z M1540,2685.3H441.6l12.7,14.7l-90.5,83.8l19.1-115V2002H1540V2685.3z M1876.5,2540.5l-88.5,101.7l-131.4-106.7
	L1876.5,2540.5z"/>
<polygon class="st0" points="211.4,825 -11,653.2 -11,431.2 102.7,405.8 "/>
<polygon class="st0" points="129.5,1164.6 265.3,1321.6 74,1498.6 "/>
<path class="st0" d="M1538.5,459.3c1.6,8.8,2.5,17.9,2.5,27.1v579.4c0,9.3-0.8,18.3-2.5,27.1v44.7h-15.9
	c-25.4,46.4-74.7,77.8-131.3,77.8h-861c-42.4,0-80.7-17.7-108-46c-11.3-9.1-21.2-19.8-29.5-31.8h-11.4V1118
	c-9.5-19.7-14.9-41.8-14.9-65.1V473.5c0-82.6,67-149.7,149.7-149.7h861c42.4,0,80.7,17.6,107.9,46c26.1,21,45,50.6,52.4,84.5h1
	V459.3z"/>
<polygon class="st0" points="1655.1,987.8 1875,992.8 1786.5,1094.5 "/>
<polygon class="st0" points="1930.9,311.9 1930.9,551.7 1690.2,365.7 "/>
<polygon class="st1" points="491.4,812 269,640.2 46.2,468 269,418.2 382.7,392.8 "/>
<polygon class="st1" points="1698.3,718.7 1493.9,560.7 1253.2,374.7 1493.9,320.9 1589.6,299.5 "/>
<polygon class="st2" points="265.3,1321.6 74,1498.6 129.5,1164.6 "/>
<polygon class="st3" points="1875,992.8 1786.5,1094.5 1655.1,987.8 "/>
<rect x="381.4" y="454.3" class="st4" width="1157.1" height="683.3"/>
</svg>
