<?xml version="1.0" encoding="utf-8"?>
<!-- Generator: Adobe Illustrator 25.0.0, SVG Export Plug-In . SVG Version: 6.00 Build 0)  -->
<svg version="1.1" id="レイヤー_1" xmlns="http://www.w3.org/2000/svg" xmlns:xlink="http://www.w3.org/1999/xlink" x="0px"
	 y="0px" viewBox="0 0 595.28 1785.83" style="enable-background:new 0 0 595.28 1785.83;" xml:space="preserve">
<style type="text/css">
	.st0{opacity:0.47;}
	.st1{fill:#EEB033;}
	.st2{fill:#1DA0A7;}
	.st3{fill:#ECE937;}
</style>
<g class="st0">
	<g>
		<path class="st1" d="M315.47,98.61c-4.57-0.11-10.13-2.27-15.11-6.23c-8.48-6.77-12.05-16.26-7.96-21.19
			c4.09-4.93,14.27-3.44,22.75,3.33c3.86,3.08,8.26,10.24,8.26,10.24"/>
		<path class="st1" d="M327.88,86.85c0.56,0.26,1.05,0.67,1.66,0.85c10.04,3.01,12.38,9.58,8.86,13.75
			c-3.28,3.89-10.83,5.82-16.36-0.26c-0.43-0.48-1.09-0.63-1.6-0.96"/>
	</g>
	<g>
		<path class="st1" d="M316.96,34.27c-1.86-4.18-5.99-8.48-11.56-11.55c-9.51-5.23-19.64-4.87-22.62,0.8
			c-2.98,5.67,2.32,14.5,11.83,19.72c4.32,2.38,12.63,3.69,12.63,3.69"/>
		<path class="st1" d="M310.88,50.25c0.45,0.41,1.02,0.72,1.43,1.21c6.64,8.11,13.6,7.75,16.1,2.89c2.33-4.52,1.21-12.24-6.53-15
			c-0.61-0.22-1-0.76-1.51-1.11"/>
	</g>
</g>
<g class="st0">
	<g>
		<path class="st2" d="M227.69,1727.72c-4.67-0.07-10.57-2.45-16.09-6.89c-9.42-7.58-14.15-18.31-10.56-23.96
			c3.58-5.65,14.13-4.08,23.54,3.5c4.28,3.45,9.6,11.52,9.6,11.52"/>
		<path class="st2" d="M238.95,1714.21c0.6,0.29,1.15,0.75,1.79,0.95c10.57,3.29,13.71,10.72,10.61,15.51
			c-2.89,4.46-10.35,6.75-16.67-0.08c-0.49-0.54-1.18-0.7-1.74-1.07"/>
	</g>
	<g>
		<path class="st2" d="M221.74,1654.63c-2.38-4.72-7.08-9.56-13.11-12.97c-10.29-5.82-20.55-5.28-22.92,1.19
			c-2.37,6.47,4.04,16.44,14.33,22.25c4.68,2.65,13.28,4.03,13.28,4.03"/>
		<path class="st2" d="M217.41,1672.86c0.51,0.46,1.12,0.8,1.59,1.36c7.69,9.13,14.74,8.63,16.72,3.08
			c1.84-5.17-0.19-13.92-8.38-16.95c-0.64-0.24-1.11-0.85-1.66-1.24"/>
	</g>
</g>
<g class="st0">
	<g>
		<path class="st3" d="M360.36,847.98c2.11-4.06,6.5-8.1,12.25-10.82c9.81-4.64,19.9-3.66,22.53,2.18
			c2.62,5.84-3.2,14.33-13.01,18.96c-4.46,2.11-12.83,2.91-12.83,2.91"/>
		<path class="st3" d="M365.45,864.3c-0.48,0.38-1.06,0.65-1.5,1.12c-7.12,7.69-14.05,6.9-16.25,1.9
			c-2.04-4.66-0.46-12.29,7.43-14.57c0.62-0.18,1.04-0.7,1.57-1.01"/>
	</g>
	<g>
		<path class="st3" d="M417.46,877.66c4.57,0.17,10.25-1.64,15.46-5.3c8.88-6.24,13.02-15.49,9.25-20.66
			c-3.78-5.17-14.04-4.3-22.92,1.93c-4.04,2.84-8.88,9.71-8.88,9.71"/>
		<path class="st3" d="M405.79,865.16c-0.57,0.23-1.09,0.6-1.71,0.75c-10.21,2.38-12.95,8.8-9.68,13.18
			c3.04,4.08,10.46,6.48,16.34,0.75c0.46-0.45,1.12-0.56,1.66-0.86"/>
	</g>
</g>
<g class="st0">
	<g>
		<path class="st1" d="M455.87,226.86c-4.05-2.13-8.07-6.53-10.76-12.3c-4.59-9.84-3.56-19.92,2.29-22.52
			c5.85-2.6,14.31,3.27,18.9,13.1c2.09,4.47,2.85,12.84,2.85,12.84"/>
		<path class="st1" d="M472.22,221.84c0.38,0.48,0.65,1.07,1.11,1.5c7.66,7.16,6.83,14.08,1.82,16.26
			c-4.67,2.02-12.29,0.4-14.54-7.5c-0.18-0.62-0.69-1.05-1.01-1.58"/>
	</g>
	<g>
		<path class="st1" d="M485.82,169.9c0.19-4.57-1.59-10.26-5.22-15.48c-6.19-8.91-15.43-13.09-20.61-9.34
			c-5.19,3.75-4.37,14.02,1.83,22.92c2.82,4.05,9.67,8.92,9.67,8.92"/>
		<path class="st1" d="M473.27,181.51c0.22,0.57,0.6,1.1,0.74,1.72c2.34,10.22,8.74,12.99,13.14,9.75
			c4.09-3.02,6.53-10.43,0.82-16.34c-0.45-0.46-0.56-1.13-0.86-1.66"/>
	</g>
</g>
<g class="st0">
	<g>
		<path class="st1" d="M512.85,420.35c-3.27-3.19-5.88-8.56-6.82-14.85c-1.6-10.73,2.25-20.11,8.59-20.94
			c6.35-0.83,12.79,7.2,14.39,17.94c0.73,4.88-0.92,13.12-0.92,13.12"/>
		<path class="st1" d="M529.95,420.19c0.23,0.57,0.32,1.21,0.64,1.76c5.31,9.04,2.55,15.44-2.88,16.1
			c-5.05,0.61-11.9-3.11-11.8-11.32c0.01-0.64-0.37-1.2-0.52-1.8"/>
	</g>
	<g>
		<path class="st1" d="M557.75,374.25c1.48-4.33,1.39-10.29-0.61-16.33c-3.41-10.31-11.07-16.94-17.11-14.82
			c-6.04,2.12-8.17,12.2-4.77,22.5c1.55,4.69,6.73,11.3,6.73,11.3"/>
		<path class="st1" d="M542.42,381.82c0.05,0.61,0.26,1.22,0.22,1.86c-0.67,10.46,4.69,14.94,9.82,13.08
			c4.78-1.73,9.22-8.14,5.43-15.43c-0.3-0.57-0.21-1.24-0.35-1.84"/>
	</g>
</g>
<g class="st0">
	<g>
		<path class="st3" d="M485.01,637.44c-1.2-4.41-0.73-10.36,1.65-16.26c4.06-10.07,12.13-16.2,18.02-13.69
			c5.89,2.5,7.38,12.69,3.32,22.76c-1.84,4.58-7.44,10.85-7.44,10.85"/>
		<path class="st3" d="M499.83,645.97c-0.09,0.61-0.34,1.2-0.34,1.84c-0.01,10.48-5.63,14.6-10.64,12.42
			c-4.66-2.03-8.68-8.71-4.43-15.74c0.33-0.55,0.29-1.22,0.46-1.81"/>
	</g>
	<g>
		<path class="st3" d="M547.08,620.47c3.47-2.98,6.41-8.16,7.75-14.38c2.29-10.61-0.95-20.21-7.24-21.45
			c-6.28-1.23-13.23,6.37-15.51,16.98c-1.04,4.82,0.08,13.16,0.08,13.16"/>
		<path class="st3" d="M530.03,619.21c-0.27,0.55-0.39,1.18-0.75,1.71c-5.88,8.68-3.53,15.25,1.84,16.25
			c5,0.93,12.08-2.34,12.5-10.55c0.03-0.64,0.44-1.18,0.63-1.76"/>
	</g>
</g>
<g class="st0">
	<g>
		<path class="st3" d="M185.17,1015.51c1.23-4.4,4.69-9.26,9.76-13.1c8.65-6.55,18.72-7.67,22.5-2.5
			c3.77,5.17-0.19,14.68-8.84,21.23c-3.93,2.98-11.96,5.49-11.96,5.49"/>
		<path class="st3" d="M193.51,1030.44c-0.39,0.47-0.91,0.86-1.24,1.4c-5.39,8.99-12.33,9.64-15.51,5.2
			c-2.96-4.14-2.98-11.94,4.28-15.79c0.57-0.3,0.88-0.9,1.33-1.32"/>
	</g>
	<g>
		<path class="st3" d="M247.15,1032.81c4.51-0.77,9.7-3.71,14.04-8.36c7.41-7.93,9.56-17.83,4.8-22.12
			c-4.76-4.28-14.62-1.33-22.03,6.6c-3.37,3.6-6.69,11.33-6.69,11.33"/>
		<path class="st3" d="M233.16,1022.98c-0.51,0.34-0.95,0.81-1.52,1.08c-9.5,4.43-10.86,11.27-6.77,14.89
			c3.81,3.37,11.57,4.19,16.14-2.63c0.36-0.53,0.99-0.78,1.45-1.19"/>
	</g>
</g>
<g class="st0">
	<g>
		<path class="st2" d="M38.41,1241.82c-0.73-4.61,0.61-10.83,4.05-17.03c5.86-10.57,15.63-17.06,21.81-14.49
			c6.18,2.57,6.43,13.22,0.56,23.79c-2.67,4.81-9.72,11.42-9.72,11.42"/>
		<path class="st2" d="M53.64,1250.62c-0.18,0.64-0.54,1.26-0.63,1.93c-1.44,10.97-8.23,15.34-13.47,13.1
			c-4.88-2.08-8.42-9.04-2.76-16.44c0.44-0.58,0.49-1.28,0.76-1.9"/>
	</g>
	<g>
		<path class="st2" d="M109.41,1223.5c4.25-3.15,8.21-8.6,10.54-15.13c3.98-11.13,1.7-21.15-5.08-22.38
			c-6.78-1.23-15.51,6.79-19.48,17.91c-1.81,5.06-1.71,13.77-1.71,13.77"/>
		<path class="st2" d="M90.71,1222.34c-0.37,0.58-0.6,1.24-1.06,1.8c-7.69,9.14-5.99,15.99-0.18,17c5.4,0.93,13.68-2.56,15.28-11.15
			c0.12-0.67,0.65-1.23,0.94-1.85"/>
	</g>
</g>
<g class="st0">
	<g>
		<path class="st2" d="M69.31,1520.15c-3.74-2.79-7.14-8.17-9.01-15.01c-3.19-11.66-0.74-23.13,5.47-25.61
			c6.21-2.48,13.84,4.97,17.03,16.63c1.45,5.3,1.03,14.96,1.03,14.96"/>
		<path class="st2" d="M86.35,1515.79c0.31,0.58,0.5,1.28,0.9,1.82c6.64,8.85,4.83,16.72-0.48,18.78
			c-4.95,1.92-12.34-0.59-13.46-9.83c-0.09-0.72-0.55-1.26-0.78-1.89"/>
	</g>
	<g>
		<path class="st2" d="M107.3,1457.42c0.84-5.22-0.14-11.89-3.03-18.19c-4.93-10.74-13.56-16.32-19.28-12.46
			c-5.71,3.86-6.35,15.69-1.42,26.43c2.24,4.88,8.4,11.05,8.4,11.05"/>
		<path class="st2" d="M93.11,1469.66c0.14,0.67,0.44,1.31,0.5,2.03c0.89,11.91,6.89,15.63,11.75,12.29
			c4.52-3.11,8-11.39,3.13-18.65c-0.38-0.57-0.4-1.34-0.62-1.98"/>
	</g>
</g>
</svg>
