<?xml version="1.0" encoding="utf-8"?>
<!-- Generator: Adobe Illustrator 24.3.0, SVG Export Plug-In . SVG Version: 6.00 Build 0)  -->
<svg version="1.1" id="レイヤー_1" xmlns="http://www.w3.org/2000/svg" xmlns:xlink="http://www.w3.org/1999/xlink" x="0px"
	 y="0px" viewBox="0 0 283.46 286.3" style="enable-background:new 0 0 283.46 286.3;" xml:space="preserve">
<style type="text/css">
	.st0{fill:#3A97C5;}
	.st1{font-family:'ArialMT';}
	.st2{font-size:33.053px;}
	.st3{fill:none;stroke:#3A97C5;stroke-width:0.6306;stroke-miterlimit:10.0004;}
</style>
<g>
	<g>
		<g>
			<g>
				<g>
					<g>
						<path class="st0" d="M42.29,210.29c-0.37,0.03,0.03,0.85,0.03,1.02C42.87,210.93,42.22,210.08,42.29,210.29z"/>
						<polygon class="st0" points="47.24,206.46 47.27,206.83 47.81,205.68 						"/>
						<path class="st0" d="M52.49,204.66c-0.98-1.29-1.83,0.88-2.95,0.68l-0.27-0.27l-0.03,1.32
							C50.35,205.81,51.57,204.53,52.49,204.66z"/>
						<path class="st0" d="M56.38,206.83c-0.37-0.51,0.44-0.68-0.71,0.03c0.07,0.03,0.1,0.07,0.17,0.1
							C55.94,206.93,56.08,206.86,56.38,206.83z"/>
						<path class="st0" d="M55.81,206.96C55.3,207.2,56.35,207.34,55.81,206.96L55.81,206.96z"/>
						<path class="st0" d="M58.25,205.78l-0.54,0.75c0.27,0.27,0.95,0.14,0.78,0.44C59.13,206.46,58.89,206.19,58.25,205.78z"/>
						<path class="st0" d="M58.59,204.49l-0.3,0.34C58.42,204.97,58.52,204.97,58.59,204.49z"/>
						<path class="st0" d="M57.64,205.54l0.64-0.71c-0.17-0.2-0.37-0.64-0.3,0.27C57.91,204.66,57.88,205.13,57.64,205.54z"/>
						<path class="st0" d="M57.13,205.47c-0.51-0.17-1.12-0.2-0.54-0.95C55.23,205.24,55.81,206.15,57.13,205.47z"/>
						<path class="st0" d="M52.25,203.07l-0.68-0.24l-0.3,0.64C51.4,203.17,52.45,203.51,52.25,203.07z"/>
						<path class="st0" d="M63.06,204.97c-0.07-0.34-0.51-0.75-0.71-1.12l-0.41,0.54C62.28,204.53,62.86,204.53,63.06,204.97z"/>
						<path class="st0" d="M62.35,203.88l0.61-0.81C62.21,203.24,62.18,203.54,62.35,203.88z"/>
						<polygon class="st0" points="58.18,202.83 57.23,204.39 58.42,202.73 						"/>
						<polygon class="st0" points="66.14,203.95 65.94,204.83 66.38,203.47 						"/>
						<path class="st0" d="M68.14,203.14c-0.14,0.71,0.81,0.85,0.58,1.32c0.51-0.3,0.81-0.95,1.08-1.56
							C69.43,203.31,68.92,203.41,68.14,203.14z"/>
						<path class="st0" d="M70.28,201.98c-0.17,0.2-0.34,0.54-0.47,0.91C69.97,202.7,70.14,202.39,70.28,201.98z"/>
						<path class="st0" d="M64.38,202.76c0.14,0.17,0.41,0.61,0.95,0.64l-0.61-0.75C64.62,202.7,64.48,202.73,64.38,202.76z"/>
						<path class="st0" d="M64.69,202.63L64.69,202.63c0.37-0.07,0.61-0.14,0.71-0.17C65.33,202.49,65.09,202.53,64.69,202.63z"/>
						<path class="st0" d="M64.31,202.76c0.03,0,0.07,0,0.07-0.03C64.31,202.66,64.31,202.66,64.31,202.76z"/>
						<path class="st0" d="M60.55,202.9c0.3-0.64,1.12-1.49-0.1-1.9C60.32,201.71,61.03,201.95,60.55,202.9z"/>
						<path class="st0" d="M63.53,201.81l-0.91,0.1c0.1,0.24,0.37,0.51,0.2,0.81L63.53,201.81z"/>
						<polygon class="st0" points="63.87,201.41 63.53,201.81 63.87,201.78 						"/>
						<path class="st0" d="M68.55,201.68c0.24-0.51,0.64-0.68,1.08-0.88c-0.54,0-1.08,0.07-1.56,0.24
							C68.08,201.34,68.04,201.88,68.55,201.68z"/>
						<path class="st0" d="M66.65,202.05c0.03-0.03,0.03-0.03,0.07-0.07C66.62,201.95,66.58,201.92,66.65,202.05z"/>
						<path class="st0" d="M74.11,199.27c-0.03-0.03-0.07-0.1-0.14-0.14c0,0.07,0.03,0.1,0.03,0.17L74.11,199.27z"/>
						<path class="st0" d="M67.91,200.9c-0.44-0.03-0.58,0.24-0.68,0.58c0.24-0.17,0.51-0.34,0.81-0.44
							C68.04,200.9,68.01,200.83,67.91,200.9z"/>
						<path class="st0" d="M71.4,201.17c-0.24-0.1-0.51-0.2-0.81-0.27C70.89,201.1,71.4,201.41,71.4,201.17z"/>
						<path class="st0" d="M66.92,202.19c0,0.03-0.03,0.03-0.03,0.07C67.06,202.39,67.02,202.29,66.92,202.19z"/>
						<path class="st0" d="M66.92,202.19c0.14-0.2,0.24-0.44,0.3-0.71c-0.2,0.14-0.37,0.3-0.51,0.51
							C66.79,202.05,66.86,202.12,66.92,202.19z"/>
						<path class="st0" d="M73.56,193.24c0.2,0.81-0.51,1.9-1.63,1.32c-0.61,0.88,0.81,3.32,2.03,4.57c-0.1-0.37-0.2-0.68,0.47-1.46
							c-0.44-0.34-2.24-0.37-1.76-1.36c0.98-0.78,1.02-0.03,1.69,0.2c-0.81-0.85,0.91-1.93,0.17-3.32l-0.81,0.85
							C73.67,193.85,73.9,193.38,73.56,193.24z"/>
						<path class="st0" d="M72.34,199.61l-0.3,0.2c0.44,0,0.85,0.24,1.56,0.68c0.44-0.58,0.47-0.91,0.41-1.22l-1.76,0.47
							L72.34,199.61z"/>
						<path class="st0" d="M70.48,200.36c-0.03-0.95,0.68-1.63-0.17-2.37c-0.98,0.41-0.47,0.98-0.95,1.56
							c1.56-0.78-0.3,0.64,1.05,0.75c-0.27,0.27-0.54,0.41-0.81,0.54c0.34,0,0.68,0.03,0.98,0.1c-0.03,0-0.03-0.03-0.07-0.03l0,0
							l0,0c-0.1-0.1-0.17-0.14-0.07-0.1l0.03-0.03C70.48,200.59,70.48,200.46,70.48,200.36c0.54,0.03,0.17,0.2,0.03,0.37
							c0,0.03,0,0.1,0.03,0.14l0,0l1.49-1.05C71.63,199.82,71.19,199.98,70.48,200.36z"/>
						<path class="st0" d="M60.69,198.83c0.07,0.07,0.1,0.14,0.14,0.17C60.89,198.87,60.89,198.76,60.69,198.83z"/>
						<path class="st0" d="M61.57,199.1c-0.07,0.17-0.07,0.54-0.47,0.58c-0.44-0.14-0.14-0.41-0.27-0.71
							c-0.17,0.3-0.61,0.91,0.27,1.08l0.07-0.17c0.78,0.07,2,0.88,1.93,1.02C62.62,200.22,62.25,199.75,61.57,199.1z"/>
						<path class="st0" d="M65.97,199.51l1.22-0.88l-0.95-0.51l0.2,0.44C65.6,198.63,65.97,199.1,65.97,199.51z"/>
						<polygon class="st0" points="74.41,199.65 74.55,200.63 74.89,199.07 						"/>
						<polygon class="st0" points="76.14,198.93 76.34,199.75 76.65,199.1 						"/>
						<path class="st0" d="M173.39,154.55l0.34-0.37C173.56,154.31,173.46,154.41,173.39,154.55z"/>
						<path class="st0" d="M170.44,155.49l0.07,0.41C170.58,155.63,170.58,155.46,170.44,155.49z"/>
						<path class="st0" d="M119.92,183.82c0.85,0.54,1.9,1.49,1.52,0.61l-0.47-0.81C120.6,183.92,120.26,183.92,119.92,183.82z"/>
						<path class="st0" d="M148.11,168.34c-0.1-0.07-0.17-0.14-0.27-0.2c-0.03,0.34-0.07,0.68-0.1,0.98
							C147.84,168.84,147.97,168.61,148.11,168.34z"/>
						<path class="st0" d="M147.3,164.54l0.98,0.3C148.01,164.71,147.7,164.61,147.3,164.54z"/>
						<path class="st0" d="M189.01,148.14l0.17-1.05C188.43,147.36,188.91,147.7,189.01,148.14z"/>
						<path class="st0" d="M94.3,192.36c0.61,0.17,1.08,0.17,1.46,0.1C94.98,192.16,94.2,191.55,94.3,192.36z"/>
						<path class="st0" d="M175.42,164.24c0.2-0.24,0.24-0.47,0.17-0.64C175.39,163.83,175.29,164.03,175.42,164.24z"/>
						<path class="st0" d="M97.22,191.95c-0.14-0.07-0.24-0.07-0.34-0.1c-0.3,0.27-0.64,0.51-1.12,0.61
							C96.33,192.67,96.91,192.7,97.22,191.95z"/>
						<path class="st0" d="M247.09,129.06c0.07,0.03,0.1,0.03,0.17,0.07C247.22,129,247.15,129.03,247.09,129.06z"/>
						<path class="st0" d="M266.94,132.15c-0.14,0.1-0.41,0.2-0.68,0.3C266.44,132.45,266.64,132.38,266.94,132.15z"/>
						<path class="st0" d="M83.46,196.83C83.09,197.04,83.42,196.97,83.46,196.83L83.46,196.83z"/>
						<path class="st0" d="M80.44,194.02c0.03-0.14,0.07-0.27,0-0.47C80.48,193.75,80.48,193.92,80.44,194.02z"/>
						<path class="st0" d="M99.11,185.18h0.03C98.98,185.04,99.01,185.08,99.11,185.18z"/>
						<path class="st0" d="M82.75,196.63c0.17,0.07,0.37,0.1,0.58,0.1C83.22,196.7,83.05,196.66,82.75,196.63z"/>
						<path class="st0" d="M82.98,197.04c-0.14,0-0.24,0.03-0.37,0.03C82.61,197.24,82.68,197.31,82.98,197.04z"/>
						<path class="st0" d="M83.97,196.63c-0.2,0.1-0.44,0.1-0.64,0.14c0.1,0.03,0.14,0.07,0.14,0.1
							C83.56,196.8,83.73,196.73,83.97,196.63z"/>
						<path class="st0" d="M216.9,142.04c0.03,0.03,0.07,0.03,0.1,0.07C217.27,141.6,217.13,141.7,216.9,142.04z"/>
						<path class="st0" d="M126.63,171.35c0,0,0,0.03-0.03,0.07c0.03,0,0.03,0,0.07,0L126.63,171.35z"/>
						<path class="st0" d="M127.78,170.23c-0.2,1.29-0.58,1.25-1.08,1.19l1.32,2.37L127.78,170.23z"/>
						<path class="st0" d="M180.3,151.9l-1.22-0.47c0.71-1.69,1.69-1.52,0.41-2.34c0.81,2.78-3.63,1.56-2.81,4.34l-0.81-0.37
							c0.2-0.03,0.17-0.2,0.34-0.24c-1.66-0.88-0.24,2.3-1.93,2.44c-0.61-0.03-1.15-0.3-0.88-0.75l-0.98,1.08
							c-0.37,0.07-0.44-0.44-0.07-0.51l-1.8,0.85v-0.1c-0.14,0.51-0.51,1.39-0.68,1.76c-0.61-0.24,0.14-0.37-0.1-0.68l-0.81,1.02
							c-0.68-0.58-0.03-1.56,0.71-1.69c-1.9-2.41-0.61,0.98-3.25,0.1l0.85-0.68c-1.15-1.36-1.73-0.51-3.15-1.12
							c0.44,0.41,3.05,1.69,2.17,2.74c-0.37-0.1-0.85-0.07-1.25,0.71c-0.34-0.98-0.85-0.54-1.56-0.24l-0.41-1.32
							c-0.68,0.64-0.37,1.29-0.64,2.03c-0.95,0.17-1.46-0.75-1.97-1.52c-1.49,0.27,1.52,1.25-0.07,2.1c-1.36-0.1-2,0.71-3.15,2
							c-0.98-0.17-0.14-0.85-0.54-1.12l-0.37,1.29c-0.2,0.03-0.24-0.3-0.27-0.47c-0.47,0.61,0.41,1.32-0.47,2
							c0.24,1.52-2.71-1.39-3.35,0.64c-0.41-0.27-0.14-0.85-0.41-1.32c-1.29,1.63-1.15,1.25-2.03,3.15l-1.46-0.44
							c1.19,0.68,0.47,2.2-0.14,3.46c0.47,0.37,0.85,0.68,1.08,0.81l-1.32,1.32c-0.27-0.14-0.27-0.64-0.2-1.29
							c-0.07,0.14-0.14,0.27-0.17,0.41c-0.71-0.3-0.68-1.12-0.54-2c0.27,0.2,0.54,0.41,0.81,0.61c0.1-0.91,0.17-1.9-0.17-2.64
							c-0.03,0.17-0.2,0.37-0.37,0.51c0.03-0.24,0.03-0.47-0.07-0.58c-0.1-0.1-0.17,0.24-0.3,0.64l-0.85-1.32l0.1,0.61l-2.3-0.24
							c-0.91,1.93-1.42,4.51-3.49,5.86c0.2-1.25-0.47-1.76-0.88-3.02c1.08,1.12,1.56-1.15,2.81-1.29c-0.64,0.07-0.75-0.58-0.64-0.85
							l-1.66,1.93c-0.3-1.05-0.71-0.61-1.39-0.85c1.12,1.9-1.08,1.9-1.73,2.78c-0.27-0.68-0.3-1.42,0.78-1.63
							c-1.66-1.12-0.68,2.88-2.24,1.97c0.24-0.1,0.41-0.03,0.41-0.44c-0.37,0.81-2,0.81-1.86,0.1l0.24-0.1
							c-1.76,0.34-5.12,1.73-4.78,3.56c-0.1-0.2-0.47-2.13-0.51-2.54l-1.02,6.81c-0.24-1.56-2.47-4.74-1.36-6.07
							c-0.47-0.07-1.05-0.14-1.73,0.68c0.34,0.1,1.42,1.9,1.08,2.17c-1.59-1.29-1.02-0.64-2.74-1.59c0.51,0.17,0.85,2.64,0.17,2.78
							c-0.03-0.37-0.85-2.27-0.68-2.58l-0.81,2.81c0.27-0.54-0.58-1.97-1.19-2.47c0.3,0.37-1.39,0.44-1.76,0.81l0.85,0.3
							c-1.93,0.27-0.71,3.8-2.54,4.3c0.07-0.54-0.44-3.08-1.46-3.05c-0.03,1.32,0.07,6.23-1.22,7.69l-0.54-0.58l-0.95,1.19
							c0.17-2,1.05-6.44,1.73-8.27c-0.85-0.3-0.47-0.71-1.46-0.3c-0.58-0.51,0.24-1.15,0.51-1.29l-2.51,0.41
							c0.58,1.32-1.36,2-0.88,3.08l2.1-2.3c0.58,1.32-0.17,4.37-1.93,4.71c-0.61-0.41-0.51-2.54-0.71-2.98
							c-0.07,0.54-1.29,1.42-1.56,1.15l0.47-0.98c-1.12-0.2-0.91,2.34-2.47,1.42c-0.41,0.03-1.76-1.36-1.56-0.54
							c1.15,1.32,2.91,6.1,2.91,7.39c-0.17-0.07-2.54-0.78-3.25-1.39c-1.05-0.98-0.03-3.22-0.95-4.1c0.1,0.37-0.1,0.95-0.2,1.15
							c-0.51-0.17-0.24-1.22-1.05-0.75c0.34,1.42-1.83,0.51-0.03,1.32c-0.75,0.68-1.02,0.03-2,0.44c0.64,0.78,0.14,3.35-0.61,4.03
							c-0.07-0.37-0.41-0.75-0.58-0.95c-1.83,0.47-2.98,0.17-4.64,0.75c-0.27-0.27-1.22-0.41-1.05-1.12
							c-0.17,0.34-0.2,0.88-0.71,1.08c-1.39-0.85,1.08-0.58-0.17-1.76c0.2,0.81-0.95,1.56-1.49,2.3c0.64,1.15,1.76-0.34,2.3-1.08
							c0.58,1.69-0.07,3.93-1.52,5.32c-1.22,0.88-0.98-0.91-1.12-0.58c-2.68,0.58-1.19,3.73-3.73,3.22
							c-1.22-0.78-0.78-2.13-1.22-2.88c0.98-0.78,1.97,0.1,2.71-0.2l-1.12-0.2c0.24-0.47,0.88-1.02,1.39-0.85
							c-1.05-0.75-4.44,1.32-6.71,1.08c-0.24,0.47-0.71,1.08-0.27,1.42l0.58-0.37c0.88,0.68-0.78,1.63,0.17,1.76
							c-0.64,0.91-1.25,2.2-2.61,2.1l-0.64-1.15c0.14,0.34,1.02,0.47,1.22-0.03c-0.3,0.71-2.41-1.05-2.37,0.75l1.12,0.58
							c-0.64,0.91-1.22,2.58-2.41,2.58c0.91,1.05,0.2-0.24,1.42,0.95c-1.25-1.56,2.71-0.85,1.05-2.37c1.32,1.39,1.56,0.24,3.05,1.32
							c-0.17-0.41-0.61-0.68,0.34-0.75c0-0.14,0.03-0.3,0.07-0.44c0.03,0,0.03,0,0.07,0c-0.03,0-0.03-0.03-0.07-0.03
							c0.03-0.07,0-0.1-0.03,0c-0.27-0.1-0.51-0.27-0.68-0.47c0.1-1.08,1.52-1.56,1.83-2.2c0.58,0-0.07,0.54,0.37,0.88l0.47-0.98
							c0.37,0.88,1.9,1.02,0.85,2l1.12-0.34c0.81,0.27,1.8,0.17,2.24-0.41c0.58,0,0.98-1.46,0.78-0.58l1.56-1.15l0.1,0.24
							c1.76-0.47,3.02-2.71,5.56-1.76c0.51-0.44,1.02-0.91,2.07-0.98l0.47,0.71c0.64-0.54,2.51,0.03,2.54-0.91
							c1.52,1.83,3.76-0.78,5.22-0.85l-0.3-1.05c0.91-0.24,1.69-0.85,2.68-1.63l-0.37-0.88c0.71-1.08,2.71-0.2,4.2-0.81
							c0,0.37-0.41,0.44-0.75,0.3c2.54,1.42,3.35-2.81,5.49-1.9c0.3-0.47,0.64-0.47,1.02-0.34c-0.03,0-0.07,0.03-0.1,0.07
							c0.03,0,0.1-0.03,0.17-0.03c0.24,0.1,0.47,0.2,0.75,0.27c-0.24-0.17-0.47-0.27-0.64-0.3c0.3-0.14,0.75-0.41,1.15-0.78
							l0.54,0.91c0.03-0.03,0.07-0.03,0.1-0.07c0.58,0.2,0.2-0.58-0.27-1.25c0.17-0.24,0.34-0.51,0.44-0.81
							c0.91,1.46,1.05-0.95,2.13,0.54c0.03-0.91,2.17-1.42,1.83-3.22c0.1,0.2,0.27,0.27,0.03,0.37c0.61,0,1.19,0.03,1.49-0.61
							l0.64,1.15l0.58-2.07c0.95,0.51,1.39,0.85,1.02,2.03c1.19-2.03,1.19-1.02,2.1-2.95l0.2,0.81c0.51-0.2,0.95-1.56,1.49-1.02
							c1.66,1.12,5.73-1.73,9.11-1.32c-1.39-2.17,1.73,0.58,1.22-1.29c0.37,0.51,0.88,0.68,0.58,1.32c1.32-1.05,2.54,0.1,3.05-1.76
							c0.37,0.51-0.03,0.91,0.24,1.22c0.07-0.17,0.3-0.64,0.58-0.37c0.27,0.27-0.07,0.54-0.2,0.88c1.49-0.61,1.05-2.37,0.61-4.03
							c1.05,0.51,1.39,0.27,1.59-0.98c0.44,0.44,1.08,0.85,0.2,1.36c0.58-0.1,3.52-0.34,3.12-1.66c0.27,0.27,0.78-0.17,0.88-0.37
							c1.22-0.34,1.36-0.24,2.51-0.78l-0.41-0.1c-0.07-1.73,0.85-0.68,1.73-1.19l0.03,0.17c2.54,0.37,0.75-0.85,3.32-0.3l-0.44-0.91
							c-0.51-2.17,2.3,0.58,3.29-0.64l-0.64-0.41c0.44-0.95,2.88,2.2,3.63,2.2c0.2,0.14-0.14,0.37-0.3,0.58
							c2.2,0.61-0.2-1.36,1.02-2.1c0.47,0.61,0.27,1.86,1.22,1.66c0.64,0.41,1.83-3.12,3.49-2.2c-0.44-0.44-0.88-0.88-0.41-1.49
							c0.88-0.51,3.25,1.12,3.52-0.85c0.17,0.1,0.27,0.24,0.3,0.37c0.58-0.68,2.1-1.52,2.24-2.58c1.83,3.12,3.93-3.19,4.98-0.07
							l2.17-0.91l0.03,0.34c1.49-0.27,1.73-1.19,2-2.1c0.41,0.1,0.27,0.47,0.27,0.64c2.3-0.1,2.44-0.3,3.66-2.44l0.51,0.95
							c0.27-0.75,3.56,0.54,5.18-1.32c0.03,0.14,0.03,0.34-0.07,0.54c1.9-1.97,6.44,0.88,6.03-3.05l1.22-1.42
							c-2.07,0.37-0.24-1.69-1.25-2c0.71-0.47,2.37,0.41,1.49,0.91l-0.2-0.14c0.3,2.03,2.68-0.17,3.05,1.15
							c3.83-1.42,7.93-1.66,11.59-2.81l-0.91-1.32l1.29-0.34c0.44,0.24,0.85,1.02-0.07,1.25c0.75,0.68,1.25-1.22,1.19-1.56
							c1.97,0-0.1,1.97,0.44,1.8l0.71-0.37l-0.24-0.1c0.37-0.81,0.24-1.46,1.32-1.76c0.78,0.07,0.68,0.78,0.95,0.75
							c0.03,0.1,0.14,0.14,0.44-0.1l1.63-0.41l-1.05-0.95c0.51-0.81,1.52-0.44,0.34-1.52c1.76,1.66,6.17-1.29,7.05-0.88
							c0.68-1.19,1.66-1.49,2.91-1.83c-0.37-0.14-1.02-1.39,0.07-1.59c0.54,2.85,2.3,0.51,3.83,2.2c-1.19-1.05,2.85-1.32,1.05-2.78
							c0.95-0.07,0.41,0.98,1.29,1.42c1.69-1.76,4.78-0.88,7.22-2.1c-0.07-0.37-0.71-0.78-0.34-1.49l1.97,1.32
							c0.44-0.34-0.24-2.2,1.12-1.29c-0.24-0.27-0.58-0.64-0.27-0.88c5.59,0.03,9.72-4.91,15.93-3.39
							c-0.91-0.44-0.47-0.68,0.03-0.88c-0.41-0.03-0.3-0.88-0.51-1.36l2.58,0.61c-0.07-1.46,2.24-0.88,2.03-2.24l-0.61,0.47
							c0.37-1.83-2.41-2.91-2.95-4.91c-0.41,2.07-3.52-1.63-4.3,1.39c-0.51-0.27,0.1-0.75-0.24-1.12c-0.14,0.98-0.58,1.32-1.63,1.25
							l0.03-0.24c-2.54,1.08-3.96,0.68-7.08,1.12l0.54,0.88c-0.68,0.1-0.91-0.17-1.29-0.3c-0.24,1.69,1.8-0.54,1.69,1.29
							c-1.49-1.66-4.47,1.49-5.79-0.51c-0.98,0.3,0.68,1.02-0.3,1.32l-0.47-0.51l0.03,0.85c-0.68,0.1-1.25-0.54-1.46-1.05
							c0.17,0,0.41-0.3,0.54-0.41c-1.08-0.41-2.24,1.05-2.61,0.91l1.05,0.03c-2.47,1.46-5.96,1.8-8.13,3.9l0.34,0.37
							c-1.66,1.49-1.73,0.03-3.76,1.15l0.03-0.14c-0.27,0.61-0.78,1.02-1.39,1.19c0.37-0.71-1.39-0.68-0.85-1.52
							c-1.83,1.63-0.81,1.05-1.63,3.22l-0.58-0.64c-0.24,0.85-0.17,1.22-1.19,1.76c0.64-0.95-1.08-0.91-0.37-2.1
							c-2.81-0.88-2.78,2.81-4.64,0.75c-0.34,2.44,2.34,0.47,1.93,1.12c0.71,0.51-0.34,1.83-1.12,1.86
							c-0.75,0.2-2.13-2.24-3.93-1.59c0.17-0.07,0.14-0.2,0.34-0.27c-0.85-0.3-1.08,1.19-2.2,0.61c-0.03,1.42-1.12,0.3-0.68,1.93
							l1.52-0.95c-0.81,0.75-1.05,2.91-2.91,2.54c0-0.37,0.34-0.95,0.58-1.29c-0.61-0.3-0.78,0.61-1.39,0.27
							c-0.41-1.66,1.9-1.05,2.51-2.61c-0.71-0.51-1.52,1.83-1.59-0.1c0.03,2.44-1.86,0.34-2.54,2.44l-0.24-0.98
							c-0.14,0.2-0.37,0.81-0.75,0.91l0.24-1.46c-0.64,1.39-2.24-0.27-2.98,0.64c2-0.71,0.85,1.02,1.93,1.42
							c-2.03,2.13-2.27-2.03-4.88-0.61c0.34-0.27,1.59,0.1,1.15,0.75c-0.58-0.03-1.42-0.14-1.9-0.54c-1.76,0.81,0.61,0.88,0.03,1.76
							c-1.02-0.95-0.75,0.78-1.39,1.42l-0.34-0.98c-2.3,0.1,0.14,2.24-2,2.1l0.34-1.63l-0.85,0.68l-0.17-1.19
							c-0.78,1.19-1.19,1.08-2.34,1.12c0.47,0.61,0.47,1.83-0.44,2.17c-0.81-0.37,0.03-1.05-1.22-0.47c0.1-0.71,0.14-1.59,1.02-0.88
							c-0.03-0.34,0.07-0.71,0.03-1.05c-0.91-0.44-1.76,0.44-2.24,0.61c0.2-0.03,0.44-0.03,0.58,0.07l-1.42,2
							c-0.41-0.27-0.27-0.64-0.17-1.02c-0.34,0.24-0.47,0.78-0.98,1.05c-0.14-0.85-0.44-1.66,0.24-2.3l-1.49,1.49
							c-0.24-0.3-1.25-0.64-1.12-1.02c-1.15-0.14-1.93,2.37-3.46,2.2c0,0.17-0.1,0.37-0.34,0.58c-1.32,0.24-2.74-0.34-3.86,1.25
							l-1.32-1.12c-1.05,0.71,1.76,1.39,0,2.61c-1.22,0.91-0.91-1.05-1.52-1.25c-0.44,0.95-1.12,2.81-2.74,2.07
							C179.56,152.04,179.93,152.14,180.3,151.9z M166.24,157.39c0.2-0.3,0.54-1.12,0.95-0.61
							C167.26,158,166.81,157.56,166.24,157.39z M145.37,167.18c0.1-0.41,0.47-0.34,0.95-0.1
							C146.11,167.25,145.81,167.32,145.37,167.18z M87.32,194.63c0-0.03,0-0.03,0-0.07C88.1,194.73,87.83,194.66,87.32,194.63z
							 M85.9,194.66c-0.07,0.17-0.03,0.3,0.07,0.44c0-0.27,0.27-0.41,0.64-0.44C86.44,194.43,86.2,194.29,85.9,194.66z
							 M223.2,147.19l-0.34-0.17C223.33,146.55,223.23,146.85,223.2,147.19z"/>
						<path class="st0" d="M147.36,164.98c0.14,0.14,0.2,0.3,0.3,0.47C147.74,165.29,147.67,165.08,147.36,164.98z"/>
						<path class="st0" d="M188.98,148.34c0.03,0,0.03,0,0.03,0c0-0.07,0-0.14,0-0.2L188.98,148.34z"/>
						<path class="st0" d="M102.91,179.59c0.3,0.07,0.51,0.17,0.68,0.34C103.52,179.69,103.32,179.52,102.91,179.59z"/>
						<path class="st0" d="M79.7,198.63l0.75-0.54c-0.37,0.17-0.61,0.03-0.85-0.07C79.66,198.26,79.93,198.53,79.7,198.63z"/>
						<path class="st0" d="M70.51,195.04c-0.07,0.17-0.24,0.1-0.34,0.27l0.2,0.44C70.89,195.55,71.09,195.04,70.51,195.04z"/>
						<path class="st0" d="M77.83,195.65c-0.34-0.81-0.78-0.34-1.29,0c0.03,0,0.07-0.03,0.1-0.03
							C76.85,196.83,77.36,196.22,77.83,195.65z"/>
						<path class="st0" d="M76.41,195.72c-0.17,0.1-0.34,0.17-0.51,0.2C75.97,196.43,76.14,195.95,76.41,195.72z"/>
						<path class="st0" d="M84.48,195.75c-0.34-0.1,0.2,1.12-0.07,0.81C84.44,197.71,85.76,194.7,84.48,195.75z"/>
						<polygon class="st0" points="76.44,193.11 76.99,194.05 77.02,193.11 						"/>
						<path class="st0" d="M81.22,192.29l-1.02,0.03c0.07,0.17,0,0.3-0.14,0.44C80.65,192.6,81.36,192.6,81.22,192.29z"/>
						<path class="st0" d="M80.07,192.77c-0.3,0.07-0.58,0.2-0.68,0.41C79.56,193.11,79.9,192.97,80.07,192.77z"/>
						<polygon class="st0" points="77.6,192.36 77.94,192.5 78.61,192.33 						"/>
						<path class="st0" d="M91.15,189.11l0.91-0.64c0-0.37-0.37-0.51-0.68-0.24C91.22,188.57,90.88,188.84,91.15,189.11z"/>
						<path class="st0" d="M87.19,187.38c0.34,0.1,0.44,0.34,0.71,0.61l-0.41-1.25L87.19,187.38z"/>
						<path class="st0" d="M90,186.09c-0.03-0.37,1.12-1.49-0.14-0.98C89.86,185.48,88.98,186.13,90,186.09z"/>
						<polygon class="st0" points="105.62,182.5 105.38,182.6 106.13,184.67 						"/>
						<path class="st0" d="M117.24,173.01c-1.36-0.1,0.17,1.36-1.12,1.12c-0.1,0.58,1.05,0.2,0.91,0.71
							C117.55,174.1,118.02,174.27,117.24,173.01z"/>
						<path class="st0" d="M117,174.88c-0.1,0.14-0.17,0.27-0.27,0.44C116.9,175.11,116.97,174.98,117,174.88z"/>
						<polygon class="st0" points="270.13,132.28 271.04,132.45 270.3,131.94 						"/>
						<path class="st0" d="M271.08,130.28l0.64,1.25l0.07-1.36C271.59,130.28,271.31,130.52,271.08,130.28z"/>
						<path class="st0" d="M163.22,155.49l0.03,0.34c0.24,0.3,0.41,0.27,0.81,0.2L163.22,155.49z"/>
						<polygon class="st0" points="173.9,152.92 173.73,152.95 174.47,154.04 						"/>
						<path class="st0" d="M182.06,148.45c-0.37,0.07-0.71,0.47-1.08,0.54C181.69,148.51,182.67,149.87,182.06,148.45z"/>
					</g>
				</g>
			</g>
		</g>
	</g>
	<g>
		<g>
			<g>
				<g>
					<g>
						<g>
							<path class="st0" d="M277.41,96.3c0.41,1.25,1.08,0.51,1.32,0.64C277.72,94.94,277.21,96.43,277.41,96.3z"/>
							<polygon class="st0" points="266.77,77.36 267.28,77.53 265.01,75.15 							"/>
							<path class="st0" d="M256.24,60.28c-0.17,2.44,4.2,5.93,5.73,9.22l0.03,0.68l1.93,0.71
								C261.35,67.33,257.63,63.06,256.24,60.28z"/>
							<path class="st0" d="M252,49.81c-0.03,0.91-1.86-1.52,1.46,2.1c-0.1-0.24-0.14-0.3-0.17-0.44
								C252.98,51.1,252.61,50.62,252,49.81z"/>
							<path class="st0" d="M253.29,51.47C254.68,53.1,252.78,50.05,253.29,51.47L253.29,51.47z"/>
							<path class="st0" d="M246.38,44.25l2.37,1.66c-0.17-0.68-1.9-2.54-1.05-2.03C245.43,41.98,245.63,42.66,246.38,44.25z"/>
							<path class="st0" d="M243.7,43.1l1.19,0.88C244.82,43.71,244.58,43.4,243.7,43.1z"/>
							<path class="st0" d="M247.39,45.88l-2.54-1.9c0.1,0.47-0.2,0.85,1.12,0.91C245.49,45.03,246.24,45.17,247.39,45.88z"/>
							<path class="st0" d="M248.48,47.3c0.91,1.32,2,3.08-0.24,1.29C251.83,52.59,252.24,51.23,248.48,47.3z"/>
							<path class="st0" d="M254.34,60.41c0.3,0.61,0.64,1.25,0.88,1.93l1.39,1.19c-0.34-0.3-0.81-1.19-1.22-1.97
								C254.91,60.82,254.47,60.24,254.34,60.41z"/>
							<path class="st0" d="M233.84,31.65c-0.34,0.14,0.2,1.29,0.1,1.73l1.86,1.05C235.09,33.58,233.63,32.12,233.84,31.65z"/>
							<path class="st0" d="M233.91,33.37l-2.74-1.56C233.26,33.65,233.84,33.78,233.91,33.37z"/>
							<polygon class="st0" points="242.14,43.95 246.54,46.76 241.43,43.27 							"/>
							<polygon class="st0" points="224.18,24.43 226.08,24.84 222.79,23.95 							"/>
							<path class="st0" d="M217.4,20.13c1.49,0.1-1.05-1.8,0.37-1.42c-1.97-0.98-3.9-1.42-5.59-1.8
								C213.88,17.52,215.54,18.5,217.4,20.13z"/>
							<path class="st0" d="M209.41,16.16c0.85,0.3,1.76,0.51,2.78,0.75C211.31,16.57,210.39,16.3,209.41,16.16z"/>
							<path class="st0" d="M227.03,28.46c-0.07-0.3-0.17-0.98-1.49-2.13l0.47,1.46C226.35,27.99,226.69,28.22,227.03,28.46z"/>
							<path class="st0" d="M226.04,27.82l-0.03-0.03c-1.08-0.78-1.83-1.32-2.17-1.52C224.15,26.43,224.79,26.9,226.04,27.82z"/>
							<path class="st0" d="M227.3,28.63c-0.1-0.07-0.17-0.1-0.24-0.17C227.1,28.6,227.13,28.66,227.3,28.63z"/>
							<path class="st0" d="M236.85,37.78c-1.73-0.78-4.98-2.78-2.68,0.14C235.57,38.25,234.24,36.59,236.85,37.78z"/>
							<path class="st0" d="M227.87,30.43c0.85,0.68,1.63,1.49,2.44,2.24c0.1-0.24-0.14-0.88,0.71-0.51
								C229.94,31.58,228.96,30.93,227.87,30.43z"/>
							<polygon class="st0" points="226.35,29.75 227.87,30.43 226.89,29.68 							"/>
							<path class="st0" d="M214.02,19.68c-1.46-0.34-2.85-1.08-4.44-1.86c1.59,1.08,3.25,2.1,4.88,2.98
								C214.83,20.67,215.81,20.63,214.02,19.68z"/>
							<path class="st0" d="M219.95,23.51c-0.1-0.03-0.2-0.1-0.3-0.14C219.78,23.55,219.88,23.68,219.95,23.51z"/>
							<polygon class="st0" points="193.79,10.5 193.99,10.77 194.09,10.67 							"/>
							<path class="st0" d="M214.66,21.11c1.15,0.85,2,1.05,2.88,1.22c-0.98-0.44-2-0.95-3.05-1.52
								C214.29,20.87,214.22,20.9,214.66,21.11z"/>
							<path class="st0" d="M204.87,14.3c0.61,0.44,1.32,0.95,2,1.52C206.39,15.18,205.24,14.2,204.87,14.3z"/>
							<path class="st0" d="M219.37,22.9l0.2,0.1C219.3,22.57,219.3,22.67,219.37,22.9z"/>
							<path class="st0" d="M219.37,22.9c-0.68-0.3-1.29-0.44-1.86-0.58c0.75,0.41,1.49,0.78,2.13,1.08
								C219.54,23.24,219.44,23.04,219.37,22.9z"/>
							<path class="st0" d="M186.91,14.36c0.47-0.64,4.3-0.54,6.78,1.69c3.05,0.64,2.3-2.74,0.3-5.29c-0.24,0.34-0.3,0.51-3.59,0
								c0.98,0.64,6.27,3.63,3.49,3.29c-4.07-1.25-3.15-1.46-4.95-2.58c1.32,1.52-5.62-0.2-5.18,1.56l3.66,0.61
								C187.38,13.89,185.99,13.86,186.91,14.36z"/>
							<path class="st0" d="M199.68,13.31l1.29,0.44c-1.36-0.75-2.24-1.49-3.83-2.91c-2.24-0.51-2.78-0.41-3.02-0.2l6.07,2.74
								L199.68,13.31z"/>
							<path class="st0" d="M206.46,16.26c-1.29,0.24-4.47-0.54-3.08,1.08c3.56,1.59,2.74,0.58,5.01,1.29
								c-5.66-2.85,1.83,0.41-1.97-2.24c1.15,0.47,2.17,0.95,3.12,1.46c-0.95-0.64-1.86-1.32-2.71-1.97
								c0.03,0.03,0.07,0.07,0.1,0.14h0.03l0,0c0.2,0.24,0.24,0.34,0,0.14c-0.03,0-0.1-0.03-0.14-0.03
								C206.76,16.16,206.63,16.19,206.46,16.26c-1.52-1.05-0.14-0.37,0.41-0.17c0.03-0.03,0.1-0.03,0.14-0.1v-0.03
								c-1.93-0.91-4.03-1.46-6.03-2.2C202.12,14.47,203.75,14.97,206.46,16.26z"/>
							<path class="st0" d="M230.31,37.3c-0.1-0.17-0.03-0.24,0-0.3C229.94,36.83,229.77,36.8,230.31,37.3z"/>
							<path class="st0" d="M228.72,35.24c0.44,0.2,0.95,0.14,2.03,1.15c0.81,1.02-0.27,0.34-0.44,0.61
								c0.81,0.37,2.81,1.49,0.95-0.64l-0.41-0.17c-1.73-1.83-3.52-4.85-3.12-4.68C227.81,32.63,227.94,33.54,228.72,35.24z"/>
							<path class="st0" d="M217.88,25.31c-1.49-0.91-3.12-1.56-4.71-2.27L215.1,25l0.14-0.47
								C217.64,26.22,217.37,25.45,217.88,25.31z"/>
							<path class="st0" d="M193.38,9.86l0.98-0.64c-1.08-0.03-2.27,0.17-3.39,0.27L193.38,9.86z"/>
							<polygon class="st0" points="186.74,7.79 187.25,7.08 185.35,7.01 							"/>
							<path class="st0" d="M57.44,243.83l1.25,0.75C58.11,244.2,57.74,243.97,57.44,243.83z"/>
							<path class="st0" d="M49.74,236.65l-0.47,0.1C49.78,236.95,50.05,236.95,49.74,236.65z"/>
							<path class="st0" d="M32.97,53.13c-2.07,1.25-4.68,2.51-3.76,2.85l1.19,0.03C31.31,54.69,32.16,53.81,32.97,53.13z"/>
							<path class="st0" d="M7.32,161.42c0.07-0.2,0.1-0.44,0.17-0.68c-0.37-0.51-0.68-0.95-0.98-1.36
								C6.71,160,6.91,160.71,7.32,161.42z"/>
							<path class="st0" d="M11.39,162.41l-0.1,2.88C11.39,164.61,11.42,163.69,11.39,162.41z"/>
							<path class="st0" d="M107.99,269.72c0.61-0.14,1.22-0.24,1.86-0.44C107.35,268.6,108.33,269.31,107.99,269.72z"/>
							<path class="st0" d="M116.67,3.76c-2,0-3.59,0.14-4.95,0.34C114.16,4.2,116.19,4.64,116.67,3.76z"/>
							<path class="st0" d="M47.64,248.47c0.85,0.47,1.29,0.61,1.39,0.44C48.18,248.37,47.64,248.17,47.64,248.47z"/>
							<path class="st0" d="M106.2,5.59c0.37-0.03,0.71-0.03,1.05-0.07c1.36-0.51,2.71-1.15,4.44-1.42
								C109.89,4.03,107.89,4.47,106.2,5.59z"/>
							<path class="st0" d="M270.43,177.76c0.07-0.14,0.14-0.3,0.2-0.44C270.54,177.25,270.5,177.45,270.43,177.76z"/>
							<path class="st0" d="M281.51,115.88c0.17,0.61,0.37,1.66,0.54,2.61C282.02,118.02,281.89,117.24,281.51,115.88z"/>
							<path class="st0" d="M159.56,1.49C161.05,1.59,159.8,1.42,159.56,1.49L159.56,1.49z"/>
							<path class="st0" d="M166.1,5.96c-0.3,0.07-0.58,0.17-0.64,0.37C165.59,6.13,165.83,6,166.1,5.96z"/>
							<path class="st0" d="M94.3,15.52c-0.03,0-0.07,0.03-0.1,0.03C94.64,15.55,94.57,15.55,94.3,15.52z"/>
							<path class="st0" d="M161.73,2.17c-0.54-0.17-1.15-0.34-1.83-0.51C160.17,1.76,160.75,1.93,161.73,2.17z"/>
							<path class="st0" d="M161.49,1.69c0.51,0.1,0.88,0.17,1.25,0.24C162.95,1.79,162.82,1.69,161.49,1.69z"/>
							<path class="st0" d="M157.53,1.29c0.85,0.07,1.63,0.24,2.37,0.37c-0.27-0.1-0.41-0.17-0.3-0.17
								C159.12,1.45,158.55,1.39,157.53,1.29z"/>
							<path class="st0" d="M202.9,263.62c0.1-0.03,0.2-0.03,0.3-0.07C204.26,262.57,203.75,262.91,202.9,263.62z"/>
							<path class="st0" d="M21.79,89.52c0-0.07,0-0.1,0.03-0.17c-0.03,0.07-0.07,0.14-0.1,0.17H21.79z"/>
							<path class="st0" d="M20.47,94.3c-0.24-2.34,0.37-3.42,1.22-4.78l-3.12,0.44L20.47,94.3z"/>
							<path class="st0" d="M78.17,257.99l-2.58-2.37c4.3,0.81,6.61,2.61,4.44,0.07c-0.88,1.08-3.93-0.24-6.71-2.03
								c-2.78-1.8-5.52-3.59-6.57-2.54l-1.52-1.76c0.51,0.37,0.71,0.3,1.22,0.68c-2.81-3.56-3.93-0.2-8.1-4.17
								c-1.39-1.46-2.17-2.64-0.91-2.03l-3.86-2.3c-0.91-0.88-0.37-1.05,0.58-0.17c-1.76-1.42-3.29-3.05-4.95-4.57l0.1-0.03
								c-0.98-0.37-3.05-1.42-4.03-2c-0.91-1.52,0.85,0.41,0.78-0.17c-1.05-0.75-2.13-1.42-3.12-2.24c-0.2-0.85,0.34-0.78,1.08-0.27
								c0.85,0.47,1.93,1.39,2.81,2.34c-0.17-2.24-0.85-2.64-1.97-3.32c-1.05-0.75-2.54-1.86-4.24-5.29l2.47,2.47
								c-0.14-2.81-2.3-4.54-3.96-8.17c0.14,0.98,2.91,7.69-0.17,5.01c-0.54-1.05-1.42-2.24-3.22-3.63
								c0.81-0.61-0.54-2.24-2.07-4.44l1.22-0.61c-1.9-2.17-2.37-1.59-3.8-2.68c-1.66-2.74-1.12-3.83-0.68-4.98
								c-2.17-4.64,0.17,4-2.88-1.29c-0.75-2.03-1.59-3.63-2.64-5.25c-1.05-1.63-2.41-3.25-3.63-5.52
								c-0.68-2.98,0.95,0.17,0.91-1.02l-2-2.03c-0.2-0.61,0.17-0.54,0.37-0.51c-1.22-1.93-1.32,0.34-3.02-2.85
								c-0.85-0.2-1.12-2.07-1.32-4.37c-0.14-2.34-0.37-5.05-1.8-6.91c0.07-1.15,0.95,0.27,1.36-0.17
								c-2.71-5.42-2.27-4.57-4.64-9.28l0.14-4.34c-0.44,3.25-2.37-0.44-4-3.83c-0.3,1.19-0.54,2.2-0.64,2.88
								c-0.61-1.83-1.19-3.69-1.52-5.59c0.17-0.71,0.68-0.2,1.32,0.68c-0.14-0.37-0.3-0.71-0.41-1.02c0.34-2.1,1.22-1.12,2.07,0.24
								c-0.24,0.71-0.44,1.42-0.68,2.13c1.08,1.29,2.2,2.41,2.95,2c-0.24-0.34-0.47-1.02-0.68-1.76c0.3,0.34,0.54,0.51,0.64,0.34
								c0.14-0.2-0.34-0.71-0.75-1.59l1.42-1.42l-0.61-0.24l0.37-7.29c-0.51-1.25-1.02-2.47-1.52-3.76c-0.41-1.29-0.81-2.58-1.22-4
								c-0.71-2.85-1.56-6.13-1.52-10.37c0.88,2.17,1.76,0.58,3.08,0.78c-1.56,2.17,0.44,6.44,0.03,10.64
								c0.2-2.24,0.81-1.73,1.02-1.15l-1.12-7.62c1.05,0.24,0.81-1.56,1.56-3.49c-2.3,1.32-0.75-5.76-1.02-8.95
								c0.75-0.07,1.36,0.78,0.75,4.47c2.13-3.86-2.03-5.76,0.3-9.56c-0.17,0.91-0.41,1.39-0.1,1.8c-0.17-2.24,1.46-7.32,1.8-5.96
								l-0.17,0.91c0.41-1.49,0.85-3.35,1.25-5.35c0.54-1.97,1.12-4.07,1.66-6c1.02-3.9,1.49-7.32,0.88-8.03
								c0.24,0.03,1.73,1.52,1.97,2c-0.58-4.07-0.91-8.23-1.29-12.61c1.05,1.52,5.86-0.27,4.64,4.74c0.85-1.22,1.59-2.85,2.58-5.76
								c-0.68,0.75-3.19,1.19-2.68-0.1c3.35-2.51,2.1-1.9,5.62-5.22c-1.02,1.15-2.34-1.49-1.12-3.56c0.14,0.51,2.17,1.05,2,1.93
								c0.24-2.13,0.47-4.27,0.98-6.3c-0.47,1.46,1.59,1.29,2.88,0.61c-0.75,0.24,2.88-4.13,3.56-5.56l-1.86,1.73
								c3.93-5.29,1.15-7.32,5.52-12.47c-0.14,0.95,1.08,3.49,3.42,1.12c0.07-0.95-0.07-3.35,0.47-5.93
								c0.58-2.58,1.63-5.62,3.46-8.1l1.32-0.3c0.91-1.29,1.83-2.61,2.91-3.76c-0.58,1.69-1.59,4.61-2.61,7.62
								c-1.08,3.05-2.27,6.07-3.19,8.1c2.13-1.39,1.08,0.07,3.66-2.54c1.39-0.44-0.71,2.1-1.42,2.88l6.34-5.66
								c-0.64-0.37,0.27-1.8,1.22-3.19c1.05-1.29,2.13-2.54,1.63-2.91c-2.2,2.24-3.93,4.95-5.83,7.42
								c-0.64-0.37-0.41-2.03,0.61-4.17c0.51-1.05,1.15-2.3,2.1-3.35c0.95-1.08,2.07-2.13,3.32-3.05c1.59-0.54,0.71,2.71,1.12,2.98
								c0.3-0.88,3.9-4.37,4.57-4.47l-1.52,2.24c1.49-0.85,2.27-2.1,3.19-3.32c0.95-1.19,2.13-2.2,4.24-2.78
								c1.25-0.71,4.51-0.75,4.24-1.59c-2.78-0.14-6-4.1-5.32-6c0.24-0.1,2.07-0.81,4.07-1.56c1.93-0.81,4.27-1.15,5.18-1.22
								c2.71,0.03-1.66,4.3,0.68,4.34c-0.14-0.37,0.78-1.39,1.19-1.8c1.49-0.41,0.03,1.36,2.81-0.3c-0.2-1.52,5.9-2.95,0.78-1.8
								c2.68-1.76,3.05-1.46,6.47-2.91c-1.49-0.41,1.83-4.17,4.74-5.79c-0.03,0.41,0.81,0.61,1.22,0.68
								c1.56-0.58,2.95-1.08,4.24-1.49c1.32-0.34,2.58-0.58,3.8-0.85c2.44-0.51,4.81-1.02,7.76-1.86c0.64,0.17,3.59-0.17,2.51,0.75
								c0.81-0.41,1.49-1.05,3.35-1.42c3.83,0.58-4.1,0.95-1.05,1.93c0.03-0.88,4.54-2,7.08-3.02c-1.02-1.15-6.2,0.85-8.71,1.86
								c-0.44-1.76,3.83-4.44,10.23-6.44c5.12-1.22,2.41,0.88,3.25,0.47c4.88-0.24,6.91-1.19,8.74-2c1.86-0.81,3.56-1.56,7.66-0.75
								c3.25,1.22,0.14,2.27,0.85,3.12c-2.1,0.2-3.73-0.07-5.15-0.27c-1.46-0.1-2.74-0.3-4.17-0.17l3.52,0.27
								c-1.32,0.47-4.1,0.98-5.62,0.78c2.68,0.54,16.37-0.58,23.69,1.36c1.36-0.24,3.66-0.34,2.64-0.95l-2.37-0.14
								c-2.07-1.19,4.57-0.75,1.63-1.52c1.63-0.14,3.39-0.34,5.29-0.41c0.95-0.03,1.93,0,2.98,0.1c1.02,0.2,2.07,0.44,3.15,0.81
								l0.58,1.46c0-0.41-2.74-1.42-4.07-1.25c1.97-0.17,6.4,3.22,8.78,1.97l-2.91-1.56c3.29,0.14,7.66-0.64,11.42,1.19
								c-1.42-1.8-0.91-0.17-3.32-2.47c2,2.37-10.23-2.34-6.71,0.47c-2.54-2.27-4.85-2-8.51-3.96c0.07,0.44,1.25,0.98-2.13,0.37
								c-0.17,0.1-0.54,0.24-0.81,0.27c-0.1-0.03-0.14-0.03-0.24-0.07l0.17,0.07c-0.17,0.03-0.17,0.07,0.07,0.03
								c0.78,0.27,1.42,0.58,1.66,0.85c-1.83,0.78-7.18,0.1-9.05,0.41c-2-0.44,0.88-0.41-0.17-0.98c-0.91,0.14-1.86,0.3-2.78,0.58
								c-0.2-0.95-5.32-1.69-0.47-2.17l-4.34-0.14c-2.54-0.58-6.1-0.91-8.23-0.47c-2.07-0.03-5.12,1.46-3.35,0.58l-6.74,1.12
								l-0.1-0.24c-3.35,0.07-6.68,1.25-10.17,2.03c-3.46,0.88-7.08,1.32-10.94,1.69c-2.1,0.85-4.27,1.76-7.96,2.58l-0.98-0.58
								c-2.71,1.02-8.44,2.37-9.32,3.56c-0.95-0.24-2.24-0.03-3.76,0.41c-1.52,0.41-3.22,1.12-4.88,2.1
								c-3.32,1.86-6.74,4.03-9.15,5.05l0.37,1.02c-3.12,1.66-5.69,3.93-9.08,6.64l0.78,0.64c-2.78,2.51-8.06,5.15-12.64,8.95
								c0.07-0.54,1.29-1.42,2.27-1.9c-1.73,0.68-3.25,1.73-4.68,2.88c-1.36,1.25-2.47,2.74-3.63,4.2
								c-2.24,2.95-4.51,5.62-7.12,7.59c-0.78,1.46-1.59,2.27-2.47,2.98c0.1-0.1,0.17-0.24,0.2-0.34c-0.1,0.14-0.27,0.3-0.44,0.51
								c-0.58,0.44-1.19,0.91-1.83,1.39c0.61-0.37,1.15-0.75,1.59-1.12c-0.78,0.95-1.86,2.47-2.85,4.03l-1.32-0.03
								c-0.1,0.14-0.17,0.2-0.24,0.34c-1.46,1.15-0.54,1.39,0.68,1.15c-0.47,0.78-0.75,1.63-0.91,2.3
								c-2.17,0.24-2.24,4.24-4.81,4.88c0,0.75-1.15,2.74-2.17,4.74c-0.85,2.1-1.56,4.27-1.02,5.12c-0.24-0.07-0.58,0.34-0.14-0.51
								c-1.15,1.66-2.3,3.32-2.71,5.15l-1.59,0.17c-0.24,1.56-0.34,3.12-0.37,4.71c-1.76,2.1-2.64,2.95-2.51,0.07
								c-1.12,6.54-1.59,5.05-2.24,10.64l-0.71-0.54c-0.58,1.86-0.44,5.18-1.49,6.1c-3.29,3.59-5.93,20.7-8.2,31.78
								c1.39-0.98,0.88,0.27,0.44,1.9c-0.37,1.63-0.85,3.56,0.1,3.83c-0.61,0.64-0.98,2.2-1.42,0.34c0.51,5.76-1.32,8.74,0.78,12.64
								c-0.54,0.68-0.95-1.19-1.25-0.58c0.17,0.47,0.64,1.8,0.34,2.44c-0.3,0.61-0.54-0.81-0.88-1.73c0.58,5.96,2.41,6.37,4.13,6.61
								c-0.27,1.52-0.37,2.64-0.2,3.63c0.24,0.98,0.71,1.83,1.46,2.78c-0.37,1.08-0.64,2.88-1.49-0.68c0.3,2,1.36,12.5,2.85,12.37
								c-0.17,0.68,0.68,2.78,0.98,3.25c1.19,4.41,1.19,4.85,2.54,9.11l-0.14-1.25c1.97,1.22,1.52,3.39,3.05,6.68l-0.2-0.03
								c0.98,4.07,1.46,4.85,1.9,5.59c0.2,0.37,0.44,0.78,0.71,1.56c0.24,0.81,0.61,2,1.29,3.93l0.71-0.85
								c2.34-0.3,2.17,6.98,5.15,10.81l-0.3-1.8c1.76,1.9,1.32,7.66,2.51,10.1c0.17,0.58-0.75-0.58-1.32-1.19
								c2.74,6.54,1.63,0,4.68,4.13c-0.03,1.19-2.24,0.1-0.3,2.98c0.71,1.69,8.06,6.51,10.23,10.81c-0.34-1.12-0.61-2.24,1.36-0.81
								c2.71,2.37,5.35,8.64,9.08,9.49c0.24,0.41,0.3,0.64,0.2,0.75c2.44,1.46,7.45,5.22,9.28,5.52c-0.1,2.24,3.83,4.27,7.35,6.13
								c3.49,1.97,6.95,3.25,6.1,4.61l7.59,3.96l-0.34,0.2c4.78,2.74,7.01,2.54,9.05,2.64c1.08,0.71,0.1,0.61-0.07,0.75
								c7.01,3.9,8.06,3.66,14.84,4.24l0.37,1.22c0.95,0,3.56,1.32,7.08,2.34c1.73,0.54,3.69,1.12,5.69,1.59
								c2,0.47,4.07,0.85,6.07,0.71c-0.1,0.1-0.27,0.3-0.91,0.37c4.51-0.17,9.62,1.46,14.23,2c4.61,0.51,8.57,0.68,10.13-1.22
								c1.93-0.2,3.83-0.85,5.76-1.25c-7.45,0.27,1.02-1.76-2.07-2.17c2.85-0.44,7.56,0.58,4,1.05l-0.58-0.14
								c-1.19,2.07,9.28,0.07,9.25,1.25c14.64-2.13,28.8-5.56,41.61-11.18c-0.71-0.24-1.39-0.44-2.1-0.71
								c1.49-0.61,2.88-1.39,4.34-2.1c1.29-0.27,2.07,0.3-1.05,1.86c2.03-0.03,4.81-3.35,4.74-3.69c6.3-2.58-1.49,2.85,0.37,1.9
								l2.47-1.42l-0.64,0.14c0.88-0.81,1.25-1.39,1.9-2c0.64-0.58,1.52-1.25,3.25-2.37c2.37-1.19,1.63,0.07,2.54-0.44
								c0.07,0.1,0.37-0.07,1.36-0.85l5.22-3.25l-2.74,0.34c1.93-1.97,4.78-3.15,1.66-2.68c2.3-0.27,6.78-3.8,11.08-7.22
								c4.1-3.66,7.59-7.62,8.78-8.23c0.51-0.81,1.05-1.59,1.63-2.34c0.54-0.81,1.08-1.59,1.69-2.37c1.19-1.59,2.54-3.15,4.07-4.88
								c-0.95,0.71-2.44,0.34,0.2-2.54c0.61,1.39,2.17,0.3,3.69-1.56c1.52-1.86,3.29-4.27,5.08-5.05c-1.39,0.81,0.14-1.59,1.49-3.83
								c1.32-2.27,2.17-4.57,0.3-3.08c1.8-2.78,1.02,0.37,2.81-1.49c0.71-1.86,1.63-3.76,2.68-5.62c0.54-0.95,1.08-1.9,1.63-2.88
								c0.51-1.02,1.02-2.03,1.52-3.05c2-4.13,4.57-8.37,5.73-13.21c-0.3-0.27-1.36,1.12-1.25-1.05l3.39-4.37
								c0.34-1.93-1.36-2.24,0.61-5.35c-0.41,0.41-1.05,1.02-0.88-0.27c3.15-9.08,4.37-18.94,4.51-28.77
								c0-4.91,0.27-9.83-0.14-14.74c-0.1-2.47-0.14-4.91-0.07-7.39c0.07-2.47-0.24-4.91-0.17-7.42c-0.24,2.74-0.64,1.02-1.02-0.98
								c0.07,1.32-0.91,0.14-1.39,0.47c-0.07-2.74,0.03-5.52-0.14-8.3c-1.76-1.08-2.51-8.4-4.03-8.84l0.95,2.41
								c-2.47-2.78-2.1,5.52-4.24,5.52c0.68,0.78,1.05,1.8,1.25,2.95c0.14,1.19,0.03,2.51,0,3.9c-0.07,2.78-0.03,5.76,1.8,8.54
								c-0.17,1.36-0.85-1.02-1.19-0.27c1.22,1.36,1.46,3.19,1.36,6.64l-0.24-0.37c0.41,4.74,0.78,8.17,0.27,11.72
								c-0.17,1.76-0.37,3.59-0.58,5.62c-0.2,2.03-0.3,4.27-0.88,6.88l1.12-0.71c-0.41,2.27-0.78,2.71-1.15,3.76
								c1.22,2.81,0.85-6.4,2.27-3.86c-1.22,1.46-1.69,5.46-2.2,9.35c-0.58,3.9-1.69,7.56-2.98,8.34c-0.78,3.42,1.36-0.75,0.61,2.71
								l-0.81,0.75l0.61,1.08c-0.58,2.24-1.9,3.08-2.37,3.05c0.24-0.51,0.34-1.56,0.47-2.13c-1.63,2.61-2.34,8.06-2.88,8.98
								l1.39-3.08c-0.64,2.3-1.22,4.78-2.17,7.22c-1.02,2.37-2.07,4.81-3.12,7.25c-0.51,1.22-1.02,2.44-1.52,3.66
								c-0.61,1.15-1.19,2.3-1.76,3.46c-1.15,2.3-2.17,4.54-3.02,6.78l0.75-0.37c-0.64,1.69-1.25,2.78-1.83,3.59
								c-0.58,0.81-1.05,1.39-1.56,1.97c-1.02,1.15-2.13,2.34-4.17,5.69l0.07-0.3c-0.44,1.63-1.66,3.35-3.08,4.98
								c0.81-1.86-3.22,2.17-2.03-0.2c-4.24,6.51-1.76,3.49-3.93,8.47l-1.42,0.3c-0.75,1.73-0.58,2.1-3.25,5.05
								c1.83-2.78-2.61,0.88-0.68-2.3c-1.76,1.12-3.08,2.3-4.2,3.46c-1.15,1.08-2.13,2.07-2.98,2.98c-1.73,1.83-3.08,3.25-5.32,3.42
								c-1.59,4.13,6.27-3.52,4.95-1.83c1.86-0.58-1.42,3.25-3.59,4.74c-2.03,1.73-5.35,0.34-10.74,4.03
								c0.54-0.34,0.51-0.51,1.05-0.88c-1.19,0.44-2.07,1.25-3.05,2.1c-0.95,0.85-2.07,1.66-3.66,1.9
								c-0.85,1.93-3.49,1.73-3.15,3.46l5.22-3.15c-2.81,1.97-4.81,5.25-10.33,7.05c0.24-0.51,1.56-1.69,2.47-2.47
								c-1.69,0.27-2.64,1.86-4.47,2.03c-0.2-1.59,6.4-3.69,9.08-6.51c-1.9,0.17-5.56,4.3-4.78,1.8c-0.64,1.66-2.13,2.34-3.8,3.05
								c-1.76,0.58-3.76,1.12-5.49,2.78l-0.1-1.05c-0.58,0.41-1.76,1.39-2.98,1.86l1.69-2.1c-2.95,2.37-6.68,1.76-9.79,3.12
								c3.42-0.98,3.9-0.85,3.93-0.44s-0.41,1.12,1.15,0.91c-8.13,3.96-5.73-1.02-15.04,2.13c1.25-0.41,4.98-0.78,3.08,0.27
								c-1.86,0.41-4.4,0.47-5.62,0.14c-6.4,1.36,1.19,0.85-1.42,1.97c-2.44-0.81-3.08,1.08-5.93,1.97l-0.17-1.02
								c-1.86,0.2-2.91,0.37-3.56,0.54c-0.61,0.2-0.81,0.47-0.98,0.75c-0.34,0.54-0.61,1.08-4.07,0.95l2.74-1.66l-3.49,0.64
								l0.64-1.22c-1.86,0.58-3.12,0.85-4.37,0.95c-1.25,0.14-2.47,0.1-4.37-0.17c0.88,0.75-0.47,1.86-3.83,1.83
								c-2.27-0.64,1.29-0.95-3.46-0.91c1.12-0.61,2.27-1.42,4.3-0.41c0.2-0.34,1.05-0.61,1.25-0.95c-2.41-0.75-6.1-0.27-7.79-0.3
								c0.64,0.03,1.42,0.14,1.83,0.27c-1.15,0.2-2.3,0.44-3.46,0.61l-3.46,0.3c-1.05-0.51-0.14-0.71,0.71-0.91
								c-1.39-0.07-2.37,0.3-4.44,0.14c0.64-0.78,0.61-1.63,3.49-1.69l-6.54,0.17c-0.37-0.37-3.12-1.42-2.24-1.63
								c-3.32-1.29-8.91-0.17-13.35-2.03c-0.27,0.07-0.78,0.07-1.8-0.14c-2.1-0.78-4.03-1.73-6.07-2.51
								c-1.02-0.41-2.1-0.75-3.22-1.08c-1.12-0.41-2.3-0.78-3.63-1.02l-2.17-2.58c-3.93-1.32,2.98,3.35-3.63,1.12
								c-4.74-1.52-1.15-1.86-2.51-3.02c-2.44-0.47-6.95-1.22-10.3-4.44C75.97,256.67,76.89,257.42,78.17,257.99z M39,225.23
								c0.81,0.64,2.58,1.76,2.54,2.71C39.92,227.84,39.82,226.75,39,225.23z M8.61,153.46c0.41,0.75,0.3,1.9,0.03,3.25
								C8.47,155.77,8.44,154.68,8.61,153.46z M143.43,1.35l-0.1,0.03C140.93,0.95,141.77,1.12,143.43,1.35z M148.38,1.9
								c0.51-0.14,0.47-0.27,0.27-0.44c-0.37,0.24-1.46,0.24-2.74,0.14C146.25,1.9,146.89,2.1,148.38,1.9z M219.51,262.13l-0.95,0.3
								C220.18,261.01,219.84,261.55,219.51,262.13z"/>
							<path class="st0" d="M10.91,162.27c-0.14,0.3-0.3,0.41-0.47,0.51C10.67,163.15,10.88,163.12,10.91,162.27z"/>
							<path class="st0" d="M107.65,269.79l0.14,0.07c0.1-0.03,0.17-0.07,0.2-0.14L107.65,269.79z"/>
							<path class="st0" d="M78.95,27.04c-0.91,0.3-1.49,0.41-1.9,0.37C77.12,27.68,77.63,27.65,78.95,27.04z"/>
							<path class="st0" d="M174.71,3.59l-3.19-0.44c1.52,0.27,2.03,0.61,2.74,0.95C174.27,3.86,173.73,3.39,174.71,3.59z"/>
							<path class="st0" d="M198.5,18.19c0.47,0.07,0.88,0.37,1.32,0.41l0.1-0.47C198.16,17.38,196.77,17.21,198.5,18.19z"/>
							<path class="st0" d="M176.78,7.55c0,0.95,2.03,0.88,4.17,1.49l-0.37-0.1C181.52,7.96,179.18,7.59,176.78,7.55z"/>
							<path class="st0" d="M181.42,9.18c0.64,0.17,1.32,0.37,1.93,0.61C183.76,9.38,182.6,9.42,181.42,9.18z"/>
							<path class="st0" d="M154.68,1.62c1.02,0.34,0.75-1.02,1.32-0.61C157.29,0,148.89,1.59,154.68,1.62z"/>
							<polygon class="st0" points="177.79,10.71 177.32,9.52 175.93,10.1 							"/>
							<path class="st0" d="M161.26,6.74l3.39,0.71c-0.03-0.17,0.44-0.24,0.98-0.24C163.49,6.91,161.22,6.44,161.26,6.74z"/>
							<path class="st0" d="M165.59,7.22c1.08,0.17,2.13,0.44,2.74,0.37C167.76,7.49,166.51,7.18,165.59,7.22z"/>
							<polygon class="st0" points="173.15,10.03 172.2,9.59 169.86,8.98 							"/>
							<path class="st0" d="M124.22,6.54l-3.66,0.98c-0.3,0.44,0.71,0.47,2.07,0.07C123.48,7.18,124.83,6.81,124.22,6.54z"/>
							<path class="st0" d="M135.74,8.44c-1.02-0.14-1.08-0.37-1.69-0.68l-0.03,1.32L135.74,8.44z"/>
							<path class="st0" d="M125.04,9.69c-0.3,0.44-5.08,2-0.54,1.08C124.83,10.3,128.42,9.49,125.04,9.69z"/>
							<polygon class="st0" points="72.18,26.7 72.95,26.16 71.73,24.36 							"/>
							<path class="st0" d="M39.48,62.68c3.12-2.95-0.41-1.63,2.58-4.17c0.24-1.12-2.44,2.1-2.13,1.02
								C38.7,61.87,37.58,62.72,39.48,62.68z"/>
							<path class="st0" d="M39.95,59.53c0.2-0.37,0.41-0.78,0.61-1.22C40.15,58.96,40.02,59.3,39.95,59.53z"/>
							<polygon class="st0" points="280.09,105.11 279.72,102.13 279.55,104.19 							"/>
							<path class="st0" d="M276.97,100.13l1.12-1.08l-1.69-1.29C276.67,98.36,277.14,99.55,276.97,100.13z"/>
							<path class="st0" d="M36.7,217.5l-0.37,0.03c-0.07,0.54,0.27,1.12,0.91,2.2L36.7,217.5z"/>
							<polygon class="st0" points="60.93,244.98 60.48,244.54 60.59,246.3 							"/>
							<path class="st0" d="M87.76,260.03c-1.15-0.47-2.54-0.95-3.63-1.63C86.58,259.59,87.42,261.55,87.76,260.03z"/>
						</g>
					</g>
				</g>
			</g>
		</g>
		<g>
			<g>
				<g>
					<g>
						<g>
							<path class="st0" d="M240.14,62.58c0.34-0.03-0.07-0.85-0.07-1.02C239.6,61.94,240.24,62.79,240.14,62.58z"/>
							<polygon class="st0" points="235.53,66.31 235.53,65.9 235.02,67.02 							"/>
							<path class="st0" d="M230.62,67.97c0.95,1.29,1.69-0.85,2.74-0.64l0.27,0.27v-1.29C232.62,66.85,231.5,68.11,230.62,67.97z"
								/>
							<path class="st0" d="M226.93,65.73c0.34,0.51-0.41,0.68,0.68-0.03c-0.07-0.03-0.1-0.07-0.17-0.1
								C227.33,65.63,227.2,65.7,226.93,65.73z"/>
							<path class="st0" d="M227.47,65.6C227.94,65.4,226.96,65.26,227.47,65.6L227.47,65.6z"/>
							<path class="st0" d="M225.16,66.75l0.51-0.75c-0.27-0.27-0.88-0.14-0.75-0.47C224.32,66.04,224.59,66.34,225.16,66.75z"/>
							<path class="st0" d="M224.89,68l0.27-0.34C225.06,67.56,224.96,67.53,224.89,68z"/>
							<path class="st0" d="M225.77,66.99l-0.61,0.71c0.17,0.2,0.34,0.68,0.3-0.27C225.54,67.83,225.54,67.39,225.77,66.99z"/>
							<path class="st0" d="M226.25,67.06c0.47,0.17,1.05,0.2,0.54,0.95C228.04,67.36,227.5,66.41,226.25,67.06z"/>
							<path class="st0" d="M230.89,69.53l0.64,0.24l0.27-0.64C231.67,69.46,230.69,69.09,230.89,69.53z"/>
							<path class="st0" d="M220.66,67.46c0.07,0.34,0.51,0.75,0.71,1.12l0.37-0.54C221.4,67.9,220.86,67.9,220.66,67.46z"/>
							<path class="st0" d="M221.37,68.55l-0.58,0.78C221.5,69.19,221.54,68.89,221.37,68.55z"/>
							<polygon class="st0" points="225.3,69.66 226.18,68.14 225.1,69.77 							"/>
							<polygon class="st0" points="217.78,68.38 217.98,67.53 217.57,68.89 							"/>
							<path class="st0" d="M215.91,69.16c0.1-0.71-0.78-0.85-0.58-1.32c-0.47,0.27-0.75,0.95-0.98,1.52
								C214.69,68.99,215.17,68.89,215.91,69.16z"/>
							<path class="st0" d="M213.91,70.27c0.17-0.2,0.3-0.54,0.44-0.88C214.19,69.6,214.02,69.87,213.91,70.27z"/>
							<path class="st0" d="M219.47,69.63c-0.14-0.17-0.41-0.61-0.88-0.68l0.58,0.75C219.23,69.7,219.37,69.66,219.47,69.63z"/>
							<path class="st0" d="M219.17,69.73L219.17,69.73c-0.34,0.07-0.58,0.14-0.68,0.14C218.59,69.87,218.79,69.83,219.17,69.73z"/>
							<path class="st0" d="M219.54,69.6c-0.03,0-0.03,0-0.07,0.03C219.51,69.7,219.54,69.73,219.54,69.6z"/>
							<path class="st0" d="M223.06,69.56c-0.27,0.64-1.02,1.46,0.14,1.9C223.3,70.75,222.66,70.51,223.06,69.56z"/>
							<path class="st0" d="M220.28,70.58l0.88-0.07c-0.1-0.24-0.34-0.51-0.2-0.81L220.28,70.58z"/>
							<polygon class="st0" points="219.98,70.99 220.28,70.58 219.95,70.58 							"/>
							<path class="st0" d="M215.57,70.61c-0.2,0.51-0.58,0.64-0.98,0.85c0.51,0,1.02-0.07,1.46-0.2
								C216.01,70.95,216.05,70.41,215.57,70.61z"/>
							<path class="st0" d="M217.34,70.27c0,0.03-0.03,0.03-0.07,0.07C217.37,70.41,217.4,70.41,217.34,70.27z"/>
							<path class="st0" d="M210.36,72.92c0.03,0.03,0.07,0.1,0.14,0.14c0-0.07-0.03-0.1-0.03-0.17L210.36,72.92z"/>
							<path class="st0" d="M216.18,71.39c0.41,0.03,0.54-0.24,0.64-0.58c-0.24,0.17-0.47,0.34-0.78,0.44
								C216.05,71.39,216.08,71.46,216.18,71.39z"/>
							<path class="st0" d="M212.9,71.09c0.24,0.14,0.51,0.2,0.75,0.27C213.37,71.12,212.86,70.82,212.9,71.09z"/>
							<path class="st0" d="M217.1,70.14c0-0.03,0.03-0.03,0.03-0.07C216.96,69.94,217,70.04,217.1,70.14z"/>
							<path class="st0" d="M217.1,70.14c-0.14,0.17-0.2,0.44-0.27,0.68c0.17-0.14,0.34-0.3,0.47-0.47
								C217.23,70.31,217.13,70.21,217.1,70.14z"/>
							<path class="st0" d="M211,78.88c-0.2-0.81,0.44-1.86,1.52-1.29c0.58-0.85-0.85-3.32-2.03-4.57c0.1,0.37,0.2,0.68-0.41,1.42
								c0.44,0.34,2.1,0.41,1.69,1.39c-0.91,0.78-0.95,0-1.59-0.24c0.78,0.85-0.85,1.9-0.1,3.29l0.75-0.85
								C210.86,78.27,210.66,78.78,211,78.88z"/>
							<path class="st0" d="M212.02,72.61l0.3-0.2c-0.41,0-0.78-0.24-1.49-0.71c-0.41,0.58-0.41,0.91-0.37,1.19l1.63-0.44
								L212.02,72.61z"/>
							<path class="st0" d="M213.78,71.9c0.03,0.95-0.61,1.59,0.2,2.37c0.95-0.37,0.41-0.95,0.85-1.52
								c-1.46,0.75,0.27-0.64-1.02-0.75c0.24-0.24,0.51-0.41,0.75-0.51c-0.3,0-0.61-0.03-0.95-0.14c0.03,0,0.03,0.03,0.07,0.03l0,0
								l0,0c0.1,0.1,0.14,0.14,0.07,0.1l-0.03,0.03C213.74,71.66,213.78,71.77,213.78,71.9c-0.51-0.03-0.14-0.2-0.03-0.37
								c0-0.03,0-0.1-0.03-0.14l0,0l-1.39,1.02C212.69,72.41,213.07,72.24,213.78,71.9z"/>
							<path class="st0" d="M223.03,73.6c-0.07-0.07-0.1-0.14-0.1-0.17C222.83,73.56,222.83,73.66,223.03,73.6z"/>
							<path class="st0" d="M222.22,73.29c0.07-0.17,0.03-0.54,0.44-0.58c0.41,0.17,0.14,0.41,0.27,0.71
								c0.14-0.3,0.54-0.88-0.27-1.08l-0.07,0.17c-0.71-0.1-1.9-0.91-1.83-1.05C221.17,72.17,221.54,72.68,222.22,73.29z"/>
							<path class="st0" d="M218.01,72.82l-1.12,0.88l0.91,0.54l-0.2-0.44C218.39,73.73,218.05,73.22,218.01,72.82z"/>
							<polygon class="st0" points="210.09,72.51 209.92,71.53 209.64,73.09 							"/>
							<polygon class="st0" points="208.42,73.19 208.22,72.38 207.95,73.02 							"/>
							<path class="st0" d="M117.61,115.41l-0.3,0.37C117.44,115.61,117.55,115.51,117.61,115.41z"/>
							<path class="st0" d="M120.36,114.53l-0.07-0.41C120.22,114.36,120.26,114.53,120.36,114.53z"/>
							<path class="st0" d="M167.46,87.35c-0.81-0.54-1.83-1.49-1.46-0.64l0.47,0.81C166.81,87.25,167.15,87.25,167.46,87.35z"/>
							<path class="st0" d="M141.16,102.19c0.07,0.07,0.17,0.14,0.24,0.2c0.03-0.34,0.07-0.68,0.07-0.95
								C141.4,101.69,141.3,101.92,141.16,102.19z"/>
							<path class="st0" d="M142.01,105.95l-0.91-0.3C141.33,105.79,141.64,105.89,142.01,105.95z"/>
							<path class="st0" d="M103.01,121.44l-0.14,1.05C103.55,122.25,103.08,121.91,103.01,121.44z"/>
							<path class="st0" d="M191.45,79.39c-0.58-0.17-1.02-0.2-1.36-0.14C190.84,79.56,191.55,80.17,191.45,79.39z"/>
							<path class="st0" d="M115.48,105.72c-0.17,0.24-0.2,0.44-0.14,0.64C115.55,106.12,115.62,105.92,115.48,105.72z"/>
							<path class="st0" d="M188.7,79.73c0.1,0.07,0.2,0.07,0.3,0.14c0.3-0.27,0.61-0.51,1.05-0.58
								C189.52,79.02,188.98,78.95,188.7,79.73z"/>
							<path class="st0" d="M48.59,139.26c-0.07-0.03-0.1-0.03-0.17-0.07C48.46,139.33,48.52,139.3,48.59,139.26z"/>
							<path class="st0" d="M29.79,135.81c0.14-0.1,0.37-0.2,0.61-0.3C30.29,135.5,30.09,135.57,29.79,135.81z"/>
							<path class="st0" d="M201.58,75.12C201.92,74.95,201.61,75.02,201.58,75.12L201.58,75.12z"/>
							<path class="st0" d="M204.49,78c-0.03,0.14-0.07,0.27,0,0.47C204.46,78.27,204.46,78.1,204.49,78z"/>
							<path class="st0" d="M187.04,86.4L187.04,86.4C187.18,86.54,187.15,86.51,187.04,86.4z"/>
							<path class="st0" d="M202.26,75.32c-0.17-0.07-0.34-0.1-0.54-0.1C201.82,75.29,201.99,75.32,202.26,75.32z"/>
							<path class="st0" d="M202.05,74.95c0.14,0,0.24,0,0.34-0.03C202.39,74.78,202.29,74.68,202.05,74.95z"/>
							<path class="st0" d="M201.11,75.32c0.2-0.07,0.41-0.1,0.61-0.1c-0.1-0.03-0.14-0.07-0.14-0.1
								C201.48,75.15,201.34,75.22,201.11,75.32z"/>
							<path class="st0" d="M76.82,126.96c-0.03-0.03-0.07-0.03-0.1-0.07C76.48,127.4,76.61,127.3,76.82,126.96z"/>
							<path class="st0" d="M161.36,99.62c0,0,0-0.03,0.03-0.07c-0.03,0-0.03,0-0.07,0L161.36,99.62z"/>
							<path class="st0" d="M160.31,100.7c0.17-1.29,0.51-1.25,1.02-1.15l-1.29-2.37L160.31,100.7z"/>
							<path class="st0" d="M111.14,117.88l1.15,0.47c-0.64,1.66-1.56,1.49-0.34,2.3c-0.81-2.78,3.39-1.46,2.58-4.27l0.78,0.37
								c-0.17,0.03-0.14,0.2-0.34,0.24c1.59,0.91,0.17-2.27,1.8-2.41c0.58,0.03,1.08,0.3,0.85,0.75l0.91-1.08
								c0.34-0.07,0.44,0.44,0.07,0.51l1.66-0.81v0.1c0.1-0.51,0.44-1.39,0.61-1.76c0.58,0.24-0.14,0.37,0.1,0.68l0.75-0.98
								c0.64,0.58,0.07,1.56-0.64,1.66c1.83,2.44,0.58-0.95,3.05-0.03l-0.78,0.64c1.12,1.36,1.63,0.54,3.02,1.15
								c-0.41-0.41-2.91-1.73-2.1-2.78c0.37,0.1,0.78,0.07,1.15-0.68c0.34,0.98,0.81,0.54,1.49,0.24l0.41,1.32
								c0.61-0.64,0.34-1.25,0.58-2c0.88-0.17,1.39,0.78,1.86,1.56c1.42-0.24-1.46-1.29,0.03-2.07c1.29,0.1,1.86-0.68,2.95-1.9
								c0.91,0.17,0.14,0.85,0.54,1.12l0.34-1.25c0.17-0.03,0.24,0.3,0.27,0.47c0.44-0.61-0.41-1.32,0.41-1.97
								c-0.24-1.52,2.58,1.42,3.15-0.58c0.41,0.27,0.14,0.85,0.41,1.32c1.19-1.59,1.05-1.22,1.86-3.08l1.39,0.47
								c-1.12-0.71-0.51-2.2,0.07-3.46c-0.44-0.37-0.81-0.71-1.05-0.85l1.19-1.19c0.24,0.17,0.24,0.64,0.2,1.25
								c0.07-0.14,0.1-0.27,0.17-0.41c0.68,0.3,0.68,1.15,0.54,2c-0.27-0.2-0.54-0.41-0.78-0.61c-0.07,0.91-0.1,1.9,0.2,2.61
								c0.03-0.17,0.17-0.37,0.34-0.51c-0.03,0.24,0,0.44,0.07,0.58c0.1,0.14,0.14-0.2,0.27-0.64l0.81,1.32l-0.1-0.61l2.17,0.27
								c0.85-1.9,1.25-4.44,3.19-5.76c-0.17,1.22,0.47,1.76,0.88,3.02c-1.02-1.12-1.46,1.12-2.64,1.22
								c0.61-0.07,0.71,0.58,0.61,0.85l1.56-1.86c0.3,1.05,0.68,0.61,1.32,0.88c-1.08-1.9,0.98-1.86,1.59-2.74
								c0.27,0.68,0.34,1.42-0.71,1.59c1.59,1.15,0.58-2.85,2.07-1.93c-0.24,0.1-0.41,0.03-0.37,0.41c0.34-0.78,1.86-0.78,1.76-0.07
								l-0.24,0.1c1.66-0.3,4.78-1.63,4.44-3.42c0.1,0.2,0.51,2.13,0.54,2.51l0.81-6.74c0.27,1.56,2.41,4.74,1.39,6.03
								c0.44,0.07,0.98,0.17,1.59-0.61c-0.34-0.14-1.36-1.93-1.05-2.17c1.52,1.32,0.98,0.64,2.64,1.66
								c-0.47-0.17-0.85-2.64-0.24-2.78c0.03,0.37,0.85,2.27,0.68,2.58l0.71-2.78c-0.24,0.54,0.61,1.97,1.15,2.47
								c-0.3-0.41,1.32-0.41,1.63-0.78l-0.81-0.3c1.83-0.24,0.58-3.76,2.3-4.24c-0.03,0.54,0.47,3.05,1.46,3.05
								c0-1.29-0.17-6.2,1.02-7.59l0.51,0.58l0.88-1.15c-0.1,2-0.85,6.37-1.46,8.17c0.81,0.3,0.44,0.71,1.39,0.34
								c0.54,0.51-0.2,1.12-0.47,1.25l2.37-0.37c-0.58-1.32,1.22-1.93,0.75-3.05l-1.93,2.24c-0.58-1.32,0.07-4.34,1.73-4.64
								c0.58,0.41,0.54,2.51,0.71,2.95c0.03-0.54,1.19-1.39,1.46-1.12L178,94.1c1.05,0.2,0.81-2.3,2.3-1.36
								c0.41-0.03,1.69,1.39,1.46,0.54c-1.12-1.36-2.88-6.1-2.88-7.42c0.17,0.07,2.41,0.81,3.08,1.46c1.02,1.02,0.1,3.22,0.95,4.07
								c-0.1-0.37,0.07-0.95,0.17-1.15c0.47,0.2,0.24,1.22,1.02,0.75c-0.34-1.42,1.73-0.47,0-1.29c0.68-0.68,0.95,0,1.9-0.41
								c-0.61-0.78-0.17-3.32,0.51-4c0.07,0.37,0.41,0.75,0.58,0.95c1.69-0.44,2.81-0.14,4.37-0.64c0.27,0.27,1.15,0.44,1.02,1.12
								c0.14-0.3,0.17-0.85,0.64-1.05c1.32,0.88-1.02,0.54,0.2,1.73c-0.2-0.81,0.85-1.52,1.36-2.27c-0.64-1.15-1.66,0.3-2.17,1.05
								c-0.58-1.69,0-3.9,1.32-5.25c1.15-0.88,0.95,0.91,1.08,0.58c2.51-0.54,1.05-3.69,3.46-3.15c1.15,0.81,0.78,2.13,1.22,2.88
								c-0.91,0.78-1.83-0.14-2.54,0.14l1.05,0.2c-0.2,0.47-0.81,0.98-1.29,0.81c1.02,0.75,4.13-1.22,6.34-0.95
								c0.2-0.47,0.64-1.05,0.24-1.39l-0.54,0.34c-0.85-0.68,0.71-1.59-0.2-1.76c0.58-0.88,1.15-2.17,2.41-2.03l0.64,1.15
								c-0.14-0.34-0.98-0.47-1.15,0c0.27-0.71,2.27,1.08,2.24-0.71l-1.08-0.58c0.58-0.88,1.12-2.54,2.24-2.51
								c-0.88-1.08-0.17,0.2-1.36-0.98c1.22,1.56-2.54,0.78-0.95,2.34c-1.29-1.42-1.49-0.27-2.91-1.39c0.17,0.41,0.61,0.68-0.3,0.75
								c0,0.14-0.03,0.3-0.07,0.41c-0.03,0-0.03,0-0.07,0c0.03,0,0.03,0.03,0.07,0.03c0,0.07,0,0.1,0.03,0
								c0.27,0.1,0.51,0.27,0.64,0.47c-0.1,1.08-1.42,1.49-1.69,2.13c-0.54-0.03,0.03-0.54-0.37-0.88l-0.41,0.95
								c-0.37-0.88-1.83-1.05-0.85-2l-1.05,0.3c-0.78-0.3-1.69-0.2-2.1,0.34c-0.54-0.03-0.91,1.42-0.71,0.58l-1.46,1.12l-0.1-0.24
								c-1.66,0.44-2.81,2.64-5.22,1.63c-0.47,0.41-0.91,0.88-1.93,0.95l-0.44-0.71c-0.61,0.51-2.37-0.07-2.37,0.85
								c-1.49-1.86-3.56,0.71-4.91,0.75l0.3,1.05c-0.85,0.24-1.56,0.81-2.47,1.56l0.37,0.88c-0.64,1.05-2.54,0.14-3.93,0.75
								c-0.03-0.37,0.37-0.41,0.71-0.3c-2.41-1.46-3.08,2.71-5.15,1.76c-0.27,0.47-0.58,0.44-0.95,0.3c0.03,0,0.07-0.03,0.07-0.07
								c-0.03,0-0.1,0.03-0.17,0.03c-0.24-0.1-0.47-0.2-0.71-0.3c0.24,0.17,0.44,0.3,0.61,0.34c-0.3,0.14-0.71,0.37-1.08,0.78
								l-0.51-0.91c-0.03,0.03-0.07,0.03-0.1,0.07c-0.54-0.2-0.2,0.58,0.3,1.22c-0.17,0.24-0.3,0.51-0.37,0.78
								c-0.88-1.46-0.98,0.91-2.03-0.58c-0.03,0.91-2,1.39-1.66,3.19c-0.1-0.2-0.27-0.27-0.03-0.37c-0.58-0.03-1.12-0.07-1.39,0.58
								l-0.64-1.15l-0.51,2.03c-0.91-0.54-1.32-0.88-1.02-2.07c-1.05,2-1.08,0.98-1.93,2.88l-0.2-0.81
								c-0.47,0.2-0.85,1.52-1.39,0.95c-1.59-1.15-5.35,1.59-8.57,1.12c1.36,2.17-1.63-0.61-1.12,1.25
								c-0.34-0.51-0.85-0.68-0.58-1.32c-1.22,1.02-2.41-0.17-2.85,1.69c-0.34-0.51,0.03-0.91-0.24-1.19
								c-0.07,0.17-0.27,0.64-0.54,0.34c-0.27-0.27,0.03-0.54,0.17-0.85c-1.39,0.58-0.95,2.34-0.51,4
								c-0.98-0.51-1.32-0.27-1.46,0.95c-0.44-0.44-1.05-0.85-0.2-1.36c-0.54,0.1-3.32,0.27-2.91,1.59
								c-0.27-0.27-0.75,0.14-0.81,0.34c-1.15,0.3-1.29,0.24-2.34,0.71l0.37,0.1c0.1,1.69-0.78,0.68-1.63,1.15l-0.03-0.17
								c-2.41-0.44-0.68,0.85-3.15,0.24l0.44,0.95c0.54,2.13-2.2-0.61-3.08,0.58l0.61,0.41c-0.41,0.91-2.74-2.24-3.49-2.27
								c-0.2-0.14,0.14-0.37,0.27-0.58c-2.1-0.64,0.2,1.36-0.91,2.07c-0.47-0.61-0.3-1.83-1.19-1.69c-0.61-0.41-1.66,3.05-3.25,2.13
								c0.44,0.44,0.85,0.88,0.41,1.49c-0.81,0.51-3.08-1.19-3.32,0.78c-0.17-0.1-0.24-0.24-0.3-0.37
								c-0.54,0.68-1.97,1.46-2.07,2.51c-1.76-3.12-3.66,3.08-4.71-0.03l-2.03,0.88L106.4,109c-1.39,0.24-1.63,1.15-1.83,2.07
								c-0.37-0.1-0.27-0.47-0.27-0.64c-2.17,0.03-2.3,0.24-3.42,2.34l-0.51-0.95c-0.24,0.75-3.35-0.61-4.88,1.22
								c-0.03-0.14-0.03-0.34,0.07-0.51c-1.76,1.9-6.1-1.02-5.62,2.91l-1.12,1.39c1.93-0.34,0.27,1.69,1.22,2.03
								c-0.64,0.47-2.24-0.47-1.42-0.95l0.2,0.14c-0.34-2-2.51,0.1-2.91-1.22c-3.59,1.32-7.45,1.49-10.88,2.58l0.88,1.36l-1.22,0.3
								c-0.44-0.24-0.81-1.02,0.03-1.25c-0.75-0.68-1.19,1.19-1.08,1.52c-1.86-0.03,0.07-1.93-0.47-1.8l-0.64,0.34l0.2,0.14
								c-0.34,0.78-0.17,1.46-1.22,1.73c-0.75-0.07-0.64-0.81-0.91-0.78c-0.03-0.1-0.14-0.14-0.41,0.1l-1.52,0.37l0.98,0.95
								c-0.47,0.81-1.42,0.41-0.27,1.49c-1.69-1.69-5.79,1.15-6.64,0.75c-0.64,1.15-1.56,1.46-2.71,1.76
								c0.37,0.14,0.98,1.39-0.03,1.56c-0.58-2.85-2.17-0.58-3.63-2.24c1.15,1.05-2.64,1.25-0.91,2.71
								c-0.88,0.07-0.41-0.98-1.22-1.42c-1.56,1.73-4.51,0.78-6.74,1.97c0.1,0.37,0.68,0.78,0.34,1.49l-1.86-1.36
								c-0.41,0.34,0.27,2.2-1.02,1.25c0.24,0.27,0.58,0.64,0.27,0.88c-5.29-0.14-9.08,4.71-14.94,3.05c0.88,0.47,0.47,0.68,0,0.88
								c0.37,0.07,0.3,0.88,0.51,1.36l-2.44-0.64c0.1,1.46-2.1,0.81-1.86,2.17l0.54-0.44c-0.3,1.8,2.3,2.95,2.85,4.95
								c0.34-2.03,3.35,1.69,4.03-1.29c0.47,0.27-0.07,0.71,0.27,1.12c0.1-0.95,0.51-1.29,1.52-1.22l-0.03,0.24
								c2.37-1.05,3.73-0.58,6.64-0.98l-0.54-0.88c0.64-0.07,0.85,0.17,1.22,0.34c0.17-1.69-1.69,0.47-1.63-1.32
								c1.46,1.69,4.2-1.39,5.49,0.64c0.91-0.3-0.64-1.02,0.27-1.32l0.44,0.51l-0.03-0.85c0.64-0.07,1.19,0.58,1.39,1.08
								c-0.17,0-0.37,0.27-0.51,0.37c1.02,0.44,2.1-0.98,2.44-0.85l-1.02-0.07c2.3-1.42,5.59-1.66,7.59-3.69l-0.34-0.37
								c1.56-1.46,1.63,0,3.52-1.08l-0.03,0.14c0.24-0.58,0.71-1.02,1.29-1.15c-0.34,0.71,1.32,0.71,0.85,1.52
								c1.69-1.59,0.75-1.05,1.49-3.19l0.58,0.64c0.2-0.85,0.14-1.22,1.08-1.73c-0.61,0.91,1.02,0.91,0.41,2.1
								c2.68,0.91,2.58-2.74,4.37-0.68c0.27-2.41-2.24-0.54-1.83-1.15c-0.68-0.51,0.27-1.83,1.02-1.83
								c0.68-0.17,2.07,2.27,3.73,1.63c-0.17,0.03-0.14,0.2-0.3,0.27c0.81,0.3,0.98-1.15,2.07-0.54c0-1.39,1.05-0.27,0.61-1.93
								l-1.42,0.91c0.75-0.71,0.91-2.88,2.68-2.47c0,0.37-0.3,0.95-0.51,1.29c0.58,0.34,0.71-0.58,1.32-0.27
								c0.41,1.66-1.76,0.98-2.3,2.54c0.68,0.51,1.39-1.76,1.52,0.14c-0.07-2.44,1.76-0.3,2.34-2.37l0.24,0.98
								c0.14-0.2,0.34-0.78,0.68-0.88l-0.17,1.46c0.58-1.39,2.1,0.3,2.81-0.58c-1.86,0.68-0.81-1.02-1.83-1.46
								c1.86-2.07,2.17,2.07,4.61,0.71c-0.3,0.27-1.49-0.14-1.12-0.75c0.54,0.03,1.32,0.17,1.8,0.58c1.63-0.78-0.61-0.91-0.07-1.73
								c0.98,0.98,0.68-0.78,1.29-1.39l0.34,0.98c2.17-0.03-0.17-2.2,1.83-2.07l-0.27,1.59l0.78-0.68l0.2,1.19
								c0.71-1.15,1.08-1.05,2.17-1.08c-0.47-0.61-0.47-1.8,0.37-2.13c0.78,0.37,0,1.05,1.15,0.47c-0.07,0.71-0.1,1.56-0.95,0.85
								c0.07,0.34-0.07,0.71,0,1.05c0.85,0.44,1.63-0.41,2.07-0.54c-0.17,0.03-0.41,0.03-0.54-0.07l1.32-1.97
								c0.41,0.27,0.27,0.64,0.17,1.02c0.34-0.24,0.41-0.78,0.91-1.02c0.14,0.85,0.44,1.66-0.17,2.27l1.39-1.46
								c0.24,0.3,1.19,0.64,1.08,1.02c1.08,0.14,1.76-2.34,3.22-2.13c0-0.17,0.1-0.37,0.3-0.58c1.22-0.24,2.61,0.41,3.59-1.15
								l1.25,1.15c0.98-0.68-1.66-1.42-0.07-2.58c1.12-0.88,0.88,1.05,1.49,1.29c0.37-0.95,0.98-2.78,2.58-2
								C111.85,117.78,111.48,117.68,111.14,117.88z M124.29,112.7c-0.2,0.3-0.47,1.12-0.88,0.58
								C123.31,112.05,123.71,112.53,124.29,112.7z M143.77,103.41c-0.07,0.37-0.44,0.34-0.88,0.07
								C143.1,103.31,143.37,103.24,143.77,103.41z M197.99,77.25c0,0.03,0,0.03,0,0.07C197.28,77.12,197.51,77.19,197.99,77.25z
								 M199.31,77.25c0.07-0.17,0.03-0.3-0.07-0.44c0,0.27-0.27,0.37-0.58,0.41C198.84,77.46,199.04,77.59,199.31,77.25z
								 M70.79,121.71l0.3,0.17C70.68,122.36,70.72,122.05,70.79,121.71z"/>
							<path class="st0" d="M141.94,105.51c-0.14-0.14-0.2-0.3-0.3-0.51C141.6,105.21,141.64,105.41,141.94,105.51z"/>
							<path class="st0" d="M103.01,121.24h-0.03c0,0.07,0,0.14,0.03,0.2V121.24z"/>
							<path class="st0" d="M183.59,91.89c-0.3-0.07-0.51-0.17-0.64-0.34C183.01,91.79,183.18,91.96,183.59,91.89z"/>
							<path class="st0" d="M205.1,73.43l-0.68,0.51c0.34-0.17,0.58,0,0.81,0.07C205.14,73.8,204.87,73.53,205.1,73.43z"/>
							<path class="st0" d="M213.85,77.19c0.07-0.17,0.24-0.1,0.3-0.24l-0.17-0.44C213.47,76.68,213.27,77.15,213.85,77.19z"/>
							<path class="st0" d="M206.93,76.41c0.34,0.81,0.71,0.37,1.22,0.03c-0.03,0-0.07,0.03-0.1,0.03
								C207.81,75.29,207.37,75.87,206.93,76.41z"/>
							<path class="st0" d="M208.26,76.37c0.17-0.1,0.3-0.17,0.47-0.2C208.66,75.7,208.53,76.17,208.26,76.37z"/>
							<path class="st0" d="M200.67,76.2c0.34,0.14-0.2-1.12,0.07-0.81C200.63,74.24,199.45,77.22,200.67,76.2z"/>
							<polygon class="st0" points="208.29,78.98 207.75,78.03 207.71,78.95 							"/>
							<path class="st0" d="M203.78,79.69h0.95c-0.07-0.17,0-0.3,0.1-0.41C204.32,79.39,203.65,79.39,203.78,79.69z"/>
							<path class="st0" d="M204.87,79.25c0.27-0.07,0.54-0.2,0.64-0.41C205.34,78.92,205.04,79.05,204.87,79.25z"/>
							<polygon class="st0" points="207.21,79.69 206.9,79.56 206.26,79.69 							"/>
							<path class="st0" d="M194.5,82.64l-0.85,0.61c0.03,0.37,0.34,0.51,0.64,0.24C194.43,83.18,194.74,82.95,194.5,82.64z"/>
							<path class="st0" d="M198.26,84.47c-0.34-0.14-0.41-0.34-0.68-0.64l0.41,1.25L198.26,84.47z"/>
							<path class="st0" d="M195.65,85.69c0.03,0.37-1.02,1.46,0.14,0.98C195.75,86.3,196.6,85.69,195.65,85.69z"/>
							<polygon class="st0" points="180.98,88.94 181.18,88.84 180.47,86.78 							"/>
							<path class="st0" d="M170.2,98.13c1.29,0.1-0.17-1.36,1.05-1.08c0.1-0.58-0.98-0.24-0.88-0.75
								C169.86,97.04,169.42,96.87,170.2,98.13z"/>
							<path class="st0" d="M170.37,96.3c0.07-0.1,0.17-0.27,0.24-0.44C170.47,96.06,170.41,96.2,170.37,96.3z"/>
							<polygon class="st0" points="26.8,135.6 25.92,135.43 26.63,135.94 							"/>
							<path class="st0" d="M25.96,137.6l-0.61-1.25l-0.03,1.32C25.45,137.57,25.72,137.33,25.96,137.6z"/>
							<path class="st0" d="M127.17,114.66l-0.07-0.34c-0.24-0.3-0.41-0.27-0.75-0.2L127.17,114.66z"/>
							<polygon class="st0" points="117.14,117 117.31,116.97 116.6,115.88 							"/>
							<path class="st0" d="M109.52,121.3c0.34-0.07,0.64-0.47,0.98-0.51C109.89,121.24,108.94,119.85,109.52,121.3z"/>
						</g>
					</g>
				</g>
			</g>
		</g>
		<text transform="matrix(0.9461 -0.324 0.324 0.9461 49.9646 181.0823)" class="st0 st1 st2">11.21 11.22</text>
		<text transform="matrix(0.9461 -0.324 0.324 0.9461 49.9646 181.0823)" class="st3 st1 st2">11.21 11.22</text>
	</g>
</g>
</svg>
