<?xml version="1.0" encoding="utf-8"?>
<!-- Generator: Adobe Illustrator 25.0.0, SVG Export Plug-In . SVG Version: 6.00 Build 0)  -->
<svg version="1.1" id="レイヤー_1" xmlns="http://www.w3.org/2000/svg" xmlns:xlink="http://www.w3.org/1999/xlink" x="0px"
	 y="0px" viewBox="0 0 674.3 261.5" style="enable-background:new 0 0 674.3 261.5;" xml:space="preserve">
<style type="text/css">
	.st0{fill:#1DA0A7;}
	.st1{fill:#38A6D3;}
	.st2{fill:#38A6D3;stroke:#FFFFFF;stroke-width:0.5;stroke-miterlimit:10.0001;}
	.st3{fill:#EFEFEF;}
	.st4{fill:#FFFFFF;}
	.st5{opacity:0.87;}
	.st6{fill:#F9C04F;}
	.st7{fill:#56ACB2;}
	.st8{fill:#D1D2D2;}
	.st9{opacity:0.74;}
	.st10{opacity:0.81;}
	.st11{opacity:0.55;}
</style>
<polygon class="st0" points="80.8,124.3 161.4,138.5 145.8,172.2 83.9,161.3 "/>
<polyline class="st1" points="233.1,154.3 198.3,148.1 174.8,109.5 225.6,118.4 "/>
<polyline class="st1" points="251.8,48 222.8,42.8 192.3,72 234.7,79.5 "/>
<ellipse transform="matrix(0.1736 -0.9848 0.9848 0.1736 27.4254 200.5169)" class="st2" cx="133.2" cy="83.9" rx="54.6" ry="113.8"/>
<ellipse transform="matrix(0.1736 -0.9848 0.9848 0.1736 27.4254 200.5169)" class="st3" cx="133.2" cy="83.9" rx="45" ry="113.8"/>
<ellipse transform="matrix(0.1736 -0.9848 0.9848 0.1736 27.4618 200.5649)" class="st2" cx="133.2" cy="83.9" rx="38.2" ry="113.8"/>
<ellipse transform="matrix(0.1736 -0.9848 0.9848 0.1736 27.3881 200.4471)" class="st3" cx="133.1" cy="83.9" rx="26.5" ry="113.8"/>
<ellipse transform="matrix(0.1736 -0.9848 0.9848 0.1736 27.463 200.5668)" class="st1" cx="133.2" cy="83.9" rx="13.7" ry="113.8"/>
<path class="st4" d="M95.9,149.2l-2.9-0.5c-1.9-0.3-3.2-2.1-2.8-4v0c0.3-1.9,2.1-3.2,4-2.8l2.9,0.5c1.9,0.3,3.2,2.1,2.8,4l0,0
	C99.6,148.3,97.8,149.5,95.9,149.2z"/>
<path class="st4" d="M126.9,154.7l-2.9-0.5c-1.9-0.3-3.2-2.1-2.8-4v0c0.3-1.9,2.1-3.2,4-2.8l2.9,0.5c1.9,0.3,3.2,2.1,2.8,4v0
	C130.6,153.7,128.8,155,126.9,154.7z"/>
<path class="st4" d="M142.5,157.4l-2.9-0.5c-1.9-0.3-3.2-2.1-2.8-4v0c0.3-1.9,2.1-3.2,4-2.8l2.9,0.5c1.9,0.3,3.2,2.1,2.8,4l0,0
	C146.1,156.5,144.3,157.7,142.5,157.4z"/>
<path class="st4" d="M111.4,151.9l-2.9-0.5c-1.9-0.3-3.2-2.1-2.8-4v0c0.3-1.9,2.1-3.2,4-2.8l2.9,0.5c1.9,0.3,3.2,2.1,2.8,4l0,0
	C115.1,151,113.3,152.3,111.4,151.9z"/>
<path class="st4" d="M335.3,88.4c0,0.4-0.3,0.7-0.7,0.7c0,0,0,0,0,0h-38.4c-0.4,0-0.7-0.3-0.7-0.6c0,0,0,0,0-0.1
	c0-0.4,0.3-0.7,0.7-0.7h16.1v-4.3h-14.2c-0.4,0-0.7-0.3-0.7-0.7c0,0,0,0,0,0c0-0.4,0.3-0.7,0.6-0.7c0,0,0,0,0.1,0h14.2v-4.2h-15.6
	c-0.4,0-0.7-0.3-0.7-0.7c0-0.4,0.3-0.7,0.7-0.7h15.6v-1c-0.1-1.7,1.2-3.2,2.9-3.3c1.7-0.1,3.2,1.2,3.3,2.9c0,0.1,0,0.2,0,0.4v1H334
	c0.4,0,0.7,0.3,0.7,0.7c0,0.4-0.3,0.7-0.7,0.7h-15.5V82h14.2c0.4,0,0.7,0.3,0.7,0.7c0,0,0,0,0,0c0,0.4-0.3,0.7-0.7,0.7h-14.2v4.3
	h16.1C335,87.7,335.3,88,335.3,88.4z M332.4,94.3v17.6c0,0.4-0.3,0.7-0.7,0.7h-12.9c-0.4,0-0.7-0.3-0.7-0.7c0-0.4,0.3-0.7,0.7-0.7
	c0,0,0,0,0,0h7.4v-4.6h-21.7v5.3c0,0.4-0.3,0.7-0.7,0.7h-4.7c-0.4,0-0.7-0.3-0.7-0.7c0,0,0,0,0,0V94.3c0-1.7,1.4-3.1,3.1-3.1
	c0,0,0,0,0,0c1.4,0,2.6,1,3,2.4h21.9c0.3-1.4,1.6-2.4,3-2.4C331,91.2,332.4,92.6,332.4,94.3C332.4,94.3,332.4,94.3,332.4,94.3z
	 M326.2,95h-21.7v4.4h21.7V95z M326.2,100.8h-21.7v4.4h21.7V100.8z"/>
<path class="st4" d="M383.1,96.4c-0.2,0.3-0.7,0.4-1,0.2l-10.7-6.1c0,0,0,0-0.1-0.1h-17.2l-10.6,6.2c-0.3,0.2-0.7,0.1-0.9-0.2
	c0,0,0-0.1-0.1-0.1c-0.2-0.3-0.1-0.8,0.2-1l8.5-5h-8.1c-0.4,0-0.7-0.3-0.7-0.7c0,0,0,0,0,0c0-0.4,0.3-0.7,0.7-0.7h10.5l6-3.5v-1.7
	h-15c-0.4,0-0.7-0.3-0.7-0.7c0-0.4,0.3-0.7,0.7-0.7c0,0,0,0,0,0h15.1v-4.4h-16c-0.4,0-0.7-0.3-0.7-0.7c0-0.4,0.3-0.7,0.7-0.7
	c0,0,0,0,0,0h16v-1c0-1.7,1.4-3.1,3.1-3.1c1.7,0,3.1,1.4,3.1,3.1v1h16c0.4,0,0.7,0.3,0.7,0.7c0,0.4-0.3,0.7-0.7,0.7h-16v4.4h15
	c0.4,0,0.7,0.3,0.7,0.7c0,0,0,0,0,0c0,0.4-0.3,0.7-0.7,0.7h-15v1.9l5.9,3.4h10.5c0.4,0,0.7,0.3,0.7,0.7c0,0.4-0.3,0.7-0.7,0.7
	c0,0,0,0,0,0h-7.9l8.4,4.9C383.2,95.6,383.3,96,383.1,96.4z M378.7,98v13.9c0,0.4-0.3,0.7-0.7,0.7h-30.3c-0.4,0-0.7-0.3-0.7-0.7V98
	c0-1.7,1.4-3.1,3.1-3.1c1.4,0,2.6,1,3,2.3h19.5c0.4-1.7,2.1-2.7,3.7-2.3C377.7,95.3,378.7,96.6,378.7,98z M372.5,98.7h-19.4v5.4
	h19.4V98.7z M372.5,105.5h-19.4v5.7h19.4V105.5z M368.9,89l-4.3-2.4h-3.9l-4.2,2.4H368.9z"/>
<path class="st4" d="M430.2,75.9c0,0.4-0.3,0.7-0.7,0.7c0,0,0,0,0,0h-25.2v8.6h17.9c0.4-1.7,2-2.7,3.7-2.3c1.4,0.3,2.4,1.6,2.4,3v26
	c0,0.4-0.3,0.7-0.7,0.7c0,0,0,0,0,0h-13.8c-0.4,0-0.7-0.4-0.6-0.8c0-0.3,0.3-0.6,0.6-0.6h8.3V86.6h-17.8v16.8c0,0.4-0.3,0.7-0.7,0.7
	c0,0,0,0,0,0h-4.3l-8.4,9c-0.3,0.3-0.7,0.3-1,0c0,0,0,0,0,0c-0.3-0.2-0.3-0.7-0.1-1c0,0,0,0,0,0l8.3-8.8V76.6h-7
	c-0.4,0-0.7-0.3-0.7-0.6c0,0,0-0.1,0-0.1c0-0.4,0.3-0.7,0.7-0.7c0,0,0,0,0,0h38.4C429.9,75.2,430.2,75.5,430.2,75.9z"/>
<path class="st4" d="M449.8,84.5c0,0.4-0.3,0.7-0.7,0.7h-2.8v26.7c0,0.4-0.3,0.7-0.7,0.7h-4.3c-0.4,0-0.7-0.3-0.7-0.7V85.3h-2.8
	c-0.4,0-0.7-0.3-0.7-0.7c0-0.4,0.3-0.7,0.7-0.7c0,0,0,0,0,0h2.8v-7.7c-0.1-1.6,1.1-2.9,2.7-3c1.6-0.1,2.9,1.1,3,2.7
	c0,0.1,0,0.2,0,0.3v7.7h2.8C449.5,83.8,449.8,84.1,449.8,84.5C449.8,84.5,449.8,84.5,449.8,84.5z M477.4,78.4c0,0.4-0.3,0.7-0.7,0.7
	h-10.3v3.5h4c0.4-1.5,1.9-2.5,3.5-2.1c1.3,0.3,2.2,1.5,2.2,2.8V96c0,0.4-0.3,0.7-0.7,0.7h-23.6c-0.4,0-0.7-0.3-0.7-0.7V83.2
	c0-1.6,1.3-2.8,2.9-2.8c1.3,0,2.5,0.9,2.8,2.2h4v-3.5h-10.3c-0.4,0-0.7-0.3-0.7-0.7c0,0,0,0,0,0c0-0.4,0.3-0.7,0.7-0.7h10.3v-1.8
	c-0.1-1.6,1.1-2.9,2.7-3c1.6-0.1,2.9,1.1,3,2.7c0,0.1,0,0.2,0,0.3v1.8h2.4v-1.3c0-1.5,1.2-2.7,2.6-2.7c0,0,0,0,0,0
	c1.4,0,2.6,1.2,2.6,2.6c0,0,0,0,0,0.1v1.3h2.6C477.1,77.7,477.4,78,477.4,78.4z M477.2,101.5c0,0.4-0.3,0.7-0.7,0.7h-2v9.7
	c0,0.4-0.3,0.7-0.7,0.7c0,0,0,0,0,0h-9.9c-0.4,0-0.7-0.4-0.6-0.8c0-0.3,0.3-0.6,0.6-0.6h4.9v-9h-18.3c-0.4,0-0.7-0.3-0.7-0.7
	c0-0.4,0.3-0.7,0.7-0.7h18.3v-0.6c0-1.6,1.3-2.8,2.8-2.8c1.6,0,2.8,1.2,2.8,2.8c0,0,0,0,0,0.1v0.6h2
	C476.9,100.8,477.2,101.1,477.2,101.5z M459.9,106.7v3.1c0,0.4-0.3,0.7-0.7,0.7c0,0,0,0,0,0h-4.3c-0.4,0-0.7-0.3-0.7-0.6
	c0,0,0-0.1,0-0.1v-3.1c0-1.6,1.2-2.8,2.8-2.8c0,0,0,0,0.1,0C458.6,103.8,459.9,105.1,459.9,106.7z M460.7,84h-4v4.9h4V84z
	 M460.7,90.3h-4v5h4V90.3z M466.4,84v4.9h3.9V84H466.4z M470.3,90.3h-3.9v5h3.9V90.3z"/>
<g class="st5">
	<polygon class="st4" points="645.7,141.5 636.5,138.7 627.2,141 620.2,147.5 617.4,156.7 619.6,166 626.2,173 635.4,175.8 
		644.7,173.6 651.7,167 654.5,157.8 652.3,148.5 	"/>
	<polygon class="st4" points="604.2,144.2 593.7,147.2 586.1,155.1 583.6,165.7 586.6,176.2 594.5,183.8 605.1,186.4 615.6,183.3 
		623.2,175.4 625.8,164.8 622.7,154.3 614.8,146.8 	"/>
	<polygon class="st4" points="585.5,138.7 567.7,137.8 551.8,145.9 542,160.8 541.1,178.6 549.2,194.5 564.1,204.2 581.9,205.2 
		597.8,197.1 607.6,182.2 608.5,164.4 600.4,148.5 	"/>
	<polygon class="st4" points="546.1,145.6 532.7,147.9 522.3,156.5 517.6,169.2 519.9,182.6 528.5,193 541.3,197.7 554.6,195.5 
		565,186.8 569.7,174.1 567.5,160.7 558.8,150.3 	"/>
	<polygon class="st4" points="519.2,165 506.4,163.8 494.7,169.3 487.3,179.9 486.2,192.7 491.7,204.4 502.2,211.8 515.1,212.9 
		526.8,207.4 534.2,196.9 535.3,184 529.8,172.3 	"/>
	<polygon class="st4" points="481.5,156.7 468.3,158.4 457.6,166.6 452.5,179 454.2,192.2 462.4,202.9 474.8,208 488,206.2 
		498.7,198.1 503.8,185.7 502,172.4 493.9,161.8 	"/>
	<polygon class="st4" points="447.9,150.4 439.5,152.4 433.2,158.3 430.8,166.6 432.8,175 438.7,181.3 447,183.7 455.4,181.7 
		461.7,175.8 464.1,167.5 462.1,159.1 456.2,152.8 	"/>
	<polygon class="st4" points="419,157.2 409.9,157.1 401.9,161.5 397.3,169.4 397.2,178.5 401.6,186.5 409.5,191.1 418.6,191.2 
		426.5,186.8 431.2,178.9 431.3,169.8 426.8,161.8 	"/>
	<polygon class="st4" points="400.8,150.7 385.5,146.3 370.1,150 358.6,161 354.1,176.3 357.8,191.8 368.8,203.3 384.1,207.8 
		399.6,204 411.1,193 415.6,177.7 411.8,162.3 	"/>
	<polygon class="st4" points="351.5,150.1 339.9,152.5 331.1,160.4 327.5,171.7 329.9,183.2 337.8,192 349,195.7 360.6,193.3 
		369.4,185.4 373,174.2 370.6,162.6 362.7,153.8 	"/>
	<polygon class="st4" points="327,172.1 314.7,175.1 305.5,183.9 301.9,196 304.9,208.4 313.7,217.5 325.9,221.1 338.2,218.1 
		347.4,209.3 351,197.1 347.9,184.8 339.2,175.6 	"/>
</g>
<polygon class="st6" points="228.7,173.4 224.4,172.6 220.3,174.1 217.5,177.4 216.7,181.6 218.1,185.8 221.4,188.6 225.7,189.4 
	229.8,188 232.6,184.7 233.5,180.4 232,176.3 "/>
<polygon class="st7" points="250.4,178.4 246.1,178.5 242.5,180.8 240.5,184.5 240.6,188.8 242.8,192.4 246.6,194.4 250.8,194.3 
	254.4,192 256.4,188.3 256.3,184.1 254.1,180.5 "/>
<polygon class="st7" points="260,185.2 256.9,184.4 253.8,185.3 251.5,187.6 250.7,190.7 251.6,193.8 253.9,196.1 257,196.9 
	260.1,196 262.4,193.7 263.2,190.6 262.3,187.5 "/>
<polygon class="st7" points="248,174.6 243.8,175.9 240.7,179.1 239.7,183.4 241,187.7 244.2,190.8 248.5,191.8 252.8,190.5 
	255.8,187.3 256.9,183 255.6,178.7 252.4,175.7 "/>
<polygon class="st7" points="262,189.8 256.1,189.9 251,193 248.2,198.2 248.3,204.1 251.3,209.2 256.5,212 262.4,211.9 
	267.5,208.8 270.4,203.7 270.2,197.7 267.2,192.7 "/>
<polygon class="st7" points="576.1,139 571.8,137.8 567.5,138.8 564.2,141.8 562.9,146.1 564,150.4 567,153.7 571.3,155 
	575.6,153.9 578.8,150.9 580.1,146.6 579.1,142.3 "/>
<polygon class="st7" points="600.5,128 596.8,128.1 593.7,130.1 591.9,133.4 592.1,137.2 594.1,140.3 597.4,142 601.1,141.9 
	604.3,139.9 606,136.6 605.8,132.9 603.8,129.7 "/>
<polygon class="st7" points="389.8,201.2 385.3,200 380.8,201.2 377.5,204.4 376.3,208.9 377.5,213.4 380.7,216.6 385.2,217.9 
	389.7,216.7 393,213.4 394.2,209 393,204.5 "/>
<polygon class="st6" points="435,205.3 430.5,205.9 427,208.7 425.2,212.8 425.8,217.3 428.6,220.8 432.7,222.5 437.2,222 
	440.7,219.2 442.5,215.1 441.9,210.6 439.1,207.1 "/>
<polygon class="st6" points="454,210.2 449.1,209.9 444.7,212.1 442,216.1 441.7,221 443.8,225.4 447.9,228.1 452.8,228.4 
	457.1,226.3 459.9,222.2 460.2,217.3 458,213 "/>
<polygon class="st8" points="465.1,204.6 459.6,205.7 455.5,209.4 453.8,214.7 454.9,220.1 458.6,224.3 463.8,226 469.3,224.9 
	473.4,221.2 475.1,215.9 474,210.5 470.3,206.4 "/>
<polygon class="st7" points="465.7,205.6 459.1,205.7 453.4,209.1 450.2,214.9 450.4,221.6 453.8,227.2 459.6,230.4 466.2,230.3 
	471.9,226.8 475.1,221 474.9,214.4 471.5,208.8 "/>
<polygon class="st4" points="486.9,209 480.8,209.7 475.8,213.4 473.3,219 474,225.2 477.7,230.1 483.3,232.6 489.5,231.9 
	494.5,228.3 497,222.6 496.3,216.5 492.6,211.5 "/>
<polygon class="st7" points="286.1,191.3 283.2,190.2 280.1,190.8 277.7,192.8 276.6,195.8 277.2,198.9 279.2,201.3 282.2,202.3 
	285.3,201.8 287.7,199.7 288.7,196.8 288.1,193.7 "/>
<polygon class="st7" points="524.3,113.1 519.8,112.1 515.4,113.6 512.3,117 511.3,121.5 512.7,125.9 516.2,129 520.7,130 
	525.1,128.6 528.2,125.1 529.2,120.6 527.7,116.2 "/>
<polygon class="st7" points="533.8,100.4 527.4,101.9 522.5,106.3 520.5,112.6 521.9,119 526.4,123.9 532.6,125.9 539.1,124.5 
	543.9,120 545.9,113.7 544.5,107.3 540.1,102.4 "/>
<polygon class="st7" points="525.9,114 521.9,115 519,118 517.9,122 519,125.9 521.9,128.9 525.9,129.9 529.9,128.9 532.8,125.9 
	533.9,122 532.8,118 529.9,115 "/>
<polygon class="st6" points="491.2,191.4 486.8,192.2 483.4,195.2 481.9,199.4 482.7,203.9 485.7,207.3 489.9,208.8 494.4,207.9 
	497.8,205 499.3,200.7 498.4,196.3 495.5,192.8 "/>
<polygon class="st6" points="479.3,184.7 473.7,186.3 469.5,190.4 468,196.1 469.6,201.7 473.7,205.8 479.4,207.3 485,205.8 
	489.1,201.7 490.6,196 489.1,190.4 485,186.2 "/>
<polygon class="st6" points="472.1,190 467.8,189 463.6,190.3 460.5,193.6 459.6,197.9 460.9,202.1 464.1,205.1 468.4,206.1 
	472.7,204.8 475.7,201.6 476.7,197.2 475.4,193 "/>
<polygon class="st6" points="460.5,194.1 457.1,193.1 453.6,194 451,196.4 450,199.8 450.9,203.3 453.3,205.8 456.7,206.9 
	460.2,206 462.7,203.6 463.8,200.2 462.9,196.7 "/>
<polygon class="st6" points="633.3,132.9 627.1,133 621.7,136.2 618.7,141.7 618.8,147.9 622,153.3 627.5,156.3 633.7,156.2 
	639.1,152.9 642.1,147.5 642,141.3 638.8,135.9 "/>
<polygon class="st6" points="617.9,140 611.1,140.3 605.4,143.9 602.3,149.9 602.6,156.7 606.2,162.4 612.2,165.5 619,165.2 
	624.7,161.6 627.8,155.6 627.5,148.8 623.9,143.1 "/>
<polygon class="st6" points="600.6,136.6 595,135.8 589.7,138 586.1,142.5 585.3,148.1 587.5,153.5 592,157 597.7,157.8 603,155.6 
	606.5,151.1 607.3,145.4 605.2,140.1 "/>
<polygon class="st6" points="588.8,147.5 581.4,146.7 574.5,149.7 570.1,155.8 569.2,163.2 572.3,170.1 578.3,174.6 585.8,175.4 
	592.6,172.4 597.1,166.3 597.9,158.9 594.9,152 "/>
<polygon class="st6" points="292.8,200.1 286.2,200.3 280.6,203.8 277.5,209.6 277.8,216.2 281.2,221.8 287,224.8 293.6,224.6 
	299.2,221.2 302.3,215.4 302.1,208.8 298.6,203.2 "/>
<polygon class="st6" points="305.1,204 299.1,203.6 293.7,206.2 290.3,211.2 289.9,217.2 292.5,222.6 297.4,225.9 303.4,226.4 
	308.8,223.8 312.2,218.8 312.6,212.8 310,207.4 "/>
<polygon class="st6" points="313,200.9 309.3,201.5 306.3,203.9 304.9,207.4 305.5,211.2 307.9,214.2 311.4,215.5 315.2,215 
	318.1,212.6 319.5,209 318.9,205.3 316.6,202.3 "/>
<polygon class="st4" points="632.8,162.7 627.2,161 621.5,162.3 617.3,166.3 615.6,171.9 616.9,177.6 621,181.9 626.6,183.6 
	632.3,182.2 636.5,178.2 638.2,172.6 636.8,166.9 "/>
<polygon class="st4" points="616.1,164.3 608.5,164 601.8,167.4 597.7,173.8 597.3,181.4 600.8,188.2 607.2,192.3 614.8,192.6 
	621.6,189.1 625.7,182.7 626,175.2 622.5,168.4 "/>
<polygon class="st4" points="598.9,177.3 593,178.6 588.6,182.6 586.9,188.3 588.2,194.2 592.2,198.6 597.9,200.3 603.7,199 
	608.1,195 609.9,189.3 608.6,183.5 604.6,179.1 "/>
<polygon class="st4" points="612.5,162.8 605.8,161 599,162.8 594.1,167.7 592.3,174.5 594.1,181.2 599,186.1 605.7,187.9 
	612.5,186.1 617.4,181.2 619.2,174.5 617.4,167.8 "/>
<polygon class="st4" points="595.5,170.9 588.8,171.6 583.4,175.5 580.7,181.7 581.4,188.3 585.4,193.8 591.5,196.5 598.2,195.8 
	603.6,191.8 606.3,185.7 605.6,179 601.7,173.6 "/>
<polygon class="st4" points="586.8,186.1 581,184.2 575,185.4 570.5,189.5 568.5,195.3 569.8,201.2 573.8,205.8 579.6,207.7 
	585.6,206.5 590.1,202.4 592.1,196.7 590.9,190.7 "/>
<g class="st9">
	<polygon class="st7" points="425.4,175.3 418.5,174.7 412.3,177.6 408.4,183.3 407.8,190.2 410.7,196.4 416.4,200.4 423.2,200.9 
		429.5,198 433.4,192.3 434,185.5 431.1,179.2 	"/>
	<polygon class="st7" points="405.9,172 400.8,172.3 396.6,175.2 394.3,179.7 394.7,184.8 397.5,189 402,191.2 407.1,190.9 
		411.3,188.1 413.6,183.5 413.2,178.5 410.4,174.3 	"/>
	<polygon class="st7" points="387.8,169 380.5,170.6 375,175.6 372.7,182.7 374.2,190 379.2,195.5 386.3,197.9 393.6,196.3 
		399.2,191.3 401.5,184.2 399.9,176.9 394.9,171.3 	"/>
	<polygon class="st7" points="377.4,170.2 370.6,167.7 363.4,169 357.9,173.7 355.5,180.6 356.8,187.7 361.5,193.2 368.3,195.7 
		375.4,194.3 381,189.7 383.4,182.8 382.1,175.7 	"/>
	<polygon class="st7" points="357.2,182.4 352.1,182.8 347.9,185.7 345.7,190.2 346.1,195.3 348.9,199.5 353.5,201.7 358.5,201.3 
		362.7,198.5 364.9,193.9 364.6,188.9 361.7,184.7 	"/>
	<polygon class="st7" points="341.1,188.2 333.9,190.7 329,196.4 327.6,203.9 330.1,211 335.9,216 343.3,217.4 350.5,214.9 
		355.4,209.1 356.8,201.7 354.3,194.5 348.5,189.6 	"/>
</g>
<g class="st9">
	<polygon class="st7" points="597.7,175.3 590.8,174.7 584.5,177.6 580.6,183.3 580,190.2 582.9,196.4 588.6,200.4 595.5,200.9 
		601.7,198 605.7,192.3 606.3,185.5 603.3,179.2 	"/>
	<polygon class="st7" points="578.1,172 573.1,172.3 568.8,175.2 566.6,179.7 566.9,184.8 569.7,189 574.3,191.2 579.4,190.9 
		583.6,188.1 585.8,183.5 585.5,178.5 582.7,174.3 	"/>
	<polygon class="st7" points="560.1,169 552.8,170.6 547.2,175.6 544.9,182.7 546.5,190 551.4,195.5 558.5,197.9 565.9,196.3 
		571.4,191.3 573.7,184.2 572.2,176.9 567.2,171.3 	"/>
	<polygon class="st7" points="549.6,170.2 542.8,167.7 535.7,169 530.2,173.7 527.7,180.6 529,187.7 533.7,193.2 540.5,195.7 
		547.7,194.3 553.2,189.7 555.6,182.8 554.3,175.7 	"/>
	<polygon class="st7" points="529.4,182.4 524.4,182.8 520.2,185.7 518,190.2 518.3,195.3 521.2,199.5 525.7,201.7 530.8,201.3 
		535,198.5 537.2,193.9 536.8,188.9 534,184.7 	"/>
	<polygon class="st7" points="513.3,188.2 506.2,190.7 501.2,196.4 499.8,203.9 502.3,211 508.1,216 515.6,217.4 522.7,214.9 
		527.7,209.1 529.1,201.7 526.5,194.5 520.8,189.6 	"/>
</g>
<g class="st9">
	<polygon class="st4" points="391.8,165.4 385.4,164.9 379.6,167.6 376,172.8 375.4,179.2 378.1,185 383.4,188.7 389.8,189.2 
		395.6,186.5 399.2,181.3 399.8,174.9 397.1,169.1 	"/>
	<polygon class="st4" points="378.2,176.1 371.2,176.1 365.2,179.6 361.7,185.6 361.7,192.6 365.2,198.6 371.2,202.1 378.2,202.1 
		384.2,198.6 387.7,192.6 387.7,185.6 384.2,179.6 	"/>
</g>
<g class="st9">
	<polygon class="st4" points="500.2,162.3 490.9,163.1 483.2,168.4 479.3,176.8 480,186 485.3,193.7 493.7,197.7 502.9,196.9 
		510.6,191.6 514.6,183.3 513.8,174 508.5,166.3 	"/>
	<polygon class="st4" points="480.4,161.2 472.7,162.3 466.5,167.1 463.6,174.4 464.8,182.1 469.6,188.3 476.9,191.2 484.6,190.1 
		490.7,185.2 493.6,178 492.5,170.2 487.7,164.1 	"/>
	<polygon class="st4" points="466.7,162.9 457.9,162.8 450.3,167.1 445.8,174.6 445.7,183.4 449.9,191.1 457.5,195.5 466.2,195.7 
		473.9,191.4 478.4,183.8 478.5,175.1 474.2,167.4 	"/>
	<polygon class="st4" points="450.2,176.2 443.1,177.5 437.7,182.2 435.3,189 436.6,196 441.3,201.4 448,203.8 455.1,202.5 
		460.5,197.8 462.9,191.1 461.6,184 456.9,178.6 	"/>
</g>
<g class="st10">
	<polygon class="st4" points="577.2,201.5 570,202.8 564.5,207.6 562,214.5 563.4,221.7 568.2,227.3 575.1,229.7 582.3,228.3 
		587.8,223.6 590.3,216.7 588.9,209.5 584.1,203.9 	"/>
	<polygon class="st4" points="563.4,211.8 556.9,211.4 551.1,214.3 547.6,219.7 547.2,226.2 550,232 555.4,235.6 561.9,236 
		567.7,233.1 571.3,227.7 571.7,221.2 568.8,215.4 	"/>
	<polygon class="st4" points="543.5,210.8 538.9,211.6 535.3,214.6 533.7,218.9 534.5,223.5 537.5,227.1 541.9,228.7 546.5,227.8 
		550,224.9 551.6,220.5 550.8,215.9 547.8,212.4 	"/>
</g>
<g class="st10">
	<polygon class="st7" points="305.7,198.9 298.7,200.4 293.4,205.3 291.2,212.1 292.7,219.2 297.5,224.5 304.4,226.7 311.4,225.2 
		316.8,220.3 319,213.5 317.4,206.4 312.6,201.1 	"/>
</g>
<g class="st11">
	<polygon class="st7" points="542.6,109.3 536.2,107.7 529.9,109.5 525.4,114.2 523.8,120.6 525.6,126.9 530.3,131.4 536.7,133 
		543,131.2 547.5,126.5 549.1,120.1 547.3,113.8 	"/>
</g>
<g class="st11">
	<polygon class="st7" points="323.5,171.8 318.8,171 314.3,172.6 311.2,176.3 310.3,181 311.9,185.5 315.6,188.6 320.3,189.5 
		324.9,187.8 328,184.2 328.8,179.4 327.2,174.9 	"/>
	<polygon class="st7" points="334.7,164.4 328.7,163.6 323.2,165.9 319.5,170.7 318.7,176.6 321,182.1 325.7,185.8 331.7,186.6 
		337.2,184.3 340.9,179.6 341.7,173.6 339.4,168.1 	"/>
	<polygon class="st7" points="339.4,155.7 333.3,157 328.7,161.1 326.7,167 327.9,173.1 332,177.7 337.9,179.7 344,178.5 
		348.7,174.4 350.7,168.5 349.4,162.4 345.3,157.7 	"/>
</g>
<g class="st11">
	<polygon class="st4" points="646.8,149.8 642,149.1 637.5,151 634.5,154.9 633.9,159.7 635.8,164.2 639.7,167.2 644.5,167.8 
		649,165.9 651.9,162 652.5,157.2 650.7,152.7 	"/>
</g>
<g class="st11">
	<polygon class="st6" points="557.5,181.2 551.2,181.1 545.7,184.2 542.5,189.6 542.4,195.9 545.5,201.4 550.9,204.7 557.2,204.7 
		562.7,201.7 565.9,196.2 566,189.9 562.9,184.4 	"/>
	<polygon class="st6" points="544.3,179.4 537.7,180.3 532.5,184.3 530,190.5 530.8,197 534.9,202.3 541,204.8 547.6,203.9 
		552.8,199.8 555.3,193.7 554.5,187.2 550.4,181.9 	"/>
</g>
<path class="st4" d="M302.6,126.2c0-0.2,0-0.4-0.1-0.6h1.6v0.2c0,0.1,0,0.3,0,0.4v1.1h3.6c0.2,0,0.4,0,0.6-0.1v0.6
	c-0.2,0-0.4-0.1-0.6-0.1h-3.6v1.2c1.1-0.1,2.1,0.1,3.1,0.5c1.2,0.5,1.9,1.6,1.9,2.9c0,1.1-0.6,2.1-1.5,2.7c-0.9,0.5-2,0.8-3,0.7
	c-0.2,0-0.3,0-0.5,0.1l-0.1-0.5c0.2,0,0.4,0,0.6,0c0.7-0.1,1.4-0.3,2-0.8c0.6-0.6,1-1.4,0.9-2.2c0.1-1-0.5-2-1.4-2.5
	c-0.8,1.7-1.9,3.2-3.1,4.5c-0.8,0.8-1.3,1.1-1.9,1.1c-1.2,0-2-1-2-2.5c0-1.2,0.6-2.3,1.7-3c0.5-0.4,1.2-0.6,1.8-0.7v-1.4h-2.8
	c-0.2,0-0.4,0-0.6,0.1v-0.6c0.2,0,0.4,0.1,0.6,0.1h2.8L302.6,126.2z M302.5,133.1c0-0.2,0.1-0.4,0.1-0.6v-2.8
	c-1.3,0.6-2.1,1.9-2.1,3.3c0,1.1,0.3,1.8,0.8,1.8c0.5,0,1.3-0.7,2.2-1.7H302.5z M304.1,132.3c0.6-0.9,1.2-1.8,1.6-2.7
	c-0.5-0.2-1.1-0.3-1.6-0.2V132.3z"/>
<path class="st4" d="M311,127.5c0.2,0,0.5,0,0.7,0h1.9c0.4-1.2,0.6-1.9,0.7-2.2l1.6,0.5c-0.1,0.2-0.2,0.3-0.2,0.5v0.1
	c-0.2,0.5-0.3,0.8-0.4,1.1h2.7c0.2,0,0.5,0,0.7,0v0.6c-0.2,0-0.5-0.1-0.7-0.1h-3c-0.7,1.9-1.5,3.7-2.4,5.5c-0.1,0.1-0.1,0.3-0.2,0.6
	l-1.5-0.8c1-1.7,1.8-3.4,2.5-5.3h-1.7c-0.2,0-0.5,0-0.7,0.1L311,127.5z M320.6,128.9c0.2,0,0.5,0,0.7-0.1v0.6
	c-0.2,0-0.5-0.1-0.7-0.1h-1.4v3.1c0.6,0.3,1.2,0.6,1.8,0.9c0.2,0.1,0.3,0.2,0.5,0.3l-0.9,1.3l-0.3-0.4l-0.1-0.1
	c-0.3-0.3-0.6-0.6-1-0.9c0,1.4-0.8,2.1-2.6,2.1c-1.5,0-2.5-0.7-2.5-1.9c0-1.2,1-1.9,2.4-1.9c0.4,0,0.7,0,1.1,0.1v-3.1L320.6,128.9z
	 M317.7,132.7c-0.4-0.2-0.9-0.3-1.4-0.3c-0.8-0.1-1.6,0.5-1.7,1.4c0,0,0,0,0,0c0.1,0.8,0.8,1.5,1.6,1.4c0,0,0,0,0,0
	c0.7,0.1,1.3-0.4,1.4-1.2c0-0.1,0-0.2,0-0.3L317.7,132.7z"/>
<path class="st4" d="M323.1,127.5h0.1h0.4h2c0.2-1,0.4-1.7,0.4-2.1l1.6,0.3c-0.1,0.2-0.2,0.4-0.2,0.7c-0.1,0.5-0.1,0.5-0.1,0.7
	c-0.1,0.1-0.1,0.3-0.1,0.4h3.2c0.2,0,0.4,0,0.6-0.1v0.6c-0.2,0-0.4-0.1-0.6-0.1H327c-0.7,2.8-1.4,5.4-2,6.8
	c-0.1,0.2-0.1,0.4-0.2,0.6l-1.6-0.5c0.9-2.3,1.6-4.6,2.1-7h-1.8c-0.2,0-0.4,0-0.6,0.1v-0.6L323.1,127.5z M333.1,135.4h-1
	c-0.4,0-1.6,0.1-2,0.1c-1.9,0-3-0.7-3-2c0-0.7,0.4-1.4,1-1.9c0.1-0.1,0.2-0.2,0.3-0.3l0.4,0.4c-0.5,0.3-0.8,0.8-0.9,1.4
	c0,0.8,0.6,1.1,2.2,1.1c1,0,2,0,3-0.1L333.1,135.4z M328.8,129.8c-0.2,0-0.5,0-0.7,0.1v-0.6c0.2,0,0.5,0.1,0.7,0.1h3.4
	c0.2,0,0.4,0,0.6-0.1v0.5c-0.9,0.1-1.8,0.4-2.6,0.9l-0.2-0.3c0.3-0.2,0.7-0.4,1.1-0.6L328.8,129.8z"/>
<path class="st4" d="M339.9,135.1c0.5,0,1.1-0.1,1.5-0.4c1.4-0.8,2.3-2.4,2.1-4c0-0.9-0.2-1.8-0.6-2.6c-0.4-0.8-1.3-1.3-2.2-1.4
	c-0.1,4.9-1.4,7.9-3.4,7.9c-1.3,0-2.4-1.4-2.4-3.2c0-3.1,2.2-5.2,5.4-5.2c3,0,4.9,1.7,4.9,4.5s-1.6,4.3-4.8,4.7
	c-0.1,0-0.3,0-0.4,0.1L339.9,135.1L339.9,135.1z M339.2,126.9c-1,0.3-1.8,1-2.3,1.9c-0.4,0.9-0.5,1.8-0.5,2.7c0,1.5,0.4,2.7,1,2.7
	c0.9,0,1.7-3,1.8-7L339.2,126.9z"/>
<path class="st4" d="M357.5,124.9v0.4h-4v7.3H353v-7.7H357.5z"/>
<path class="st4" d="M368.1,125.8c0.3,0,0.6,0,0.9,0c0,0.3-0.1,0.6-0.1,0.9v4.6c0,0.3,0,0.6,0.1,0.9c-0.3,0-0.4,0-0.8,0H368v2.2
	c0,0.3,0.1,0.4,0.5,0.4s0.5,0,0.6-0.2c0.1-0.3,0.1-0.6,0.1-0.9V133l0.5,0.1v0.4v0.3c0,0.6,0,0.7,0,0.9c0,0.7-0.3,0.9-1.6,0.9
	s-1.4-0.2-1.4-0.9V132h-0.4c0.1,1.6-0.8,3.1-2.3,3.8l-0.3,0.2l-0.3-0.4l0.4-0.2l0,0l0,0c-0.2,0-0.4,0-0.6,0h-2.9c-0.3,0-0.6,0-0.9,0
	c0.1-0.3,0.1-0.6,0.1-0.9v-2.8c-0.1,0.1-0.2,0.2-0.5,0.4l-0.3,0.2l-0.3-0.3l0.3-0.2c0.8-0.9,1.4-2,1.8-3.2h-1
	c-0.2,0.2-0.2,0.3-0.4,0.6l-0.2,0.3l-0.4-0.2l0.2-0.3c0.4-1.1,0.7-2.3,0.8-3.5v-0.4l1.7,0.3l-0.2,0.4c-0.1,0.2-0.1,0.3-0.2,0.5h2.4
	c0.2,0,0.5,0,0.7,0v0.6c-0.2,0-0.5,0-0.7,0h-0.6v0.1c-0.1,0.4-0.2,0.9-0.3,1.3h1.2c0.2,0,0.5,0,0.7,0v0.6c-0.2,0-0.5,0-0.7,0h-1.4
	c-0.2,0.5-0.6,1-0.9,1.5h1c0.1-0.3,0.2-0.7,0.2-1.1v-0.4l1.4,0.5l-0.4,0.4c-0.2,0.2-0.5,0.5-0.7,0.6h0.7c0.2,0,0.5,0,0.7-0.1v0.6
	c-0.2,0-0.5-0.1-0.7-0.1h-0.2v1h0.1c0.2,0,0.5,0,0.7-0.1v0.6c-0.2,0-0.5,0-0.7,0h-0.1v1.1h0.1c0.2,0,0.5,0,0.7-0.1v0.6
	c-0.2,0-0.5,0-0.7,0h-0.1v0.9h0.3c0.2,0,0.5,0,0.7-0.1v0.5c0.8-0.9,1.2-2.1,1.1-3.3c-0.3,0-0.5,0-0.8,0c0-0.3,0.1-0.6,0.1-0.9v-4.6
	c0-0.3,0-0.6-0.1-0.9c0.3,0,0.6,0,0.9,0L368.1,125.8z M360.5,126.8c-0.2,0.5-0.5,1-0.8,1.4h0.8c0.2-0.5,0.3-0.9,0.4-1.4H360.5z
	 M360.9,130.6v1h0.7v-1H360.9z M360.9,133.3h0.7v-1.1h-0.7V133.3z M360.9,134.9h0.7v-1.2h-0.7V134.9z M367.5,126.2h-1.9v1.4h1.9
	V126.2z M365.6,128.1v1.4h1.9v-1.4H365.6z M365.6,130v1.5h1.9V130H365.6z"/>
<path class="st4" d="M371.1,127.5h0.1h0.4h2c0.2-1,0.4-1.7,0.4-2.1l1.6,0.3c-0.1,0.2-0.2,0.4-0.2,0.7c-0.1,0.5-0.1,0.5-0.1,0.7
	c-0.1,0.1-0.1,0.3-0.1,0.4h3.2c0.2,0,0.4,0,0.6-0.1v0.6c-0.2,0-0.4-0.1-0.6-0.1H375c-0.7,2.8-1.4,5.4-2,6.8
	c-0.1,0.2-0.1,0.4-0.2,0.6l-1.6-0.5c0.9-2.3,1.6-4.6,2.1-7h-1.8c-0.2,0-0.4,0-0.6,0.1v-0.6L371.1,127.5z M381.1,135.4h-1
	c-0.4,0-1.6,0.1-2,0.1c-2,0-3-0.7-3-2c0-0.7,0.4-1.4,1-1.9c0.1-0.1,0.2-0.2,0.3-0.3l0.4,0.4c-0.5,0.3-0.8,0.8-0.9,1.4
	c0,0.8,0.6,1.1,2.2,1.1c1,0,2,0,3-0.1L381.1,135.4z M376.8,129.8c-0.2,0-0.5,0-0.7,0.1v-0.6c0.2,0,0.5,0.1,0.7,0.1h3.4
	c0.2,0,0.4,0,0.6-0.1v0.5c-0.9,0.1-1.8,0.4-2.6,0.9l-0.2-0.3c0.3-0.2,0.7-0.4,1.1-0.6L376.8,129.8z"/>
<path class="st4" d="M388.4,132.1c-0.1,0.1-0.2,0.3-0.2,0.5c-0.2,0.7-0.6,1.4-1,2.1c-0.3,0.4-0.7,0.6-1.2,0.7
	c-0.7,0-1.4-0.6-1.8-1.6c-0.6-1.4-0.8-3-0.8-5.9v-0.3c0-0.2,0-0.5,0-0.7l1.7,0.1c0,0.3-0.1,0.6-0.1,0.8v0.7
	c-0.1,1.4,0.1,2.9,0.5,4.2c0.3,0.8,0.7,1.2,1.1,1.2c0.4,0,0.6-0.2,1-0.9c0.2-0.4,0.4-0.8,0.5-1.2L388.4,132.1z M391.6,133.5
	c-0.1-2.1-1.2-4.8-2.4-5.7l0.6-0.5l0.1,0.1c0.1,0,0.1,0.1,0.2,0.2c1.6,1.3,2.7,3,3.2,4.9c0,0.1,0,0.1,0.1,0.4v0.1L391.6,133.5z"/>
<path class="st4" d="M399.1,128.5v7.7h-4.5v-0.4h4v-7.3L399.1,128.5z"/>
<path class="st4" d="M407.1,128.4c0.2,0,0.3,0.1,0.5,0.1h1.9c0.3-0.9,0.6-1.9,0.7-2.8l1.6,0.4c-0.1,0.2-0.2,0.4-0.2,0.6
	c-0.2,0.8-0.4,1.4-0.6,1.9h1.4c1.5,0,2.2,0.7,2.2,2.3c0,1.4-0.3,2.9-1,4.1c-0.2,0.6-0.8,0.9-1.4,0.9c-0.8-0.1-1.6-0.5-2.1-1.2
	c-0.1-0.1-0.2-0.2-0.3-0.3l0.3-0.4c0.3,0.5,0.8,0.8,1.4,0.9c0.3,0,0.5-0.2,0.7-0.6c0.6-1.2,0.8-2.5,0.9-3.8c0-1.1-0.3-1.5-1.2-1.5
	h-1c-0.8,2.3-1.5,4.3-2.2,6c-0.1,0.2-0.1,0.3-0.2,0.5l-1.5-0.7c0.2-0.2,0.3-0.5,0.4-0.8c0.7-1.7,1.3-3.2,1.9-5h-1.7
	c-0.2,0-0.4,0-0.6,0.1L407.1,128.4L407.1,128.4z M416.2,132.4c-0.1-1.7-0.7-3.4-1.6-4.8c-0.1-0.1-0.2-0.2-0.3-0.3l0.6-0.4
	c0.1,0.1,0.2,0.2,0.3,0.3c1.1,1.1,1.9,2.5,2.5,4c0.1,0.2,0.1,0.3,0.2,0.5L416.2,132.4z M415.8,125.1v1.5h-0.7v-1.5H415.8z
	 M417.2,125.1v1.5h-0.7v-1.5H417.2z"/>
<path class="st4" d="M428,135.3c-0.6,0-0.6,0-1.2,0.1c-0.4,0-1.2,0.1-2,0.1c-1.1,0.1-2.2-0.1-3.3-0.4c-0.9-0.3-1.6-1.3-1.5-2.3
	c0-0.9,0.5-1.8,1.2-2.4c0.1-0.1,0.2-0.2,0.3-0.3l0.4,0.4c-0.7,0.4-1.1,1.1-1.1,1.9c0,0.6,0.4,1.2,1,1.3c0.9,0.2,1.7,0.3,2.6,0.2
	c1.2,0,2.4-0.1,3.5-0.2L428,135.3z M421.5,127.2c-0.2,0-0.5,0-0.7,0v-0.6c0.2,0,0.5,0,0.7,0h4.9c0.3,0,0.6,0,0.8-0.1v0.6
	c-1.4,0.2-2.6,0.8-3.7,1.6l-0.3-0.3c0.6-0.5,1.3-1,2-1.4L421.5,127.2z"/>
<path class="st4" d="M440,135.3c-0.6,0-0.6,0-1.2,0.1c-0.4,0-1.2,0.1-2,0.1c-1.1,0.1-2.2-0.1-3.3-0.4c-0.9-0.3-1.6-1.3-1.5-2.3
	c0-0.9,0.5-1.8,1.2-2.4c0.1-0.1,0.2-0.2,0.3-0.3l0.4,0.4c-0.7,0.4-1.1,1.1-1.1,1.9c0,0.6,0.4,1.2,1,1.3c0.9,0.2,1.7,0.3,2.6,0.2
	c1.2,0,2.4-0.1,3.5-0.2L440,135.3z M433.5,127.2c-0.2,0-0.5,0-0.7,0v-0.6c0.2,0,0.5,0,0.7,0h4.9c0.3,0,0.6,0,0.8-0.1v0.6
	c-1.4,0.2-2.6,0.8-3.7,1.6l-0.3-0.3c0.6-0.5,1.3-1,2-1.4L433.5,127.2z"/>
<path class="st4" d="M443.8,135.2c0-0.1,0-0.1,0-0.2v-0.3c-0.1-1-0.1-2.1-0.1-2.6c0-1,0.2-3.5,0.3-5.4c0-0.2,0-0.3,0-0.3v-0.1
	l1.6,0.2c-0.3,1.8-0.5,3.6-0.4,5.4c0,0.7,0.1,2.1,0.1,2.6c0,0,0,0.1,0,0.1l0,0c0,0.2,0,0.3,0.1,0.5L443.8,135.2z M452.7,135
	c-0.3,0-0.4,0-0.9,0s-1.1,0.1-1.6,0.1c-0.9,0.1-1.9-0.1-2.7-0.5c-0.8-0.4-1.2-1.2-1.2-2.1c0-0.8,0.4-1.5,0.9-2
	c0.1-0.1,0.2-0.2,0.3-0.4l0.4,0.3c-0.5,0.4-0.8,1.1-0.8,1.7c0,1,0.9,1.4,3,1.4c0.6,0,1.1,0,1.7-0.1c0.3,0,0.7-0.1,1-0.1L452.7,135z
	 M447.6,127.6c-0.2,0-0.4,0-0.6,0.1v-0.6c0.2,0,0.4,0.1,0.6,0.1h4c0.3,0,0.6,0,0.8-0.1v0.6c-1.2,0.3-2.3,0.8-3.3,1.6l-0.3-0.3
	c0.6-0.5,1.2-0.9,1.8-1.3H447.6z"/>
<path class="st4" d="M458.6,126.2c0-0.2,0-0.4-0.1-0.6h1.6v0.2c0,0.1,0,0.3,0,0.4v1.1h3.6c0.2,0,0.4,0,0.6-0.1v0.6
	c-0.2,0-0.4-0.1-0.6-0.1h-3.6v1.2c1.1-0.1,2.1,0.1,3.1,0.5c1.2,0.5,1.9,1.6,1.9,2.9c0,1.1-0.6,2.1-1.5,2.7c-0.9,0.5-2,0.8-3,0.7
	c-0.2,0-0.3,0-0.5,0.1l-0.1-0.5c0.2,0,0.4,0,0.6,0c0.7,0,1.4-0.3,2-0.8c0.6-0.6,1-1.4,0.9-2.2c0.1-1-0.5-2-1.4-2.5
	c-0.8,1.7-1.9,3.2-3.1,4.5c-0.8,0.8-1.3,1.1-1.9,1.1c-1.2,0-2-1-2-2.5c0-1.2,0.6-2.3,1.7-3c0.5-0.4,1.2-0.6,1.8-0.7v-1.4h-2.8
	c-0.2,0-0.4,0-0.6,0.1v-0.6c0.2,0,0.4,0.1,0.6,0.1h2.8L458.6,126.2z M458.5,133.1c0-0.2,0.1-0.4,0.1-0.6v-2.8
	c-1.3,0.6-2.1,1.9-2,3.3c0,1.1,0.3,1.8,0.8,1.8s1.3-0.7,2.2-1.7H458.5z M460.1,132.3c0.6-0.9,1.2-1.8,1.6-2.7
	c-0.5-0.2-1.1-0.3-1.6-0.2V132.3z"/>
<path class="st4" d="M468.9,126.7c-0.2,0-0.4,0-0.6,0v-0.6h0.2c0.1,0,0.3,0,0.4,0h6.4v0.6l-4.1,3c0.6-0.2,1.2-0.2,1.8-0.2
	c2.3,0,3.8,1.1,3.8,2.8c0,2.1-1.5,3.2-4.5,3.2c-1.7,0-2.9-0.8-2.9-1.9c0-0.8,0.7-1.4,1.4-1.4c0.1,0,0.1,0,0.2,0
	c1.3,0,2.3,0.7,3.1,2.2c0.7-0.5,1-1.3,1-2.2c0-1.2-1.1-2.2-2.3-2.2c-0.1,0-0.2,0-0.3,0c-0.8,0-1.7,0.2-2.4,0.7
	c-0.6,0.4-1.2,0.9-1.7,1.4l-0.2,0.1l-0.2,0.2l-0.9-1.2c0.1-0.1,0.3-0.1,0.4-0.2l5.4-4.2H468.9z M470.8,132.9c-0.6,0-1,0.3-1,0.8
	c0,0.9,1,1.5,2.3,1.5c0.2,0,0.4,0,0.6,0h0.1C472.4,133.6,471.7,132.9,470.8,132.9L470.8,132.9z"/>
<path class="st4" d="M482.6,134.2c0,0.9-0.7,1.7-1.7,1.7c-0.9,0-1.7-0.7-1.7-1.7c0-0.9,0.7-1.7,1.7-1.7c0,0,0,0,0,0
	C481.9,132.5,482.6,133.2,482.6,134.2z M479.7,134.2c0.1,0.7,0.7,1.2,1.3,1.1c0.6-0.1,1.1-0.5,1.1-1.1c0.1-0.7-0.4-1.3-1.1-1.3
	c-0.7-0.1-1.3,0.4-1.3,1.1C479.7,134,479.7,134.1,479.7,134.2z"/>
<polygon class="st2" points="265.4,102.9 263.8,111.6 210.2,99 210.7,96.1 "/>
</svg>
