<?xml version="1.0" encoding="utf-8"?>
<!-- Generator: Adobe Illustrator 24.3.0, SVG Export Plug-In . SVG Version: 6.00 Build 0)  -->
<svg version="1.1" id="レイヤー_1" xmlns="http://www.w3.org/2000/svg" xmlns:xlink="http://www.w3.org/1999/xlink" x="0px"
	 y="0px" viewBox="0 0 457.89 204.68" style="enable-background:new 0 0 457.89 204.68;" xml:space="preserve">
<style type="text/css">
	.st0{fill:#FFFFFF;}
	.st1{opacity:0.7;}
	.st2{fill:none;stroke:#CCCCCC;stroke-width:1.2612;stroke-miterlimit:10;}
	.st3{fill:#35A0D2;}
	.st4{fill:#35A0D2;stroke:#35A0D2;stroke-width:0.6306;stroke-miterlimit:10;}
	.st5{font-family:'Bungee-Hairline';}
	.st6{font-size:9.7542px;}
	.st7{fill:#CCCCCC;stroke:#CCCCCC;stroke-width:1.2836;stroke-miterlimit:10;}
	.st8{fill:#CCCCCC;stroke:#CCCCCC;stroke-width:1.5646;stroke-miterlimit:10;}
	.st9{fill:#CCCCCC;stroke:#CCCCCC;stroke-width:2.5224;stroke-miterlimit:10;}
	.st10{font-size:10.8734px;}
	.st11{fill:none;stroke:#CCCCCC;stroke-width:0.6306;stroke-miterlimit:10;}
</style>
<path class="st0" d="M34.82,0C23.22,6.88,11.61,14.79,0,21.86v182.82h457.89V0H34.82z"/>
<g class="st1">
	<line class="st2" x1="335.26" y1="175.8" x2="335.26" y2="189.23"/>
	<line class="st2" x1="335.26" y1="154.61" x2="335.26" y2="168.04"/>
	<line class="st2" x1="335.26" y1="133.42" x2="335.26" y2="146.86"/>
	<line class="st2" x1="335.26" y1="112.23" x2="335.26" y2="125.67"/>
	<line class="st2" x1="335.26" y1="91.04" x2="335.26" y2="104.48"/>
	<line class="st2" x1="335.26" y1="69.85" x2="335.26" y2="83.29"/>
	<line class="st2" x1="335.26" y1="48.67" x2="335.26" y2="62.1"/>
	<line class="st2" x1="335.26" y1="27.48" x2="335.26" y2="40.91"/>
</g>
<rect x="0" y="193.6" class="st3" width="457.89" height="11.08"/>
<g>
	<g>
		<g>
			<g>
				<g>
					<g>
						<path class="st3" d="M373.47,110.78c-0.11,0.01,0.01,0.25,0.01,0.3C373.64,110.97,373.45,110.72,373.47,110.78z"/>
						<polygon class="st3" points="374.93,109.65 374.94,109.76 375.1,109.42 						"/>
						<path class="st3" d="M376.48,109.12c-0.29-0.38-0.54,0.26-0.87,0.2l-0.08-0.08l-0.01,0.39
							C375.85,109.46,376.21,109.08,376.48,109.12z"/>
						<path class="st3" d="M377.63,109.76c-0.11-0.15,0.13-0.2-0.21,0.01c0.02,0.01,0.03,0.02,0.05,0.03
							C377.5,109.79,377.54,109.77,377.63,109.76z"/>
						<path class="st3" d="M377.46,109.8C377.31,109.87,377.62,109.91,377.46,109.8L377.46,109.8z"/>
						<path class="st3" d="M378.18,109.45l-0.16,0.22c0.08,0.08,0.28,0.04,0.23,0.13C378.44,109.65,378.37,109.57,378.18,109.45z"/>
						<path class="st3" d="M378.28,109.07l-0.09,0.1C378.23,109.21,378.26,109.21,378.28,109.07z"/>
						<path class="st3" d="M378,109.38l0.19-0.21c-0.05-0.06-0.11-0.19-0.09,0.08C378.08,109.12,378.07,109.26,378,109.38z"/>
						<path class="st3" d="M377.85,109.36c-0.15-0.05-0.33-0.06-0.16-0.28C377.29,109.29,377.46,109.56,377.85,109.36z"/>
						<path class="st3" d="M376.41,108.65l-0.2-0.07l-0.09,0.19C376.16,108.68,376.47,108.78,376.41,108.65z"/>
						<path class="st3" d="M379.6,109.21c-0.02-0.1-0.15-0.22-0.21-0.33l-0.12,0.16C379.37,109.08,379.54,109.08,379.6,109.21z"/>
						<path class="st3" d="M379.39,108.89l0.18-0.24C379.35,108.7,379.34,108.79,379.39,108.89z"/>
						<polygon class="st3" points="378.16,108.58 377.88,109.04 378.23,108.55 						"/>
						<polygon class="st3" points="380.51,108.91 380.45,109.17 380.58,108.77 						"/>
						<path class="st3" d="M381.1,108.67c-0.04,0.21,0.24,0.25,0.17,0.39c0.15-0.09,0.24-0.28,0.32-0.46
							C381.48,108.72,381.33,108.75,381.1,108.67z"/>
						<path class="st3" d="M381.73,108.33c-0.05,0.06-0.1,0.16-0.14,0.27C381.64,108.54,381.69,108.45,381.73,108.33z"/>
						<path class="st3" d="M379.99,108.56c0.04,0.05,0.12,0.18,0.28,0.19l-0.18-0.22C380.06,108.54,380.02,108.55,379.99,108.56z"/>
						<path class="st3" d="M380.08,108.52L380.08,108.52c0.11-0.02,0.18-0.04,0.21-0.05C380.27,108.48,380.2,108.49,380.08,108.52z"
							/>
						<path class="st3" d="M379.97,108.56c0.01,0,0.02,0,0.02-0.01C379.97,108.53,379.97,108.53,379.97,108.56z"/>
						<path class="st3" d="M378.86,108.6c0.09-0.19,0.33-0.44-0.03-0.56C378.79,108.25,379,108.32,378.86,108.6z"/>
						<path class="st3" d="M379.74,108.28l-0.27,0.03c0.03,0.07,0.11,0.15,0.06,0.24L379.74,108.28z"/>
						<polygon class="st3" points="379.84,108.16 379.74,108.28 379.84,108.27 						"/>
						<path class="st3" d="M381.22,108.24c0.07-0.15,0.19-0.2,0.32-0.26c-0.16,0-0.32,0.02-0.46,0.07
							C381.08,108.14,381.07,108.3,381.22,108.24z"/>
						<path class="st3" d="M380.66,108.35c0.01-0.01,0.01-0.01,0.02-0.02C380.65,108.32,380.64,108.31,380.66,108.35z"/>
						<path class="st3" d="M382.86,107.53c-0.01-0.01-0.02-0.03-0.04-0.04c0,0.02,0.01,0.03,0.01,0.05L382.86,107.53z"/>
						<path class="st3" d="M381.03,108.01c-0.13-0.01-0.17,0.07-0.2,0.17c0.07-0.05,0.15-0.1,0.24-0.13
							C381.07,108.01,381.06,107.99,381.03,108.01z"/>
						<path class="st3" d="M382.06,108.09c-0.07-0.03-0.15-0.06-0.24-0.08C381.91,108.07,382.06,108.16,382.06,108.09z"/>
						<path class="st3" d="M380.74,108.39c0,0.01-0.01,0.01-0.01,0.02C380.78,108.45,380.77,108.42,380.74,108.39z"/>
						<path class="st3" d="M380.74,108.39c0.04-0.06,0.07-0.13,0.09-0.21c-0.06,0.04-0.11,0.09-0.15,0.15
							C380.7,108.35,380.72,108.37,380.74,108.39z"/>
						<path class="st3" d="M382.7,105.75c0.06,0.24-0.15,0.56-0.48,0.39c-0.18,0.26,0.24,0.98,0.6,1.35
							c-0.03-0.11-0.06-0.2,0.14-0.43c-0.13-0.1-0.66-0.11-0.52-0.4c0.29-0.23,0.3-0.01,0.5,0.06c-0.24-0.25,0.27-0.57,0.05-0.98
							l-0.24,0.25C382.73,105.93,382.8,105.79,382.7,105.75z"/>
						<path class="st3" d="M382.34,107.63l-0.09,0.06c0.13,0,0.25,0.07,0.46,0.2c0.13-0.17,0.14-0.27,0.12-0.36l-0.52,0.14
							L382.34,107.63z"/>
						<path class="st3" d="M381.79,107.85c-0.01-0.28,0.2-0.48-0.05-0.7c-0.29,0.12-0.14,0.29-0.28,0.46
							c0.46-0.23-0.09,0.19,0.31,0.22c-0.08,0.08-0.16,0.12-0.24,0.16c0.1,0,0.2,0.01,0.29,0.03c-0.01,0-0.01-0.01-0.02-0.01l0,0
							c0,0,0,0,0,0c-0.03-0.03-0.05-0.04-0.02-0.03c0,0,0.01-0.01,0.01-0.01C381.79,107.92,381.79,107.88,381.79,107.85
							c0.16,0.01,0.05,0.06,0.01,0.11c0,0.01,0,0.03,0.01,0.04c0,0,0,0,0,0l0.44-0.31C382.13,107.69,382,107.74,381.79,107.85z"/>
						<path class="st3" d="M378.9,107.4c0.02,0.02,0.03,0.04,0.04,0.05C378.96,107.41,378.96,107.38,378.9,107.4z"/>
						<path class="st3" d="M379.16,107.48c-0.02,0.05-0.02,0.16-0.14,0.17c-0.13-0.04-0.04-0.12-0.08-0.21
							c-0.05,0.09-0.18,0.27,0.08,0.32l0.02-0.05c0.23,0.02,0.59,0.26,0.57,0.3C379.47,107.81,379.36,107.67,379.16,107.48z"/>
						<path class="st3" d="M380.46,107.6l0.36-0.26l-0.28-0.15l0.06,0.13C380.35,107.34,380.46,107.48,380.46,107.6z"/>
						<polygon class="st3" points="382.95,107.64 382.99,107.93 383.09,107.47 						"/>
						<polygon class="st3" points="383.46,107.43 383.52,107.67 383.61,107.48 						"/>
						<path class="st3" d="M412.16,94.33l0.1-0.11C412.21,94.26,412.18,94.29,412.16,94.33z"/>
						<path class="st3" d="M411.29,94.61l0.02,0.12C411.33,94.65,411.33,94.6,411.29,94.61z"/>
						<path class="st3" d="M396.38,102.97c0.25,0.16,0.56,0.44,0.45,0.18l-0.14-0.24C396.58,103,396.48,103,396.38,102.97z"/>
						<path class="st3" d="M404.7,98.4c-0.03-0.02-0.05-0.04-0.08-0.06c-0.01,0.1-0.02,0.2-0.03,0.29
							C404.62,98.55,404.66,98.48,404.7,98.4z"/>
						<path class="st3" d="M404.46,97.28l0.29,0.09C404.67,97.33,404.58,97.3,404.46,97.28z"/>
						<path class="st3" d="M416.77,92.44l0.05-0.31C416.6,92.21,416.74,92.31,416.77,92.44z"/>
						<path class="st3" d="M388.82,105.49c0.18,0.05,0.32,0.05,0.43,0.03C389.02,105.43,388.79,105.25,388.82,105.49z"/>
						<path class="st3" d="M412.76,97.19c0.06-0.07,0.07-0.14,0.05-0.19C412.75,97.07,412.72,97.13,412.76,97.19z"/>
						<path class="st3" d="M389.68,105.37c-0.04-0.02-0.07-0.02-0.1-0.03c-0.09,0.08-0.19,0.15-0.33,0.18
							C389.42,105.58,389.59,105.59,389.68,105.37z"/>
						<path class="st3" d="M433.91,86.81c0.02,0.01,0.03,0.01,0.05,0.02C433.95,86.79,433.93,86.8,433.91,86.81z"/>
						<path class="st3" d="M439.77,87.72c-0.04,0.03-0.12,0.06-0.2,0.09C439.62,87.81,439.68,87.79,439.77,87.72z"/>
						<path class="st3" d="M385.62,106.81C385.51,106.87,385.61,106.85,385.62,106.81L385.62,106.81z"/>
						<path class="st3" d="M384.73,105.98c0.01-0.04,0.02-0.08,0-0.14C384.74,105.9,384.74,105.95,384.73,105.98z"/>
						<path class="st3" d="M390.24,103.37c0,0,0.01,0,0.01,0C390.2,103.33,390.21,103.34,390.24,103.37z"/>
						<path class="st3" d="M385.41,106.75c0.05,0.02,0.11,0.03,0.17,0.03C385.55,106.77,385.5,106.76,385.41,106.75z"/>
						<path class="st3" d="M385.48,106.87c-0.04,0-0.07,0.01-0.11,0.01C385.37,106.93,385.39,106.95,385.48,106.87z"/>
						<path class="st3" d="M385.77,106.75c-0.06,0.03-0.13,0.03-0.19,0.04c0.03,0.01,0.04,0.02,0.04,0.03
							C385.65,106.8,385.7,106.78,385.77,106.75z"/>
						<path class="st3" d="M425,90.64c0.01,0.01,0.02,0.01,0.03,0.02C425.11,90.51,425.07,90.54,425,90.64z"/>
						<path class="st3" d="M398.36,99.29c0,0,0,0.01-0.01,0.02c0.01,0,0.01,0,0.02,0L398.36,99.29z"/>
						<path class="st3" d="M398.7,98.96c-0.06,0.38-0.17,0.37-0.32,0.35l0.39,0.7L398.7,98.96z"/>
						<path class="st3" d="M414.2,93.55l-0.36-0.14c0.21-0.5,0.5-0.45,0.12-0.69c0.24,0.82-1.07,0.46-0.83,1.28l-0.24-0.11
							c0.06-0.01,0.05-0.06,0.1-0.07c-0.49-0.26-0.07,0.68-0.57,0.72c-0.18-0.01-0.34-0.09-0.26-0.22l-0.29,0.32
							c-0.11,0.02-0.13-0.13-0.02-0.15l-0.53,0.25l0-0.03c-0.04,0.15-0.15,0.41-0.2,0.52c-0.18-0.07,0.04-0.11-0.03-0.2l-0.24,0.3
							c-0.2-0.17-0.01-0.46,0.21-0.5c-0.56-0.71-0.18,0.29-0.96,0.03l0.25-0.2c-0.34-0.4-0.51-0.15-0.93-0.33
							c0.13,0.12,0.9,0.5,0.64,0.81c-0.11-0.03-0.25-0.02-0.37,0.21c-0.1-0.29-0.25-0.16-0.46-0.07l-0.12-0.39
							c-0.2,0.19-0.11,0.38-0.19,0.6c-0.28,0.05-0.43-0.22-0.58-0.45c-0.44,0.08,0.45,0.37-0.02,0.62c-0.4-0.03-0.59,0.21-0.93,0.59
							c-0.29-0.05-0.04-0.25-0.16-0.33l-0.11,0.38c-0.06,0.01-0.07-0.09-0.08-0.14c-0.14,0.18,0.12,0.39-0.14,0.59
							c0.07,0.45-0.8-0.41-0.99,0.19c-0.12-0.08-0.04-0.25-0.12-0.39c-0.38,0.48-0.34,0.37-0.6,0.93l-0.43-0.13
							c0.35,0.2,0.14,0.65-0.04,1.02c0.14,0.11,0.25,0.2,0.32,0.24L404.65,99c-0.08-0.04-0.08-0.19-0.06-0.38
							c-0.02,0.04-0.04,0.08-0.05,0.12c-0.21-0.09-0.2-0.33-0.16-0.59c0.08,0.06,0.16,0.12,0.24,0.18c0.03-0.27,0.05-0.56-0.05-0.78
							c-0.01,0.05-0.06,0.11-0.11,0.15c0.01-0.07,0.01-0.14-0.02-0.17c-0.03-0.03-0.05,0.07-0.09,0.19l-0.25-0.39l0.03,0.18
							l-0.68-0.07c-0.27,0.57-0.42,1.33-1.03,1.73c0.06-0.37-0.14-0.52-0.26-0.89c0.32,0.33,0.46-0.34,0.83-0.38
							c-0.19,0.02-0.22-0.17-0.19-0.25l-0.49,0.57c-0.09-0.31-0.21-0.18-0.41-0.25c0.33,0.56-0.32,0.56-0.51,0.82
							c-0.08-0.2-0.09-0.42,0.23-0.48c-0.49-0.33-0.2,0.85-0.66,0.58c0.07-0.03,0.12-0.01,0.12-0.13c-0.11,0.24-0.59,0.24-0.55,0.03
							l0.07-0.03c-0.52,0.1-1.51,0.51-1.41,1.05c-0.03-0.06-0.14-0.63-0.15-0.75l-0.3,2.01c-0.07-0.46-0.73-1.4-0.4-1.79
							c-0.14-0.02-0.31-0.04-0.51,0.2c0.1,0.03,0.42,0.56,0.32,0.64c-0.47-0.38-0.3-0.19-0.81-0.47c0.15,0.05,0.25,0.78,0.05,0.82
							c-0.01-0.11-0.25-0.67-0.2-0.76l-0.24,0.83c0.08-0.16-0.17-0.58-0.35-0.73c0.09,0.11-0.41,0.13-0.52,0.24l0.25,0.09
							c-0.57,0.08-0.21,1.12-0.75,1.27c0.02-0.16-0.13-0.91-0.43-0.9c-0.01,0.39,0.02,1.84-0.36,2.27l-0.16-0.17l-0.28,0.35
							c0.05-0.59,0.31-1.9,0.51-2.44c-0.25-0.09-0.14-0.21-0.43-0.09c-0.17-0.15,0.07-0.34,0.15-0.38l-0.74,0.12
							c0.17,0.39-0.4,0.59-0.26,0.91l0.62-0.68c0.17,0.39-0.05,1.29-0.57,1.39c-0.18-0.12-0.15-0.75-0.21-0.88
							c-0.02,0.16-0.38,0.42-0.46,0.34l0.14-0.29c-0.33-0.06-0.27,0.69-0.73,0.42c-0.12,0.01-0.52-0.4-0.46-0.16
							c0.34,0.39,0.86,1.8,0.86,2.18c-0.05-0.02-0.75-0.23-0.96-0.41c-0.31-0.29-0.01-0.95-0.28-1.21c0.03,0.11-0.03,0.28-0.06,0.34
							c-0.15-0.05-0.07-0.36-0.31-0.22c0.1,0.42-0.54,0.15-0.01,0.39c-0.22,0.2-0.3,0.01-0.59,0.13c0.19,0.23,0.04,0.99-0.18,1.19
							c-0.02-0.11-0.12-0.22-0.17-0.28c-0.54,0.14-0.88,0.05-1.37,0.22c-0.08-0.08-0.36-0.12-0.31-0.33
							c-0.05,0.1-0.06,0.26-0.21,0.32c-0.41-0.25,0.32-0.17-0.05-0.52c0.06,0.24-0.28,0.46-0.44,0.68c0.19,0.34,0.52-0.1,0.68-0.32
							c0.17,0.5-0.02,1.16-0.45,1.57c-0.36,0.26-0.29-0.27-0.33-0.17c-0.79,0.17-0.35,1.1-1.1,0.95c-0.36-0.23-0.23-0.63-0.36-0.85
							c0.29-0.23,0.58,0.03,0.8-0.06l-0.33-0.06c0.07-0.14,0.26-0.3,0.41-0.25c-0.31-0.22-1.31,0.39-1.98,0.32
							c-0.07,0.14-0.21,0.32-0.08,0.42l0.17-0.11c0.26,0.2-0.23,0.48,0.05,0.52c-0.19,0.27-0.37,0.65-0.77,0.62l-0.19-0.34
							c0.04,0.1,0.3,0.14,0.36-0.01c-0.09,0.21-0.71-0.31-0.7,0.22l0.33,0.17c-0.19,0.27-0.36,0.76-0.71,0.76
							c0.27,0.31,0.06-0.07,0.42,0.28c-0.37-0.46,0.8-0.25,0.31-0.7c0.39,0.41,0.46,0.07,0.9,0.39c-0.05-0.12-0.18-0.2,0.1-0.22
							c0-0.04,0.01-0.09,0.02-0.13c0.01,0,0.01,0,0.02,0c-0.01,0-0.01-0.01-0.02-0.01c0.01-0.02,0-0.03-0.01,0
							c-0.08-0.03-0.15-0.08-0.2-0.14c0.03-0.32,0.45-0.46,0.54-0.65c0.17,0-0.02,0.16,0.11,0.26l0.14-0.29
							c0.11,0.26,0.56,0.3,0.25,0.59l0.33-0.1c0.24,0.08,0.53,0.05,0.66-0.12c0.17,0,0.29-0.43,0.23-0.17l0.46-0.34l0.03,0.07
							c0.52-0.14,0.89-0.8,1.64-0.52c0.15-0.13,0.3-0.27,0.61-0.29l0.14,0.21c0.19-0.16,0.74,0.01,0.75-0.27
							c0.45,0.54,1.11-0.23,1.54-0.25l-0.09-0.31c0.27-0.07,0.5-0.25,0.79-0.48l-0.11-0.26c0.21-0.32,0.8-0.06,1.24-0.24
							c0,0.11-0.12,0.13-0.22,0.09c0.75,0.42,0.99-0.83,1.62-0.56c0.09-0.14,0.19-0.14,0.3-0.1c-0.01,0-0.02,0.01-0.03,0.02
							c0.01,0,0.03-0.01,0.05-0.01c0.07,0.03,0.14,0.06,0.22,0.08c-0.07-0.05-0.14-0.08-0.19-0.09c0.09-0.04,0.22-0.12,0.34-0.23
							l0.16,0.27c0.01-0.01,0.02-0.01,0.03-0.02c0.17,0.06,0.06-0.17-0.08-0.37c0.05-0.07,0.1-0.15,0.13-0.24
							c0.27,0.43,0.31-0.28,0.63,0.16c0.01-0.27,0.64-0.42,0.54-0.95c0.03,0.06,0.08,0.08,0.01,0.11c0.18,0,0.35,0.01,0.44-0.18
							l0.19,0.34l0.17-0.61c0.28,0.15,0.41,0.25,0.3,0.6c0.35-0.6,0.35-0.3,0.62-0.87l0.06,0.24c0.15-0.06,0.28-0.46,0.44-0.3
							c0.49,0.33,1.69-0.51,2.69-0.39c-0.41-0.64,0.51,0.17,0.36-0.38c0.11,0.15,0.26,0.2,0.17,0.39c0.39-0.31,0.75,0.03,0.9-0.52
							c0.11,0.15-0.01,0.27,0.07,0.36c0.02-0.05,0.09-0.19,0.17-0.11c0.08,0.08-0.02,0.16-0.06,0.26c0.44-0.18,0.31-0.7,0.18-1.19
							c0.31,0.15,0.41,0.08,0.47-0.29c0.13,0.13,0.32,0.25,0.06,0.4c0.17-0.03,1.04-0.1,0.92-0.49c0.08,0.08,0.23-0.05,0.26-0.11
							c0.36-0.1,0.4-0.07,0.74-0.23l-0.12-0.03c-0.02-0.51,0.25-0.2,0.51-0.35l0.01,0.05c0.75,0.11,0.22-0.25,0.98-0.09l-0.13-0.27
							c-0.15-0.64,0.68,0.17,0.97-0.19l-0.19-0.12c0.13-0.28,0.85,0.65,1.07,0.65c0.06,0.04-0.04,0.11-0.09,0.17
							c0.65,0.18-0.06-0.4,0.3-0.62c0.14,0.18,0.08,0.55,0.36,0.49c0.19,0.12,0.54-0.92,1.03-0.65c-0.13-0.13-0.26-0.26-0.12-0.44
							c0.26-0.15,0.96,0.33,1.04-0.25c0.05,0.03,0.08,0.07,0.09,0.11c0.17-0.2,0.62-0.45,0.66-0.76c0.54,0.92,1.16-0.94,1.47-0.02
							l0.64-0.27l0.01,0.1c0.44-0.08,0.51-0.35,0.59-0.62c0.12,0.03,0.08,0.14,0.08,0.19c0.68-0.03,0.72-0.09,1.08-0.72l0.15,0.28
							c0.08-0.22,1.05,0.16,1.53-0.39c0.01,0.04,0.01,0.1-0.02,0.16c0.56-0.58,1.9,0.26,1.78-0.9l0.36-0.42
							c-0.61,0.11-0.07-0.5-0.37-0.59c0.21-0.14,0.7,0.12,0.44,0.27l-0.06-0.04c0.09,0.6,0.79-0.05,0.9,0.34
							c1.13-0.42,2.34-0.49,3.42-0.83l-0.27-0.39l0.38-0.1c0.13,0.07,0.25,0.3-0.02,0.37c0.22,0.2,0.37-0.36,0.35-0.46
							c0.58,0-0.03,0.58,0.13,0.53l0.21-0.11l-0.07-0.03c0.11-0.24,0.07-0.43,0.39-0.52c0.23,0.02,0.2,0.23,0.28,0.22
							c0.01,0.03,0.04,0.04,0.13-0.03l0.48-0.12l-0.31-0.28c0.15-0.24,0.45-0.13,0.1-0.45c0.52,0.49,1.82-0.38,2.08-0.26
							c0.2-0.35,0.49-0.44,0.86-0.54c-0.11-0.04-0.3-0.41,0.02-0.47c0.16,0.84,0.68,0.15,1.13,0.65c-0.35-0.31,0.84-0.39,0.31-0.82
							c0.28-0.02,0.12,0.29,0.38,0.42c0.5-0.52,1.41-0.26,2.13-0.62c-0.02-0.11-0.21-0.23-0.1-0.44l0.58,0.39
							c0.13-0.1-0.07-0.65,0.33-0.38c-0.07-0.08-0.17-0.19-0.08-0.26c1.65,0.01,2.87-1.45,4.7-1c-0.27-0.13-0.14-0.2,0.01-0.26
							c-0.12-0.01-0.09-0.26-0.15-0.4l0.76,0.18c-0.02-0.43,0.66-0.26,0.6-0.66l-0.18,0.14c0.11-0.54-0.71-0.86-0.87-1.45
							c-0.12,0.61-1.04-0.48-1.27,0.41c-0.15-0.08,0.03-0.22-0.07-0.33c-0.04,0.29-0.17,0.39-0.48,0.37l0.01-0.07
							c-0.75,0.32-1.17,0.2-2.09,0.33l0.16,0.26c-0.2,0.03-0.27-0.05-0.38-0.09c-0.07,0.5,0.53-0.16,0.5,0.38
							c-0.44-0.49-1.32,0.44-1.71-0.15c-0.29,0.09,0.2,0.3-0.09,0.39l-0.14-0.15l0.01,0.25c-0.2,0.03-0.37-0.16-0.43-0.31
							c0.05,0,0.12-0.09,0.16-0.12c-0.32-0.12-0.66,0.31-0.77,0.27l0.31,0.01c-0.73,0.43-1.76,0.53-2.4,1.15l0.1,0.11
							c-0.49,0.44-0.51,0.01-1.11,0.34l0.01-0.04c-0.08,0.18-0.23,0.3-0.41,0.35c0.11-0.21-0.41-0.2-0.25-0.45
							c-0.54,0.48-0.24,0.31-0.48,0.95l-0.17-0.19c-0.07,0.25-0.05,0.36-0.35,0.52c0.19-0.28-0.32-0.27-0.11-0.62
							c-0.83-0.26-0.82,0.83-1.37,0.22c-0.1,0.72,0.69,0.14,0.57,0.33c0.21,0.15-0.1,0.54-0.33,0.55c-0.22,0.06-0.63-0.66-1.16-0.47
							c0.05-0.02,0.04-0.06,0.1-0.08c-0.25-0.09-0.32,0.35-0.65,0.18c-0.01,0.42-0.33,0.09-0.2,0.57l0.45-0.28
							c-0.24,0.22-0.31,0.86-0.86,0.75c0-0.11,0.1-0.28,0.17-0.38c-0.18-0.09-0.23,0.18-0.41,0.08c-0.12-0.49,0.56-0.31,0.74-0.77
							c-0.21-0.15-0.45,0.54-0.47-0.03c0.01,0.72-0.55,0.1-0.75,0.72l-0.07-0.29c-0.04,0.06-0.11,0.24-0.22,0.27l0.07-0.43
							c-0.19,0.41-0.66-0.08-0.88,0.19c0.59-0.21,0.25,0.3,0.57,0.42c-0.6,0.63-0.67-0.6-1.44-0.18c0.1-0.08,0.47,0.03,0.34,0.22
							c-0.17-0.01-0.42-0.04-0.56-0.16c-0.52,0.24,0.18,0.26,0.01,0.52c-0.3-0.28-0.22,0.23-0.41,0.42l-0.1-0.29
							c-0.68,0.03,0.04,0.66-0.59,0.62l0.1-0.48l-0.25,0.2l-0.05-0.35c-0.23,0.35-0.35,0.32-0.69,0.33
							c0.14,0.18,0.14,0.54-0.13,0.64c-0.24-0.11,0.01-0.31-0.36-0.14c0.03-0.21,0.04-0.47,0.3-0.26c-0.01-0.1,0.02-0.21,0.01-0.31
							c-0.27-0.13-0.52,0.13-0.66,0.18c0.06-0.01,0.13-0.01,0.17,0.02l-0.42,0.59c-0.12-0.08-0.08-0.19-0.05-0.3
							c-0.1,0.07-0.14,0.23-0.29,0.31c-0.04-0.25-0.13-0.49,0.07-0.68l-0.44,0.44c-0.07-0.09-0.37-0.19-0.33-0.3
							c-0.34-0.04-0.57,0.7-1.02,0.65c0,0.05-0.03,0.11-0.1,0.17c-0.39,0.07-0.81-0.1-1.14,0.37l-0.39-0.33
							c-0.31,0.21,0.52,0.41,0,0.77c-0.36,0.27-0.27-0.31-0.45-0.37c-0.13,0.28-0.33,0.83-0.81,0.61
							C413.98,93.59,414.09,93.62,414.2,93.55z M410.05,95.17c0.06-0.09,0.16-0.33,0.28-0.18
							C410.35,95.35,410.22,95.22,410.05,95.17z M403.89,98.06c0.03-0.12,0.14-0.1,0.28-0.03C404.11,98.08,404.02,98.1,403.89,98.06
							z M386.76,106.16c0-0.01,0-0.01,0-0.02C386.99,106.19,386.91,106.17,386.76,106.16z M386.34,106.17
							c-0.02,0.05-0.01,0.09,0.02,0.13c0-0.08,0.08-0.12,0.19-0.13C386.5,106.1,386.43,106.06,386.34,106.17z M426.86,92.16
							l-0.1-0.05C426.9,91.97,426.87,92.06,426.86,92.16z"/>
						<path class="st3" d="M404.48,97.41c0.04,0.04,0.06,0.09,0.09,0.14C404.59,97.5,404.57,97.44,404.48,97.41z"/>
						<path class="st3" d="M416.76,92.5c0.01,0,0.01,0,0.01,0c0-0.02,0-0.04,0-0.06L416.76,92.5z"/>
						<path class="st3" d="M391.36,101.72c0.09,0.02,0.15,0.05,0.2,0.1C391.54,101.75,391.48,101.7,391.36,101.72z"/>
						<path class="st3" d="M384.51,107.34l0.22-0.16c-0.11,0.05-0.18,0.01-0.25-0.02C384.5,107.23,384.58,107.31,384.51,107.34z"/>
						<path class="st3" d="M381.8,106.28c-0.02,0.05-0.07,0.03-0.1,0.08l0.06,0.13C381.91,106.43,381.97,106.28,381.8,106.28z"/>
						<path class="st3" d="M383.96,106.46c-0.1-0.24-0.23-0.1-0.38,0c0.01,0,0.02-0.01,0.03-0.01
							C383.67,106.81,383.82,106.63,383.96,106.46z"/>
						<path class="st3" d="M383.54,106.48c-0.05,0.03-0.1,0.05-0.15,0.06C383.41,106.69,383.46,106.55,383.54,106.48z"/>
						<path class="st3" d="M385.92,106.49c-0.1-0.03,0.06,0.33-0.02,0.24C385.91,107.07,386.3,106.18,385.92,106.49z"/>
						<polygon class="st3" points="383.55,105.71 383.71,105.99 383.72,105.71 						"/>
						<path class="st3" d="M384.96,105.47l-0.3,0.01c0.02,0.05,0,0.09-0.04,0.13C384.79,105.56,385,105.56,384.96,105.47z"/>
						<path class="st3" d="M384.62,105.61c-0.09,0.02-0.17,0.06-0.2,0.12C384.47,105.71,384.57,105.67,384.62,105.61z"/>
						<polygon class="st3" points="383.89,105.49 383.99,105.53 384.19,105.48 						"/>
						<path class="st3" d="M387.89,104.53l0.27-0.19c0-0.11-0.11-0.15-0.2-0.07C387.91,104.37,387.81,104.45,387.89,104.53z"/>
						<path class="st3" d="M386.72,104.02c0.1,0.03,0.13,0.1,0.21,0.18l-0.12-0.37L386.72,104.02z"/>
						<path class="st3" d="M387.55,103.64c-0.01-0.11,0.33-0.44-0.04-0.29C387.51,103.46,387.25,103.65,387.55,103.64z"/>
						<polygon class="st3" points="392.16,102.58 392.09,102.61 392.31,103.22 						"/>
						<path class="st3" d="M395.59,99.78c-0.4-0.03,0.05,0.4-0.33,0.33c-0.03,0.17,0.31,0.06,0.27,0.21
							C395.68,100.1,395.82,100.15,395.59,99.78z"/>
						<path class="st3" d="M395.52,100.33c-0.03,0.04-0.05,0.08-0.08,0.13C395.49,100.4,395.51,100.36,395.52,100.33z"/>
						<polygon class="st3" points="440.71,87.76 440.98,87.81 440.76,87.66 						"/>
						<path class="st3" d="M440.99,87.17l0.19,0.37l0.02-0.4C441.14,87.17,441.06,87.24,440.99,87.17z"/>
						<path class="st3" d="M409.16,94.61l0.01,0.1c0.07,0.09,0.12,0.08,0.24,0.06L409.16,94.61z"/>
						<polygon class="st3" points="412.31,93.85 412.26,93.86 412.48,94.18 						"/>
						<path class="st3" d="M414.72,92.53c-0.11,0.02-0.21,0.14-0.32,0.16C414.61,92.55,414.9,92.95,414.72,92.53z"/>
					</g>
				</g>
			</g>
		</g>
	</g>
	<g>
		<g>
			<g>
				<g>
					<g>
						<g>
							<path class="st3" d="M442.86,77.14c0.12,0.37,0.32,0.15,0.39,0.19C442.95,76.74,442.8,77.18,442.86,77.14z"/>
							<polygon class="st3" points="439.72,71.55 439.87,71.6 439.2,70.9 							"/>
							<path class="st3" d="M436.61,66.51c-0.05,0.72,1.24,1.75,1.69,2.72l0.01,0.2l0.57,0.21
								C438.12,68.59,437.02,67.33,436.61,66.51z"/>
							<path class="st3" d="M435.36,63.42c-0.01,0.27-0.55-0.45,0.43,0.62c-0.03-0.07-0.04-0.09-0.05-0.13
								C435.65,63.8,435.54,63.66,435.36,63.42z"/>
							<path class="st3" d="M435.74,63.91C436.15,64.39,435.59,63.49,435.74,63.91L435.74,63.91z"/>
							<path class="st3" d="M433.7,61.78l0.7,0.49c-0.05-0.2-0.56-0.75-0.31-0.6C433.42,61.11,433.48,61.31,433.7,61.78z"/>
							<path class="st3" d="M432.91,61.44l0.35,0.26C433.24,61.62,433.17,61.53,432.91,61.44z"/>
							<path class="st3" d="M434,62.26l-0.75-0.56c0.03,0.14-0.06,0.25,0.33,0.27C433.44,62.01,433.66,62.05,434,62.26z"/>
							<path class="st3" d="M434.32,62.68c0.27,0.39,0.59,0.91-0.07,0.38C435.31,64.24,435.43,63.84,434.32,62.68z"/>
							<path class="st3" d="M436.05,66.55c0.09,0.18,0.19,0.37,0.26,0.57l0.41,0.35c-0.1-0.09-0.24-0.35-0.36-0.58
								C436.22,66.67,436.09,66.5,436.05,66.55z"/>
							<path class="st3" d="M430,58.06c-0.1,0.04,0.06,0.38,0.03,0.51l0.55,0.31C430.37,58.63,429.94,58.2,430,58.06z"/>
							<path class="st3" d="M430.02,58.57l-0.81-0.46C429.83,58.65,430,58.69,430.02,58.57z"/>
							<polygon class="st3" points="432.45,61.69 433.75,62.52 432.24,61.49 							"/>
							<polygon class="st3" points="427.15,55.93 427.71,56.05 426.74,55.79 							"/>
							<path class="st3" d="M425.15,54.66c0.44,0.03-0.31-0.53,0.11-0.42c-0.58-0.29-1.15-0.42-1.65-0.53
								C424.11,53.89,424.6,54.18,425.15,54.66z"/>
							<path class="st3" d="M422.79,53.49c0.25,0.09,0.52,0.15,0.82,0.22C423.35,53.61,423.08,53.53,422.79,53.49z"/>
							<path class="st3" d="M427.99,57.12c-0.02-0.09-0.05-0.29-0.44-0.63l0.14,0.43C427.79,56.98,427.89,57.05,427.99,57.12z"/>
							<path class="st3" d="M427.7,56.93l-0.01-0.01c-0.32-0.23-0.54-0.39-0.64-0.45C427.14,56.52,427.33,56.66,427.7,56.93z"/>
							<path class="st3" d="M428.07,57.17c-0.03-0.02-0.05-0.03-0.07-0.05C428.01,57.16,428.02,57.18,428.07,57.17z"/>
							<path class="st3" d="M430.89,59.87c-0.51-0.23-1.47-0.82-0.79,0.04C430.51,60.01,430.12,59.52,430.89,59.87z"/>
							<path class="st3" d="M428.24,57.7c0.25,0.2,0.48,0.44,0.72,0.66c0.03-0.07-0.04-0.26,0.21-0.15
								C428.85,58.04,428.56,57.85,428.24,57.7z"/>
							<polygon class="st3" points="427.79,57.5 428.24,57.7 427.95,57.48 							"/>
							<path class="st3" d="M424.15,54.53c-0.43-0.1-0.84-0.32-1.31-0.55c0.47,0.32,0.96,0.62,1.44,0.88
								C424.39,54.82,424.68,54.81,424.15,54.53z"/>
							<path class="st3" d="M425.9,55.66c-0.03-0.01-0.06-0.03-0.09-0.04C425.85,55.67,425.88,55.71,425.9,55.66z"/>
							<polygon class="st3" points="418.18,51.82 418.24,51.9 418.27,51.87 							"/>
							<path class="st3" d="M424.34,54.95c0.34,0.25,0.59,0.31,0.85,0.36c-0.29-0.13-0.59-0.28-0.9-0.45
								C424.23,54.88,424.21,54.89,424.34,54.95z"/>
							<path class="st3" d="M421.45,52.94c0.18,0.13,0.39,0.28,0.59,0.45C421.9,53.2,421.56,52.91,421.45,52.94z"/>
							<path class="st3" d="M425.73,55.48l0.06,0.03C425.71,55.38,425.71,55.41,425.73,55.48z"/>
							<path class="st3" d="M425.73,55.48c-0.2-0.09-0.38-0.13-0.55-0.17c0.22,0.12,0.44,0.23,0.63,0.32
								C425.78,55.58,425.75,55.52,425.73,55.48z"/>
							<path class="st3" d="M416.15,52.96c0.14-0.19,1.27-0.16,2,0.5c0.9,0.19,0.68-0.81,0.09-1.56c-0.07,0.1-0.09,0.15-1.06,0
								c0.29,0.19,1.85,1.07,1.03,0.97c-1.2-0.37-0.93-0.43-1.46-0.76c0.39,0.45-1.66-0.06-1.53,0.46l1.08,0.18
								C416.29,52.82,415.88,52.81,416.15,52.96z"/>
							<path class="st3" d="M419.92,52.65l0.38,0.13c-0.4-0.22-0.66-0.44-1.13-0.86c-0.66-0.15-0.82-0.12-0.89-0.06l1.79,0.81
								L419.92,52.65z"/>
							<path class="st3" d="M421.92,53.52c-0.38,0.07-1.32-0.16-0.91,0.32c1.05,0.47,0.81,0.17,1.48,0.38
								c-1.67-0.84,0.54,0.12-0.58-0.66c0.34,0.14,0.64,0.28,0.92,0.43c-0.28-0.19-0.55-0.39-0.8-0.58
								c0.01,0.01,0.02,0.02,0.03,0.04l0.01,0l0,0c0.06,0.07,0.07,0.1,0,0.04c-0.01,0-0.03-0.01-0.04-0.01
								C422.01,53.49,421.97,53.5,421.92,53.52c-0.45-0.31-0.04-0.11,0.12-0.05c0.01-0.01,0.03-0.01,0.04-0.03l0-0.01
								c-0.57-0.27-1.19-0.43-1.78-0.65C420.64,52.99,421.12,53.14,421.92,53.52z"/>
							<path class="st3" d="M428.96,59.73c-0.03-0.05-0.01-0.07,0-0.09C428.85,59.59,428.8,59.58,428.96,59.73z"/>
							<path class="st3" d="M428.49,59.12c0.13,0.06,0.28,0.04,0.6,0.34c0.24,0.3-0.08,0.1-0.13,0.18c0.24,0.11,0.83,0.44,0.28-0.19
								l-0.12-0.05c-0.51-0.54-1.04-1.43-0.92-1.38C428.22,58.35,428.26,58.62,428.49,59.12z"/>
							<path class="st3" d="M425.29,56.19c-0.44-0.27-0.92-0.46-1.39-0.67l0.57,0.58l0.04-0.14
								C425.22,56.46,425.14,56.23,425.29,56.19z"/>
							<path class="st3" d="M418.06,51.63l0.29-0.19c-0.32-0.01-0.67,0.05-1,0.08L418.06,51.63z"/>
							<polygon class="st3" points="416.1,51.02 416.25,50.81 415.69,50.79 							"/>
							<path class="st3" d="M377.94,120.68l0.37,0.22C378.14,120.79,378.03,120.72,377.94,120.68z"/>
							<path class="st3" d="M375.67,118.56l-0.14,0.03C375.68,118.65,375.76,118.65,375.67,118.56z"/>
							<path class="st3" d="M370.72,64.4c-0.61,0.37-1.38,0.74-1.11,0.84l0.35,0.01C370.23,64.86,370.48,64.6,370.72,64.4z"/>
							<path class="st3" d="M363.15,96.36c0.02-0.06,0.03-0.13,0.05-0.2c-0.11-0.15-0.2-0.28-0.29-0.4
								C362.97,95.94,363.03,96.15,363.15,96.36z"/>
							<path class="st3" d="M364.35,96.65l-0.03,0.85C364.35,97.3,364.36,97.03,364.35,96.65z"/>
							<path class="st3" d="M392.86,128.32c0.18-0.04,0.36-0.07,0.55-0.13C392.67,127.99,392.96,128.2,392.86,128.32z"/>
							<path class="st3" d="M395.42,49.83c-0.59,0-1.06,0.04-1.46,0.1C394.68,49.96,395.28,50.09,395.42,49.83z"/>
							<path class="st3" d="M375.05,122.05c0.25,0.14,0.38,0.18,0.41,0.13C375.21,122.02,375.05,121.96,375.05,122.05z"/>
							<path class="st3" d="M392.33,50.37c0.11-0.01,0.21-0.01,0.31-0.02c0.4-0.15,0.8-0.34,1.31-0.42
								C393.42,49.91,392.83,50.04,392.33,50.37z"/>
							<path class="st3" d="M440.8,101.18c0.02-0.04,0.04-0.09,0.06-0.13C440.83,101.03,440.82,101.09,440.8,101.18z"/>
							<path class="st3" d="M444.07,82.92c0.05,0.18,0.11,0.49,0.16,0.77C444.22,83.55,444.18,83.32,444.07,82.92z"/>
							<path class="st3" d="M408.08,49.16C408.52,49.19,408.15,49.14,408.08,49.16L408.08,49.16z"/>
							<path class="st3" d="M410.01,50.48c-0.09,0.02-0.17,0.05-0.19,0.11C409.86,50.53,409.93,50.49,410.01,50.48z"/>
							<path class="st3" d="M388.82,53.3c-0.01,0-0.02,0.01-0.03,0.01C388.92,53.31,388.9,53.31,388.82,53.3z"/>
							<path class="st3" d="M408.72,49.36c-0.16-0.05-0.34-0.1-0.54-0.15C408.26,49.24,408.43,49.29,408.72,49.36z"/>
							<path class="st3" d="M408.65,49.22c0.15,0.03,0.26,0.05,0.37,0.07C409.08,49.25,409.04,49.22,408.65,49.22z"/>
							<path class="st3" d="M407.48,49.1c0.25,0.02,0.48,0.07,0.7,0.11c-0.08-0.03-0.12-0.05-0.09-0.05
								C407.95,49.15,407.78,49.13,407.48,49.1z"/>
							<path class="st3" d="M420.87,126.52c0.03-0.01,0.06-0.01,0.09-0.02C421.27,126.21,421.12,126.31,420.87,126.52z"/>
							<path class="st3" d="M367.42,75.14c0-0.02,0-0.03,0.01-0.05c-0.01,0.02-0.02,0.04-0.03,0.05L367.42,75.14z"/>
							<path class="st3" d="M367.03,76.55c-0.07-0.69,0.11-1.01,0.36-1.41l-0.92,0.13L367.03,76.55z"/>
							<path class="st3" d="M384.06,124.86l-0.76-0.7c1.27,0.24,1.95,0.77,1.31,0.02c-0.26,0.32-1.16-0.07-1.98-0.6
								c-0.82-0.53-1.63-1.06-1.94-0.75l-0.45-0.52c0.15,0.11,0.21,0.09,0.36,0.2c-0.83-1.05-1.16-0.06-2.39-1.23
								c-0.41-0.43-0.64-0.78-0.27-0.6l-1.14-0.68c-0.27-0.26-0.11-0.31,0.17-0.05c-0.52-0.42-0.97-0.9-1.46-1.35l0.03-0.01
								c-0.29-0.11-0.9-0.42-1.19-0.59c-0.27-0.45,0.25,0.12,0.23-0.05c-0.31-0.22-0.63-0.42-0.92-0.66
								c-0.06-0.25,0.1-0.23,0.32-0.08c0.25,0.14,0.57,0.41,0.83,0.69c-0.05-0.66-0.25-0.78-0.58-0.98
								c-0.31-0.22-0.75-0.55-1.25-1.56l0.73,0.73c-0.04-0.83-0.68-1.34-1.17-2.41c0.04,0.29,0.86,2.27-0.05,1.48
								c-0.16-0.31-0.42-0.66-0.95-1.07c0.24-0.18-0.16-0.66-0.61-1.31l0.36-0.18c-0.56-0.64-0.7-0.47-1.12-0.79
								c-0.49-0.81-0.33-1.13-0.2-1.47c-0.64-1.37,0.05,1.18-0.85-0.38c-0.22-0.6-0.47-1.07-0.78-1.55
								c-0.31-0.48-0.71-0.96-1.07-1.63c-0.2-0.88,0.28,0.05,0.27-0.3l-0.59-0.6c-0.06-0.18,0.05-0.16,0.11-0.15
								c-0.36-0.57-0.39,0.1-0.89-0.84c-0.25-0.06-0.33-0.61-0.39-1.29c-0.04-0.69-0.11-1.49-0.53-2.04
								c0.02-0.34,0.28,0.08,0.4-0.05c-0.8-1.6-0.67-1.35-1.37-2.74l0.04-1.28c-0.13,0.96-0.7-0.13-1.18-1.13
								c-0.09,0.35-0.16,0.65-0.19,0.85c-0.18-0.54-0.35-1.09-0.45-1.65c0.05-0.21,0.2-0.06,0.39,0.2c-0.04-0.11-0.09-0.21-0.12-0.3
								c0.1-0.62,0.36-0.33,0.61,0.07c-0.07,0.21-0.13,0.42-0.2,0.63c0.32,0.38,0.65,0.71,0.87,0.59c-0.07-0.1-0.14-0.3-0.2-0.52
								c0.09,0.1,0.16,0.15,0.19,0.1c0.04-0.06-0.1-0.21-0.22-0.47l0.42-0.42l-0.18-0.07l0.11-2.15c-0.15-0.37-0.3-0.73-0.45-1.11
								c-0.12-0.38-0.24-0.76-0.36-1.18c-0.21-0.84-0.46-1.81-0.45-3.06c0.26,0.64,0.52,0.17,0.91,0.23
								c-0.46,0.64,0.13,1.9,0.01,3.14c0.06-0.66,0.24-0.51,0.3-0.34l-0.33-2.25c0.31,0.07,0.24-0.46,0.46-1.03
								c-0.68,0.39-0.22-1.7-0.3-2.64c0.22-0.02,0.4,0.23,0.22,1.32c0.63-1.14-0.6-1.7,0.09-2.82c-0.05,0.27-0.12,0.41-0.03,0.53
								c-0.05-0.66,0.43-2.16,0.53-1.76l-0.05,0.27c0.12-0.44,0.25-0.99,0.37-1.58c0.16-0.58,0.33-1.2,0.49-1.77
								c0.3-1.15,0.44-2.16,0.26-2.37c0.07,0.01,0.51,0.45,0.58,0.59c-0.17-1.2-0.27-2.43-0.38-3.72c0.31,0.45,1.73-0.08,1.37,1.4
								c0.25-0.36,0.47-0.84,0.76-1.7c-0.2,0.22-0.94,0.35-0.79-0.03c0.99-0.74,0.62-0.56,1.66-1.54c-0.3,0.34-0.69-0.44-0.33-1.05
								c0.04,0.15,0.64,0.31,0.59,0.57c0.07-0.63,0.14-1.26,0.29-1.86c-0.14,0.43,0.47,0.38,0.85,0.18
								c-0.22,0.07,0.85-1.22,1.05-1.64l-0.55,0.51c1.16-1.56,0.34-2.16,1.63-3.68c-0.04,0.28,0.32,1.03,1.01,0.33
								c0.02-0.28-0.02-0.99,0.14-1.75c0.17-0.76,0.48-1.66,1.02-2.39l0.39-0.09c0.27-0.38,0.54-0.77,0.86-1.11
								c-0.17,0.5-0.47,1.36-0.77,2.25c-0.32,0.9-0.67,1.79-0.94,2.39c0.63-0.41,0.32,0.02,1.08-0.75c0.41-0.13-0.21,0.62-0.42,0.85
								l1.87-1.67c-0.19-0.11,0.08-0.53,0.36-0.94c0.31-0.38,0.63-0.75,0.48-0.86c-0.65,0.66-1.16,1.46-1.72,2.19
								c-0.19-0.11-0.12-0.6,0.18-1.23c0.15-0.31,0.34-0.68,0.62-0.99c0.28-0.32,0.61-0.63,0.98-0.9c0.47-0.16,0.21,0.8,0.33,0.88
								c0.09-0.26,1.15-1.29,1.35-1.32l-0.45,0.66c0.44-0.25,0.67-0.62,0.94-0.98c0.28-0.35,0.63-0.65,1.25-0.82
								c0.37-0.21,1.33-0.22,1.25-0.47c-0.82-0.04-1.77-1.21-1.57-1.77c0.07-0.03,0.61-0.24,1.2-0.46c0.57-0.24,1.26-0.34,1.53-0.36
								c0.8,0.01-0.49,1.27,0.2,1.28c-0.04-0.11,0.23-0.41,0.35-0.53c0.44-0.12,0.01,0.4,0.83-0.09c-0.06-0.45,1.74-0.87,0.23-0.53
								c0.79-0.52,0.9-0.43,1.91-0.86c-0.44-0.12,0.54-1.23,1.4-1.71c-0.01,0.12,0.24,0.18,0.36,0.2c0.46-0.17,0.87-0.32,1.25-0.44
								c0.39-0.1,0.76-0.17,1.12-0.25c0.72-0.15,1.42-0.3,2.29-0.55c0.19,0.05,1.06-0.05,0.74,0.22c0.24-0.12,0.44-0.31,0.99-0.42
								c1.13,0.17-1.21,0.28-0.31,0.57c0.01-0.26,1.34-0.59,2.09-0.89c-0.3-0.34-1.83,0.25-2.57,0.55c-0.13-0.52,1.13-1.31,3.02-1.9
								c1.51-0.36,0.71,0.26,0.96,0.14c1.44-0.07,2.04-0.35,2.58-0.59c0.55-0.24,1.05-0.46,2.26-0.22c0.96,0.36,0.04,0.67,0.25,0.92
								c-0.62,0.06-1.1-0.02-1.52-0.08c-0.43-0.03-0.81-0.09-1.23-0.05l1.04,0.08c-0.39,0.14-1.21,0.29-1.66,0.23
								c0.79,0.16,4.83-0.17,6.99,0.4c0.4-0.07,1.08-0.1,0.78-0.28l-0.7-0.04c-0.61-0.35,1.35-0.22,0.48-0.45
								c0.48-0.04,1-0.1,1.56-0.12c0.28-0.01,0.57,0,0.88,0.03c0.3,0.06,0.61,0.13,0.93,0.24l0.17,0.43c0-0.12-0.81-0.42-1.2-0.37
								c0.58-0.05,1.89,0.95,2.59,0.58l-0.86-0.46c0.97,0.04,2.26-0.19,3.37,0.35c-0.42-0.53-0.27-0.05-0.98-0.73
								c0.59,0.7-3.02-0.69-1.98,0.14c-0.75-0.67-1.43-0.59-2.51-1.17c0.02,0.13,0.37,0.29-0.63,0.11
								c-0.05,0.03-0.16,0.07-0.24,0.08c-0.03-0.01-0.04-0.01-0.07-0.02l0.05,0.02c-0.05,0.01-0.05,0.02,0.02,0.01
								c0.23,0.08,0.42,0.17,0.49,0.25c-0.54,0.23-2.12,0.03-2.67,0.12c-0.59-0.13,0.26-0.12-0.05-0.29
								c-0.27,0.04-0.55,0.09-0.82,0.17c-0.06-0.28-1.57-0.5-0.14-0.64l-1.28-0.04c-0.75-0.17-1.8-0.27-2.43-0.14
								c-0.61-0.01-1.51,0.43-0.99,0.17l-1.99,0.33l-0.03-0.07c-0.99,0.02-1.97,0.37-3,0.6c-1.02,0.26-2.09,0.39-3.23,0.5
								c-0.62,0.25-1.26,0.52-2.35,0.76l-0.29-0.17c-0.8,0.3-2.49,0.7-2.75,1.05c-0.28-0.07-0.66-0.01-1.11,0.12
								c-0.45,0.12-0.95,0.33-1.44,0.62c-0.98,0.55-1.99,1.19-2.7,1.49l0.11,0.3c-0.92,0.49-1.68,1.16-2.68,1.96l0.23,0.19
								c-0.82,0.74-2.38,1.52-3.73,2.64c0.02-0.16,0.38-0.42,0.67-0.56c-0.51,0.2-0.96,0.51-1.38,0.85
								c-0.4,0.37-0.73,0.81-1.07,1.24c-0.66,0.87-1.33,1.66-2.1,2.24c-0.23,0.43-0.47,0.67-0.73,0.88c0.03-0.03,0.05-0.07,0.06-0.1
								c-0.03,0.04-0.08,0.09-0.13,0.15c-0.17,0.13-0.35,0.27-0.54,0.41c0.18-0.11,0.34-0.22,0.47-0.33
								c-0.23,0.28-0.55,0.73-0.84,1.19l-0.39-0.01c-0.03,0.04-0.05,0.06-0.07,0.1c-0.43,0.34-0.16,0.41,0.2,0.34
								c-0.14,0.23-0.22,0.48-0.27,0.68c-0.64,0.07-0.66,1.25-1.42,1.44c0,0.22-0.34,0.81-0.64,1.4c-0.25,0.62-0.46,1.26-0.3,1.51
								c-0.07-0.02-0.17,0.1-0.04-0.15c-0.34,0.49-0.68,0.98-0.8,1.52l-0.47,0.05c-0.07,0.46-0.1,0.92-0.11,1.39
								c-0.52,0.62-0.78,0.87-0.74,0.02c-0.33,1.93-0.47,1.49-0.66,3.14l-0.21-0.16c-0.17,0.55-0.13,1.53-0.44,1.8
								c-0.97,1.06-1.75,6.11-2.42,9.38c0.41-0.29,0.26,0.08,0.13,0.56c-0.11,0.48-0.25,1.05,0.03,1.13
								c-0.18,0.19-0.29,0.65-0.42,0.1c0.15,1.7-0.39,2.58,0.23,3.73c-0.16,0.2-0.28-0.35-0.37-0.17c0.05,0.14,0.19,0.53,0.1,0.72
								c-0.09,0.18-0.16-0.24-0.26-0.51c0.17,1.76,0.71,1.88,1.22,1.95c-0.08,0.45-0.11,0.78-0.06,1.07
								c0.07,0.29,0.21,0.54,0.43,0.82c-0.11,0.32-0.19,0.85-0.44-0.2c0.09,0.59,0.4,3.69,0.84,3.65c-0.05,0.2,0.2,0.82,0.29,0.96
								c0.35,1.3,0.35,1.43,0.75,2.69l-0.04-0.37c0.58,0.36,0.45,1,0.9,1.97l-0.06-0.01c0.29,1.2,0.43,1.43,0.56,1.65
								c0.06,0.11,0.13,0.23,0.21,0.46c0.07,0.24,0.18,0.59,0.38,1.16l0.21-0.25c0.69-0.09,0.64,2.06,1.52,3.19l-0.09-0.53
								c0.52,0.56,0.39,2.26,0.74,2.98c0.05,0.17-0.22-0.17-0.39-0.35c0.81,1.93,0.48,0,1.38,1.22c-0.01,0.35-0.66,0.03-0.09,0.88
								c0.21,0.5,2.38,1.92,3.02,3.19c-0.1-0.33-0.18-0.66,0.4-0.24c0.8,0.7,1.58,2.55,2.68,2.8c0.07,0.12,0.09,0.19,0.06,0.22
								c0.72,0.43,2.2,1.54,2.74,1.63c-0.03,0.66,1.13,1.26,2.17,1.81c1.03,0.58,2.05,0.96,1.8,1.36l2.24,1.17l-0.1,0.06
								c1.41,0.81,2.07,0.75,2.67,0.78c0.32,0.21,0.03,0.18-0.02,0.22c2.07,1.15,2.38,1.08,4.38,1.25l0.11,0.36
								c0.28,0,1.05,0.39,2.09,0.69c0.51,0.16,1.09,0.33,1.68,0.47c0.59,0.14,1.2,0.25,1.79,0.21c-0.03,0.03-0.08,0.09-0.27,0.11
								c1.33-0.05,2.84,0.43,4.2,0.59c1.36,0.15,2.53,0.2,2.99-0.36c0.57-0.06,1.13-0.25,1.7-0.37c-2.2,0.08,0.3-0.52-0.61-0.64
								c0.84-0.13,2.23,0.17,1.18,0.31l-0.17-0.04c-0.35,0.61,2.74,0.02,2.73,0.37c4.32-0.63,8.5-1.64,12.28-3.3
								c-0.21-0.07-0.41-0.13-0.62-0.21c0.44-0.18,0.85-0.41,1.28-0.62c0.38-0.08,0.61,0.09-0.31,0.55c0.6-0.01,1.42-0.99,1.4-1.09
								c1.86-0.76-0.44,0.84,0.11,0.56l0.73-0.42l-0.19,0.04c0.26-0.24,0.37-0.41,0.56-0.59c0.19-0.17,0.45-0.37,0.96-0.7
								c0.7-0.35,0.48,0.02,0.75-0.13c0.02,0.03,0.11-0.02,0.4-0.25l1.54-0.96l-0.81,0.1c0.57-0.58,1.41-0.93,0.49-0.79
								c0.68-0.08,2-1.12,3.27-2.13c1.21-1.08,2.24-2.25,2.59-2.43c0.15-0.24,0.31-0.47,0.48-0.69c0.16-0.24,0.32-0.47,0.5-0.7
								c0.35-0.47,0.75-0.93,1.2-1.44c-0.28,0.21-0.72,0.1,0.06-0.75c0.18,0.41,0.64,0.09,1.09-0.46c0.45-0.55,0.97-1.26,1.5-1.49
								c-0.41,0.24,0.04-0.47,0.44-1.13c0.39-0.67,0.64-1.35,0.09-0.91c0.53-0.82,0.3,0.11,0.83-0.44c0.21-0.55,0.48-1.11,0.79-1.66
								c0.16-0.28,0.32-0.56,0.48-0.85c0.15-0.3,0.3-0.6,0.45-0.9c0.59-1.22,1.35-2.47,1.69-3.9c-0.09-0.08-0.4,0.33-0.37-0.31
								l1-1.29c0.1-0.57-0.4-0.66,0.18-1.58c-0.12,0.12-0.31,0.3-0.26-0.08c0.93-2.68,1.29-5.59,1.33-8.49
								c0-1.45,0.08-2.9-0.04-4.35c-0.03-0.73-0.04-1.45-0.02-2.18c0.02-0.73-0.07-1.45-0.05-2.19c-0.07,0.81-0.19,0.3-0.3-0.29
								c0.02,0.39-0.27,0.04-0.41,0.14c-0.02-0.81,0.01-1.63-0.04-2.45c-0.52-0.32-0.74-2.48-1.19-2.61l0.28,0.71
								c-0.73-0.82-0.62,1.63-1.25,1.63c0.2,0.23,0.31,0.53,0.37,0.87c0.04,0.35,0.01,0.74,0,1.15c-0.02,0.82-0.01,1.7,0.53,2.52
								c-0.05,0.4-0.25-0.3-0.35-0.08c0.36,0.4,0.43,0.94,0.4,1.96l-0.07-0.11c0.12,1.4,0.23,2.41,0.08,3.46
								c-0.05,0.52-0.11,1.06-0.17,1.66c-0.06,0.6-0.09,1.26-0.26,2.03l0.33-0.21c-0.12,0.67-0.23,0.8-0.34,1.11
								c0.36,0.83,0.25-1.89,0.67-1.14c-0.36,0.43-0.5,1.61-0.65,2.76c-0.17,1.15-0.5,2.23-0.88,2.46c-0.23,1.01,0.4-0.22,0.18,0.8
								l-0.24,0.22l0.18,0.32c-0.17,0.66-0.56,0.91-0.7,0.9c0.07-0.15,0.1-0.46,0.14-0.63c-0.48,0.77-0.69,2.38-0.85,2.65l0.41-0.91
								c-0.19,0.68-0.36,1.41-0.64,2.13c-0.3,0.7-0.61,1.42-0.92,2.14c-0.15,0.36-0.3,0.72-0.45,1.08
								c-0.18,0.34-0.35,0.68-0.52,1.02c-0.34,0.68-0.64,1.34-0.89,2l0.22-0.11c-0.19,0.5-0.37,0.82-0.54,1.06
								c-0.17,0.24-0.31,0.41-0.46,0.58c-0.3,0.34-0.63,0.69-1.23,1.68l0.02-0.09c-0.13,0.48-0.49,0.99-0.91,1.47
								c0.24-0.55-0.95,0.64-0.6-0.06c-1.25,1.92-0.52,1.03-1.16,2.5l-0.42,0.09c-0.22,0.51-0.17,0.62-0.96,1.49
								c0.54-0.82-0.77,0.26-0.2-0.68c-0.52,0.33-0.91,0.68-1.24,1.02c-0.34,0.32-0.63,0.61-0.88,0.88
								c-0.51,0.54-0.91,0.96-1.57,1.01c-0.47,1.22,1.85-1.04,1.46-0.54c0.55-0.17-0.42,0.96-1.06,1.4c-0.6,0.51-1.58,0.1-3.17,1.19
								c0.16-0.1,0.15-0.15,0.31-0.26c-0.35,0.13-0.61,0.37-0.9,0.62c-0.28,0.25-0.61,0.49-1.08,0.56
								c-0.25,0.57-1.03,0.51-0.93,1.02l1.54-0.93c-0.83,0.58-1.42,1.55-3.05,2.08c0.07-0.15,0.46-0.5,0.73-0.73
								c-0.5,0.08-0.78,0.55-1.32,0.6c-0.06-0.47,1.89-1.09,2.68-1.92c-0.56,0.05-1.64,1.27-1.41,0.53
								c-0.19,0.49-0.63,0.69-1.12,0.9c-0.52,0.17-1.11,0.33-1.62,0.82l-0.03-0.31c-0.17,0.12-0.52,0.41-0.88,0.55l0.5-0.62
								c-0.87,0.7-1.97,0.52-2.89,0.92c1.01-0.29,1.15-0.25,1.16-0.13c0.01,0.12-0.12,0.33,0.34,0.27c-2.4,1.17-1.69-0.3-4.44,0.63
								c0.37-0.12,1.47-0.23,0.91,0.08c-0.55,0.12-1.3,0.14-1.66,0.04c-1.89,0.4,0.35,0.25-0.42,0.58
								c-0.72-0.24-0.91,0.32-1.75,0.58l-0.05-0.3c-0.55,0.06-0.86,0.11-1.05,0.16c-0.18,0.06-0.24,0.14-0.29,0.22
								c-0.1,0.16-0.18,0.32-1.2,0.28l0.81-0.49l-1.03,0.19l0.19-0.36c-0.55,0.17-0.92,0.25-1.29,0.28
								c-0.37,0.04-0.73,0.03-1.29-0.05c0.26,0.22-0.14,0.55-1.13,0.54c-0.67-0.19,0.38-0.28-1.02-0.27
								c0.33-0.18,0.67-0.42,1.27-0.12c0.06-0.1,0.31-0.18,0.37-0.28c-0.71-0.22-1.8-0.08-2.3-0.09c0.19,0.01,0.42,0.04,0.54,0.08
								c-0.34,0.06-0.68,0.13-1.02,0.18l-1.02,0.09c-0.31-0.15-0.04-0.21,0.21-0.27c-0.41-0.02-0.7,0.09-1.31,0.04
								c0.19-0.23,0.18-0.48,1.03-0.5l-1.93,0.05c-0.11-0.11-0.92-0.42-0.66-0.48c-0.98-0.38-2.63-0.05-3.94-0.6
								c-0.08,0.02-0.23,0.02-0.53-0.04c-0.62-0.23-1.19-0.51-1.79-0.74c-0.3-0.12-0.62-0.22-0.95-0.32
								c-0.33-0.12-0.68-0.23-1.07-0.3l-0.64-0.76c-1.16-0.39,0.88,0.99-1.07,0.33c-1.4-0.45-0.34-0.55-0.74-0.89
								c-0.72-0.14-2.05-0.36-3.04-1.31C383.41,124.47,383.68,124.69,384.06,124.86z M372.5,115.19c0.24,0.19,0.76,0.52,0.75,0.8
								C372.77,115.96,372.74,115.64,372.5,115.19z M363.53,94.01c0.12,0.22,0.09,0.56,0.01,0.96
								C363.49,94.69,363.48,94.37,363.53,94.01z M403.32,49.12l-0.03,0.01C402.58,49,402.83,49.05,403.32,49.12z M404.78,49.28
								c0.15-0.04,0.14-0.08,0.08-0.13c-0.11,0.07-0.43,0.07-0.81,0.04C404.15,49.28,404.34,49.34,404.78,49.28z M425.77,126.08
								l-0.28,0.09C425.97,125.75,425.87,125.91,425.77,126.08z"/>
							<path class="st3" d="M364.21,96.61c-0.04,0.09-0.09,0.12-0.14,0.15C364.14,96.87,364.2,96.86,364.21,96.61z"/>
							<path class="st3" d="M392.76,128.34l0.04,0.02c0.03-0.01,0.05-0.02,0.06-0.04L392.76,128.34z"/>
							<path class="st3" d="M384.29,56.7c-0.27,0.09-0.44,0.12-0.56,0.11C383.75,56.89,383.9,56.88,384.29,56.7z"/>
							<path class="st3" d="M412.55,49.78l-0.94-0.13c0.45,0.08,0.6,0.18,0.81,0.28C412.42,49.86,412.26,49.72,412.55,49.78z"/>
							<path class="st3" d="M419.57,54.09c0.14,0.02,0.26,0.11,0.39,0.12l0.03-0.14C419.47,53.85,419.06,53.8,419.57,54.09z"/>
							<path class="st3" d="M413.16,50.95c0,0.28,0.6,0.26,1.23,0.44l-0.11-0.03C414.56,51.07,413.87,50.96,413.16,50.95z"/>
							<path class="st3" d="M414.53,51.43c0.19,0.05,0.39,0.11,0.57,0.18C415.22,51.49,414.88,51.5,414.53,51.43z"/>
							<path class="st3" d="M406.64,49.2c0.3,0.1,0.22-0.3,0.39-0.18C407.41,48.72,404.93,49.19,406.64,49.2z"/>
							<polygon class="st3" points="413.46,51.88 413.32,51.53 412.91,51.7 							"/>
							<path class="st3" d="M408.58,50.71l1,0.21c-0.01-0.05,0.13-0.07,0.29-0.07C409.24,50.76,408.57,50.62,408.58,50.71z"/>
							<path class="st3" d="M409.86,50.85c0.32,0.05,0.63,0.13,0.81,0.11C410.5,50.93,410.13,50.84,409.86,50.85z"/>
							<polygon class="st3" points="412.09,51.68 411.81,51.55 411.12,51.37 							"/>
							<path class="st3" d="M397.65,50.65l-1.08,0.29c-0.09,0.13,0.21,0.14,0.61,0.02C397.43,50.84,397.83,50.73,397.65,50.65z"/>
							<path class="st3" d="M401.05,51.21c-0.3-0.04-0.32-0.11-0.5-0.2l-0.01,0.39L401.05,51.21z"/>
							<path class="st3" d="M397.89,51.58c-0.09,0.13-1.5,0.59-0.16,0.32C397.83,51.76,398.89,51.52,397.89,51.58z"/>
							<polygon class="st3" points="382.29,56.6 382.52,56.44 382.16,55.91 							"/>
							<path class="st3" d="M372.64,67.22c0.92-0.87-0.12-0.48,0.76-1.23c0.07-0.33-0.72,0.62-0.63,0.3
								C372.41,66.98,372.08,67.23,372.64,67.22z"/>
							<path class="st3" d="M372.78,66.29c0.06-0.11,0.12-0.23,0.18-0.36C372.84,66.12,372.8,66.22,372.78,66.29z"/>
							<polygon class="st3" points="443.65,79.74 443.54,78.86 443.49,79.47 							"/>
							<path class="st3" d="M442.73,78.27l0.33-0.32l-0.5-0.38C442.64,77.75,442.78,78.1,442.73,78.27z"/>
							<path class="st3" d="M371.82,112.91l-0.11,0.01c-0.02,0.16,0.08,0.33,0.27,0.65L371.82,112.91z"/>
							<polygon class="st3" points="378.97,121.02 378.84,120.89 378.87,121.41 							"/>
							<path class="st3" d="M386.89,125.46c-0.34-0.14-0.75-0.28-1.07-0.48C386.54,125.33,386.79,125.91,386.89,125.46z"/>
						</g>
					</g>
				</g>
			</g>
		</g>
		<g>
			<g>
				<g>
					<g>
						<g>
							<path class="st3" d="M431.86,67.19c0.1-0.01-0.02-0.25-0.02-0.3C431.7,67,431.89,67.25,431.86,67.19z"/>
							<polygon class="st3" points="430.5,68.29 430.5,68.17 430.35,68.5 							"/>
							<path class="st3" d="M429.05,68.78c0.28,0.38,0.5-0.25,0.81-0.19l0.08,0.08l0-0.38C429.64,68.45,429.31,68.82,429.05,68.78z"
								/>
							<path class="st3" d="M427.96,68.12c0.1,0.15-0.12,0.2,0.2-0.01c-0.02-0.01-0.03-0.02-0.05-0.03
								C428.08,68.09,428.04,68.11,427.96,68.12z"/>
							<path class="st3" d="M428.12,68.08C428.26,68.02,427.97,67.98,428.12,68.08L428.12,68.08z"/>
							<path class="st3" d="M427.44,68.42l0.15-0.22c-0.08-0.08-0.26-0.04-0.22-0.14C427.19,68.21,427.27,68.3,427.44,68.42z"/>
							<path class="st3" d="M427.36,68.79l0.08-0.1C427.41,68.66,427.38,68.65,427.36,68.79z"/>
							<path class="st3" d="M427.62,68.49l-0.18,0.21c0.05,0.06,0.1,0.2,0.09-0.08C427.55,68.74,427.55,68.61,427.62,68.49z"/>
							<path class="st3" d="M427.76,68.51c0.14,0.05,0.31,0.06,0.16,0.28C428.29,68.6,428.13,68.32,427.76,68.51z"/>
							<path class="st3" d="M429.13,69.24l0.19,0.07l0.08-0.19C429.36,69.22,429.07,69.11,429.13,69.24z"/>
							<path class="st3" d="M426.11,68.63c0.02,0.1,0.15,0.22,0.21,0.33l0.11-0.16C426.33,68.76,426.17,68.76,426.11,68.63z"/>
							<path class="st3" d="M426.32,68.95l-0.17,0.23C426.36,69.14,426.37,69.05,426.32,68.95z"/>
							<polygon class="st3" points="427.48,69.28 427.74,68.83 427.42,69.31 							"/>
							<polygon class="st3" points="425.26,68.9 425.32,68.65 425.2,69.05 							"/>
							<path class="st3" d="M424.71,69.13c0.03-0.21-0.23-0.25-0.17-0.39c-0.14,0.08-0.22,0.28-0.29,0.45
								C424.35,69.08,424.49,69.05,424.71,69.13z"/>
							<path class="st3" d="M424.12,69.46c0.05-0.06,0.09-0.16,0.13-0.26C424.2,69.26,424.15,69.34,424.12,69.46z"/>
							<path class="st3" d="M425.76,69.27c-0.04-0.05-0.12-0.18-0.26-0.2l0.17,0.22C425.69,69.29,425.73,69.28,425.76,69.27z"/>
							<path class="st3" d="M425.67,69.3L425.67,69.3c-0.1,0.02-0.17,0.04-0.2,0.04C425.5,69.34,425.56,69.33,425.67,69.3z"/>
							<path class="st3" d="M425.78,69.26c-0.01,0-0.01,0-0.02,0.01C425.77,69.29,425.78,69.3,425.78,69.26z"/>
							<path class="st3" d="M426.82,69.25c-0.08,0.19-0.3,0.43,0.04,0.56C426.89,69.6,426.7,69.53,426.82,69.25z"/>
							<path class="st3" d="M426,69.55l0.26-0.02c-0.03-0.07-0.1-0.15-0.06-0.24L426,69.55z"/>
							<polygon class="st3" points="425.91,69.67 426,69.55 425.9,69.55 							"/>
							<path class="st3" d="M424.61,69.56c-0.06,0.15-0.17,0.19-0.29,0.25c0.15,0,0.3-0.02,0.43-0.06
								C424.74,69.66,424.75,69.5,424.61,69.56z"/>
							<path class="st3" d="M425.13,69.46c0,0.01-0.01,0.01-0.02,0.02C425.14,69.5,425.15,69.5,425.13,69.46z"/>
							<path class="st3" d="M423.07,70.24c0.01,0.01,0.02,0.03,0.04,0.04c0-0.02-0.01-0.03-0.01-0.05L423.07,70.24z"/>
							<path class="st3" d="M424.79,69.79c0.12,0.01,0.16-0.07,0.19-0.17c-0.07,0.05-0.14,0.1-0.23,0.13
								C424.75,69.79,424.76,69.81,424.79,69.79z"/>
							<path class="st3" d="M423.82,69.7c0.07,0.04,0.15,0.06,0.22,0.08C423.96,69.71,423.81,69.62,423.82,69.7z"/>
							<path class="st3" d="M425.06,69.42c0-0.01,0.01-0.01,0.01-0.02C425.02,69.36,425.03,69.39,425.06,69.42z"/>
							<path class="st3" d="M425.06,69.42c-0.04,0.05-0.06,0.13-0.08,0.2c0.05-0.04,0.1-0.09,0.14-0.14
								C425.1,69.47,425.07,69.44,425.06,69.42z"/>
							<path class="st3" d="M423.26,72c-0.06-0.24,0.13-0.55,0.45-0.38c0.17-0.25-0.25-0.98-0.6-1.35c0.03,0.11,0.06,0.2-0.12,0.42
								c0.13,0.1,0.62,0.12,0.5,0.41c-0.27,0.23-0.28,0-0.47-0.07c0.23,0.25-0.25,0.56-0.03,0.97l0.22-0.25
								C423.22,71.82,423.16,71.97,423.26,72z"/>
							<path class="st3" d="M423.56,70.15l0.09-0.06c-0.12,0-0.23-0.07-0.44-0.21c-0.12,0.17-0.12,0.27-0.11,0.35l0.48-0.13
								L423.56,70.15z"/>
							<path class="st3" d="M424.08,69.94c0.01,0.28-0.18,0.47,0.06,0.7c0.28-0.11,0.12-0.28,0.25-0.45
								c-0.43,0.22,0.08-0.19-0.3-0.22c0.07-0.07,0.15-0.12,0.22-0.15c-0.09,0-0.18-0.01-0.28-0.04c0.01,0,0.01,0.01,0.02,0.01l0,0
								c0,0,0,0,0,0c0.03,0.03,0.04,0.04,0.02,0.03c0,0-0.01,0.01-0.01,0.01C424.07,69.87,424.08,69.9,424.08,69.94
								c-0.15-0.01-0.04-0.06-0.01-0.11c0-0.01,0-0.03-0.01-0.04c0,0,0,0,0,0l-0.41,0.3C423.76,70.09,423.87,70.04,424.08,69.94z"/>
							<path class="st3" d="M426.81,70.44c-0.02-0.02-0.03-0.04-0.03-0.05C426.75,70.43,426.75,70.46,426.81,70.44z"/>
							<path class="st3" d="M426.57,70.35c0.02-0.05,0.01-0.16,0.13-0.17c0.12,0.05,0.04,0.12,0.08,0.21
								c0.04-0.09,0.16-0.26-0.08-0.32l-0.02,0.05c-0.21-0.03-0.56-0.27-0.54-0.31C426.26,70.02,426.37,70.17,426.57,70.35z"/>
							<path class="st3" d="M425.33,70.21L425,70.47l0.27,0.16l-0.06-0.13C425.44,70.48,425.34,70.33,425.33,70.21z"/>
							<polygon class="st3" points="422.99,70.12 422.94,69.83 422.86,70.29 							"/>
							<polygon class="st3" points="422.5,70.32 422.44,70.08 422.36,70.27 							"/>
							<path class="st3" d="M395.7,82.78l-0.09,0.11C395.65,82.84,395.68,82.81,395.7,82.78z"/>
							<path class="st3" d="M396.51,82.52l-0.02-0.12C396.47,82.47,396.48,82.52,396.51,82.52z"/>
							<path class="st3" d="M410.41,74.5c-0.24-0.16-0.54-0.44-0.43-0.19l0.14,0.24C410.22,74.47,410.32,74.47,410.41,74.5z"/>
							<path class="st3" d="M402.65,78.88c0.02,0.02,0.05,0.04,0.07,0.06c0.01-0.1,0.02-0.2,0.02-0.28
								C402.72,78.73,402.69,78.8,402.65,78.88z"/>
							<path class="st3" d="M402.9,79.99l-0.27-0.09C402.7,79.94,402.79,79.97,402.9,79.99z"/>
							<path class="st3" d="M391.39,84.56l-0.04,0.31C391.55,84.8,391.41,84.7,391.39,84.56z"/>
							<path class="st3" d="M417.49,72.15c-0.17-0.05-0.3-0.06-0.4-0.04C417.31,72.2,417.52,72.38,417.49,72.15z"/>
							<path class="st3" d="M395.07,79.92c-0.05,0.07-0.06,0.13-0.04,0.19C395.09,80.04,395.11,79.98,395.07,79.92z"/>
							<path class="st3" d="M416.68,72.25c0.03,0.02,0.06,0.02,0.09,0.04c0.09-0.08,0.18-0.15,0.31-0.17
								C416.92,72.04,416.76,72.02,416.68,72.25z"/>
							<path class="st3" d="M375.33,89.82c-0.02-0.01-0.03-0.01-0.05-0.02C375.29,89.84,375.31,89.83,375.33,89.82z"/>
							<path class="st3" d="M369.78,88.8c0.04-0.03,0.11-0.06,0.18-0.09C369.93,88.71,369.87,88.73,369.78,88.8z"/>
							<path class="st3" d="M420.48,70.89C420.58,70.84,420.49,70.86,420.48,70.89L420.48,70.89z"/>
							<path class="st3" d="M421.34,71.74c-0.01,0.04-0.02,0.08,0,0.14C421.33,71.82,421.33,71.77,421.34,71.74z"/>
							<path class="st3" d="M416.19,74.22C416.19,74.22,416.19,74.22,416.19,74.22C416.23,74.26,416.22,74.25,416.19,74.22z"/>
							<path class="st3" d="M420.68,70.95c-0.05-0.02-0.1-0.03-0.16-0.03C420.55,70.94,420.6,70.95,420.68,70.95z"/>
							<path class="st3" d="M420.62,70.84c0.04,0,0.07,0,0.1-0.01C420.72,70.79,420.69,70.76,420.62,70.84z"/>
							<path class="st3" d="M420.34,70.95c0.06-0.02,0.12-0.03,0.18-0.03c-0.03-0.01-0.04-0.02-0.04-0.03
								C420.45,70.9,420.41,70.92,420.34,70.95z"/>
							<path class="st3" d="M383.66,86.19c-0.01-0.01-0.02-0.01-0.03-0.02C383.56,86.32,383.6,86.29,383.66,86.19z"/>
							<path class="st3" d="M408.61,78.12c0,0,0-0.01,0.01-0.02c-0.01,0-0.01,0-0.02,0L408.61,78.12z"/>
							<path class="st3" d="M408.3,78.44c0.05-0.38,0.15-0.37,0.3-0.34l-0.38-0.7L408.3,78.44z"/>
							<path class="st3" d="M393.79,83.51l0.34,0.14c-0.19,0.49-0.46,0.44-0.1,0.68c-0.24-0.82,1-0.43,0.76-1.26l0.23,0.11
								c-0.05,0.01-0.04,0.06-0.1,0.07c0.47,0.27,0.05-0.67,0.53-0.71c0.17,0.01,0.32,0.09,0.25,0.22l0.27-0.32
								c0.1-0.02,0.13,0.13,0.02,0.15l0.49-0.24l0,0.03c0.03-0.15,0.13-0.41,0.18-0.52c0.17,0.07-0.04,0.11,0.03,0.2l0.22-0.29
								c0.19,0.17,0.02,0.46-0.19,0.49c0.54,0.72,0.17-0.28,0.9-0.01l-0.23,0.19c0.33,0.4,0.48,0.16,0.89,0.34
								c-0.12-0.12-0.86-0.51-0.62-0.82c0.11,0.03,0.23,0.02,0.34-0.2c0.1,0.29,0.24,0.16,0.44,0.07l0.12,0.39
								c0.18-0.19,0.1-0.37,0.17-0.59c0.26-0.05,0.41,0.23,0.55,0.46c0.42-0.07-0.43-0.38,0.01-0.61c0.38,0.03,0.55-0.2,0.87-0.56
								c0.27,0.05,0.04,0.25,0.16,0.33l0.1-0.37c0.05-0.01,0.07,0.09,0.08,0.14c0.13-0.18-0.12-0.39,0.12-0.58
								c-0.07-0.45,0.76,0.42,0.93-0.17c0.12,0.08,0.04,0.25,0.12,0.39c0.35-0.47,0.31-0.36,0.55-0.91l0.41,0.14
								c-0.33-0.21-0.15-0.65,0.02-1.02c-0.13-0.11-0.24-0.21-0.31-0.25l0.35-0.35c0.07,0.05,0.07,0.19,0.06,0.37
								c0.02-0.04,0.03-0.08,0.05-0.12c0.2,0.09,0.2,0.34,0.16,0.59c-0.08-0.06-0.16-0.12-0.23-0.18c-0.02,0.27-0.03,0.56,0.06,0.77
								c0.01-0.05,0.05-0.11,0.1-0.15c-0.01,0.07,0,0.13,0.02,0.17c0.03,0.04,0.04-0.06,0.08-0.19l0.24,0.39l-0.03-0.18l0.64,0.08
								c0.25-0.56,0.37-1.31,0.94-1.7c-0.05,0.36,0.14,0.52,0.26,0.89c-0.3-0.33-0.43,0.33-0.78,0.36c0.18-0.02,0.21,0.17,0.18,0.25
								l0.46-0.55c0.09,0.31,0.2,0.18,0.39,0.26c-0.32-0.56,0.29-0.55,0.47-0.81c0.08,0.2,0.1,0.42-0.21,0.47
								c0.47,0.34,0.17-0.84,0.61-0.57c-0.07,0.03-0.12,0.01-0.11,0.12c0.1-0.23,0.55-0.23,0.52-0.02l-0.07,0.03
								c0.49-0.09,1.41-0.48,1.31-1.01c0.03,0.06,0.15,0.63,0.16,0.74l0.24-1.99c0.08,0.46,0.71,1.4,0.41,1.78
								c0.13,0.02,0.29,0.05,0.47-0.18c-0.1-0.04-0.4-0.57-0.31-0.64c0.45,0.39,0.29,0.19,0.78,0.49c-0.14-0.05-0.25-0.78-0.07-0.82
								c0.01,0.11,0.25,0.67,0.2,0.76l0.21-0.82c-0.07,0.16,0.18,0.58,0.34,0.73c-0.09-0.12,0.39-0.12,0.48-0.23l-0.24-0.09
								c0.54-0.07,0.17-1.11,0.68-1.25c-0.01,0.16,0.14,0.9,0.43,0.9c0-0.38-0.05-1.83,0.3-2.24l0.15,0.17l0.26-0.34
								c-0.03,0.59-0.25,1.88-0.43,2.41c0.24,0.09,0.13,0.21,0.41,0.1c0.16,0.15-0.06,0.33-0.14,0.37l0.7-0.11
								c-0.17-0.39,0.36-0.57,0.22-0.9l-0.57,0.66c-0.17-0.39,0.02-1.28,0.51-1.37c0.17,0.12,0.16,0.74,0.21,0.87
								c0.01-0.16,0.35-0.41,0.43-0.33l-0.12,0.28c0.31,0.06,0.24-0.68,0.68-0.4c0.12-0.01,0.5,0.41,0.43,0.16
								c-0.33-0.4-0.85-1.8-0.85-2.19c0.05,0.02,0.71,0.24,0.91,0.43c0.3,0.3,0.03,0.95,0.28,1.2c-0.03-0.11,0.02-0.28,0.05-0.34
								c0.14,0.06,0.07,0.36,0.3,0.22c-0.1-0.42,0.51-0.14,0-0.38c0.2-0.2,0.28,0,0.56-0.12c-0.18-0.23-0.05-0.98,0.15-1.18
								c0.02,0.11,0.12,0.22,0.17,0.28c0.5-0.13,0.83-0.04,1.29-0.19c0.08,0.08,0.34,0.13,0.3,0.33c0.04-0.09,0.05-0.25,0.19-0.31
								c0.39,0.26-0.3,0.16,0.06,0.51c-0.06-0.24,0.25-0.45,0.4-0.67c-0.19-0.34-0.49,0.09-0.64,0.31c-0.17-0.5,0-1.15,0.39-1.55
								c0.34-0.26,0.28,0.27,0.32,0.17c0.74-0.16,0.31-1.09,1.02-0.93c0.34,0.24,0.23,0.63,0.36,0.85
								c-0.27,0.23-0.54-0.04-0.75,0.04l0.31,0.06c-0.06,0.14-0.24,0.29-0.38,0.24c0.3,0.22,1.22-0.36,1.87-0.28
								c0.06-0.14,0.19-0.31,0.07-0.41l-0.16,0.1c-0.25-0.2,0.21-0.47-0.06-0.52c0.17-0.26,0.34-0.64,0.71-0.6l0.19,0.34
								c-0.04-0.1-0.29-0.14-0.34,0c0.08-0.21,0.67,0.32,0.66-0.21l-0.32-0.17c0.17-0.26,0.33-0.75,0.66-0.74
								c-0.26-0.32-0.05,0.06-0.4-0.29c0.36,0.46-0.75,0.23-0.28,0.69c-0.38-0.42-0.44-0.08-0.86-0.41c0.05,0.12,0.18,0.2-0.09,0.22
								c0,0.04-0.01,0.09-0.02,0.12c-0.01,0-0.01,0-0.02,0c0.01,0,0.01,0.01,0.02,0.01c0,0.02,0,0.03,0.01,0
								c0.08,0.03,0.15,0.08,0.19,0.14c-0.03,0.32-0.42,0.44-0.5,0.63c-0.16-0.01,0.01-0.16-0.11-0.26l-0.12,0.28
								c-0.11-0.26-0.54-0.31-0.25-0.59l-0.31,0.09c-0.23-0.09-0.5-0.06-0.62,0.1c-0.16-0.01-0.27,0.42-0.21,0.17l-0.43,0.33
								l-0.03-0.07c-0.49,0.13-0.83,0.78-1.54,0.48c-0.14,0.12-0.27,0.26-0.57,0.28l-0.13-0.21c-0.18,0.15-0.7-0.02-0.7,0.25
								c-0.44-0.55-1.05,0.21-1.45,0.22l0.09,0.31c-0.25,0.07-0.46,0.24-0.73,0.46l0.11,0.26c-0.19,0.31-0.75,0.04-1.16,0.22
								c-0.01-0.11,0.11-0.12,0.21-0.09c-0.71-0.43-0.91,0.8-1.52,0.52c-0.08,0.14-0.17,0.13-0.28,0.09c0.01,0,0.02-0.01,0.02-0.02
								c-0.01,0-0.03,0.01-0.05,0.01c-0.07-0.03-0.14-0.06-0.21-0.09c0.07,0.05,0.13,0.09,0.18,0.1c-0.09,0.04-0.21,0.11-0.32,0.23
								l-0.15-0.27c-0.01,0.01-0.02,0.01-0.03,0.02c-0.16-0.06-0.06,0.17,0.09,0.36c-0.05,0.07-0.09,0.15-0.11,0.23
								c-0.26-0.43-0.29,0.27-0.6-0.17c-0.01,0.27-0.59,0.41-0.49,0.94c-0.03-0.06-0.08-0.08-0.01-0.11
								c-0.17-0.01-0.33-0.02-0.41,0.17l-0.19-0.34l-0.15,0.6c-0.27-0.16-0.39-0.26-0.3-0.61c-0.31,0.59-0.32,0.29-0.57,0.85
								l-0.06-0.24c-0.14,0.06-0.25,0.45-0.41,0.28c-0.47-0.34-1.58,0.47-2.53,0.33c0.4,0.64-0.48-0.18-0.33,0.37
								c-0.1-0.15-0.25-0.2-0.17-0.39c-0.36,0.3-0.71-0.05-0.84,0.5c-0.1-0.15,0.01-0.27-0.07-0.35c-0.02,0.05-0.08,0.19-0.16,0.1
								c-0.08-0.08,0.01-0.16,0.05-0.25c-0.41,0.17-0.28,0.69-0.15,1.18c-0.29-0.15-0.39-0.08-0.43,0.28
								c-0.13-0.13-0.31-0.25-0.06-0.4c-0.16,0.03-0.98,0.08-0.86,0.47c-0.08-0.08-0.22,0.04-0.24,0.1
								c-0.34,0.09-0.38,0.07-0.69,0.21l0.11,0.03c0.03,0.5-0.23,0.2-0.48,0.34l-0.01-0.05c-0.71-0.13-0.2,0.25-0.93,0.07l0.13,0.28
								c0.16,0.63-0.65-0.18-0.91,0.17l0.18,0.12c-0.12,0.27-0.81-0.66-1.03-0.67c-0.06-0.04,0.04-0.11,0.08-0.17
								c-0.62-0.19,0.06,0.4-0.27,0.61c-0.14-0.18-0.09-0.54-0.35-0.5c-0.18-0.12-0.49,0.9-0.96,0.63c0.13,0.13,0.25,0.26,0.12,0.44
								c-0.24,0.15-0.91-0.35-0.98,0.23c-0.05-0.03-0.07-0.07-0.09-0.11c-0.16,0.2-0.58,0.43-0.61,0.74
								c-0.52-0.92-1.08,0.91-1.39-0.01l-0.6,0.26l-0.02-0.1c-0.41,0.07-0.48,0.34-0.54,0.61c-0.11-0.03-0.08-0.14-0.08-0.19
								c-0.64,0.01-0.68,0.07-1.01,0.69l-0.15-0.28c-0.07,0.22-0.99-0.18-1.44,0.36c-0.01-0.04-0.01-0.1,0.02-0.15
								c-0.52,0.56-1.8-0.3-1.66,0.86l-0.33,0.41c0.57-0.1,0.08,0.5,0.36,0.6c-0.19,0.14-0.66-0.14-0.42-0.28l0.06,0.04
								c-0.1-0.59-0.74,0.03-0.86-0.36c-1.06,0.39-2.2,0.44-3.21,0.76l0.26,0.4l-0.36,0.09c-0.13-0.07-0.24-0.3,0.01-0.37
								c-0.22-0.2-0.35,0.35-0.32,0.45c-0.55-0.01,0.02-0.57-0.14-0.53l-0.19,0.1l0.06,0.04c-0.1,0.23-0.05,0.43-0.36,0.51
								c-0.22-0.02-0.19-0.24-0.27-0.23c-0.01-0.03-0.04-0.04-0.12,0.03l-0.45,0.11l0.29,0.28c-0.14,0.24-0.42,0.12-0.08,0.44
								c-0.5-0.5-1.71,0.34-1.96,0.22c-0.19,0.34-0.46,0.43-0.8,0.52c0.11,0.04,0.29,0.41-0.01,0.46c-0.17-0.84-0.64-0.17-1.07-0.66
								c0.34,0.31-0.78,0.37-0.27,0.8c-0.26,0.02-0.12-0.29-0.36-0.42c-0.46,0.51-1.33,0.23-1.99,0.58c0.03,0.11,0.2,0.23,0.1,0.44
								l-0.55-0.4c-0.12,0.1,0.08,0.65-0.3,0.37c0.07,0.08,0.17,0.19,0.08,0.26c-1.56-0.04-2.68,1.39-4.41,0.9
								c0.26,0.14,0.14,0.2,0,0.26c0.11,0.02,0.09,0.26,0.15,0.4l-0.72-0.19c0.03,0.43-0.62,0.24-0.55,0.64l0.16-0.13
								c-0.09,0.53,0.68,0.87,0.84,1.46c0.1-0.6,0.99,0.5,1.19-0.38c0.14,0.08-0.02,0.21,0.08,0.33c0.03-0.28,0.15-0.38,0.45-0.36
								l-0.01,0.07c0.7-0.31,1.1-0.17,1.96-0.29l-0.16-0.26c0.19-0.02,0.25,0.05,0.36,0.1c0.05-0.5-0.5,0.14-0.48-0.39
								c0.43,0.5,1.24-0.41,1.62,0.19c0.27-0.09-0.19-0.3,0.08-0.39l0.13,0.15l-0.01-0.25c0.19-0.02,0.35,0.17,0.41,0.32
								c-0.05,0-0.11,0.08-0.15,0.11c0.3,0.13,0.62-0.29,0.72-0.25l-0.3-0.02c0.68-0.42,1.65-0.49,2.24-1.09l-0.1-0.11
								c0.46-0.43,0.48,0,1.04-0.32l-0.01,0.04c0.07-0.17,0.21-0.3,0.38-0.34c-0.1,0.21,0.39,0.21,0.25,0.45
								c0.5-0.47,0.22-0.31,0.44-0.94l0.17,0.19c0.06-0.25,0.04-0.36,0.32-0.51c-0.18,0.27,0.3,0.27,0.12,0.62
								c0.79,0.27,0.76-0.81,1.29-0.2c0.08-0.71-0.66-0.16-0.54-0.34c-0.2-0.15,0.08-0.54,0.3-0.54c0.2-0.05,0.61,0.67,1.1,0.48
								c-0.05,0.01-0.04,0.06-0.09,0.08c0.24,0.09,0.29-0.34,0.61-0.16c0-0.41,0.31-0.08,0.18-0.57l-0.42,0.27
								c0.22-0.21,0.27-0.85,0.79-0.73c0,0.11-0.09,0.28-0.15,0.38c0.17,0.1,0.21-0.17,0.39-0.08c0.12,0.49-0.52,0.29-0.68,0.75
								c0.2,0.15,0.41-0.52,0.45,0.04c-0.02-0.72,0.52-0.09,0.69-0.7l0.07,0.29c0.04-0.06,0.1-0.23,0.2-0.26l-0.05,0.43
								c0.17-0.41,0.62,0.09,0.83-0.17c-0.55,0.2-0.24-0.3-0.54-0.43c0.55-0.61,0.64,0.61,1.36,0.21c-0.09,0.08-0.44-0.04-0.33-0.22
								c0.16,0.01,0.39,0.05,0.53,0.17c0.48-0.23-0.18-0.27-0.02-0.51c0.29,0.29,0.2-0.23,0.38-0.41l0.1,0.29
								c0.64-0.01-0.05-0.65,0.54-0.61l-0.08,0.47l0.23-0.2l0.06,0.35c0.21-0.34,0.32-0.31,0.64-0.32
								c-0.14-0.18-0.14-0.53,0.11-0.63c0.23,0.11,0,0.31,0.34,0.14c-0.02,0.21-0.03,0.46-0.28,0.25c0.02,0.1-0.02,0.21,0,0.31
								c0.25,0.13,0.48-0.12,0.61-0.16c-0.05,0.01-0.12,0.01-0.16-0.02l0.39-0.58c0.12,0.08,0.08,0.19,0.05,0.3
								c0.1-0.07,0.12-0.23,0.27-0.3c0.04,0.25,0.13,0.49-0.05,0.67l0.41-0.43c0.07,0.09,0.35,0.19,0.32,0.3
								c0.32,0.04,0.52-0.69,0.95-0.63c0-0.05,0.03-0.11,0.09-0.17c0.36-0.07,0.77,0.12,1.06-0.34l0.37,0.34
								c0.29-0.2-0.49-0.42-0.02-0.76c0.33-0.26,0.26,0.31,0.44,0.38c0.11-0.28,0.29-0.82,0.76-0.59
								C394,83.48,393.89,83.45,393.79,83.51z M397.67,81.98c-0.06,0.09-0.14,0.33-0.26,0.17C397.38,81.79,397.5,81.93,397.67,81.98
								z M403.42,79.24c-0.02,0.11-0.13,0.1-0.26,0.02C403.22,79.21,403.3,79.19,403.42,79.24z M419.42,71.52c0,0.01,0,0.01,0,0.02
								C419.21,71.48,419.28,71.5,419.42,71.52z M419.81,71.52c0.02-0.05,0.01-0.09-0.02-0.13c0,0.08-0.08,0.11-0.17,0.12
								C419.67,71.58,419.73,71.62,419.81,71.52z M381.88,84.64l0.09,0.05C381.85,84.83,381.86,84.74,381.88,84.64z"/>
							<path class="st3" d="M402.88,79.86c-0.04-0.04-0.06-0.09-0.09-0.15C402.78,79.77,402.79,79.83,402.88,79.86z"/>
							<path class="st3" d="M391.39,84.5c0,0-0.01,0-0.01,0c0,0.02,0,0.04,0.01,0.06L391.39,84.5z"/>
							<path class="st3" d="M415.17,75.84c-0.09-0.02-0.15-0.05-0.19-0.1C415,75.81,415.05,75.86,415.17,75.84z"/>
							<path class="st3" d="M421.52,70.39l-0.2,0.15c0.1-0.05,0.17,0,0.24,0.02C421.53,70.5,421.45,70.42,421.52,70.39z"/>
							<path class="st3" d="M424.1,71.5c0.02-0.05,0.07-0.03,0.09-0.07l-0.05-0.13C423.99,71.35,423.93,71.49,424.1,71.5z"/>
							<path class="st3" d="M422.06,71.27c0.1,0.24,0.21,0.11,0.36,0.01c-0.01,0-0.02,0.01-0.03,0.01
								C422.32,70.94,422.19,71.11,422.06,71.27z"/>
							<path class="st3" d="M422.45,71.26c0.05-0.03,0.09-0.05,0.14-0.06C422.57,71.06,422.53,71.2,422.45,71.26z"/>
							<path class="st3" d="M420.21,71.21c0.1,0.04-0.06-0.33,0.02-0.24C420.2,70.63,419.85,71.51,420.21,71.21z"/>
							<polygon class="st3" points="422.46,72.03 422.3,71.75 422.29,72.02 							"/>
							<path class="st3" d="M421.13,72.24l0.28,0c-0.02-0.05,0-0.09,0.03-0.12C421.29,72.15,421.09,72.15,421.13,72.24z"/>
							<path class="st3" d="M421.45,72.11c0.08-0.02,0.16-0.06,0.19-0.12C421.59,72.01,421.5,72.05,421.45,72.11z"/>
							<polygon class="st3" points="422.14,72.24 422.05,72.2 421.86,72.24 							"/>
							<path class="st3" d="M418.39,73.11l-0.25,0.18c0.01,0.11,0.1,0.15,0.19,0.07C418.37,73.27,418.46,73.2,418.39,73.11z"/>
							<path class="st3" d="M419.5,73.65c-0.1-0.04-0.12-0.1-0.2-0.19l0.12,0.37L419.5,73.65z"/>
							<path class="st3" d="M418.73,74.01c0.01,0.11-0.3,0.43,0.04,0.29C418.76,74.19,419.01,74.01,418.73,74.01z"/>
							<polygon class="st3" points="414.4,74.97 414.46,74.94 414.25,74.33 							"/>
							<path class="st3" d="M411.22,77.68c0.38,0.03-0.05-0.4,0.31-0.32c0.03-0.17-0.29-0.07-0.26-0.22
								C411.12,77.36,410.99,77.31,411.22,77.68z"/>
							<path class="st3" d="M411.27,77.14c0.02-0.03,0.05-0.08,0.07-0.13C411.3,77.07,411.28,77.11,411.27,77.14z"/>
							<polygon class="st3" points="368.9,88.74 368.64,88.69 368.85,88.84 							"/>
							<path class="st3" d="M368.65,89.33l-0.18-0.37l-0.01,0.39C368.5,89.32,368.58,89.25,368.65,89.33z"/>
							<path class="st3" d="M398.52,82.56l-0.02-0.1c-0.07-0.09-0.12-0.08-0.22-0.06L398.52,82.56z"/>
							<polygon class="st3" points="395.56,83.25 395.61,83.24 395.4,82.92 							"/>
							<path class="st3" d="M393.31,84.52c0.1-0.02,0.19-0.14,0.29-0.15C393.42,84.5,393.14,84.09,393.31,84.52z"/>
						</g>
					</g>
				</g>
			</g>
		</g>
		<text transform="matrix(0.9461 -0.324 0.324 0.9461 375.7346 102.1615)" class="st4 st5 st6">11.21 11.22</text>
	</g>
</g>
<g>
	<polygon class="st7" points="34.34,67.2 53.75,67.48 51.13,75.52 36.24,75.31 	"/>
	<polyline class="st7" points="71.09,68.42 62.72,68.3 55.98,60.56 68.21,60.73 	"/>
	<polyline class="st7" points="72.17,44.15 65.18,44.05 58.92,51.61 69.14,51.76 	"/>
	
		<ellipse transform="matrix(6.257141e-03 -1 1 6.257141e-03 -11.2457 101.4201)" class="st8" cx="45.41" cy="56.37" rx="12.29" ry="26.99"/>
	
		<ellipse transform="matrix(9.227389e-03 -1 1 9.227389e-03 -11.3793 101.2516)" class="st9" cx="45.41" cy="56.37" rx="10.12" ry="26.99"/>
	
		<ellipse transform="matrix(0.0108 -0.9999 0.9999 0.0108 -11.4404 101.1724)" class="st8" cx="45.41" cy="56.37" rx="8.58" ry="26.98"/>
	
		<ellipse transform="matrix(0.0126 -0.9999 0.9999 0.0126 -11.5463 101.0429)" class="st9" cx="45.39" cy="56.37" rx="5.96" ry="26.97"/>
	
		<ellipse transform="matrix(0.0138 -0.9999 0.9999 0.0138 -11.5728 101.0033)" class="st9" cx="45.42" cy="56.37" rx="3.07" ry="26.97"/>
	<g>
		<path class="st9" d="M37.5,72.18l1.67,0.02c0.19,0,0.34-0.14,0.35-0.31l0.04-0.93c0.01-0.18-0.14-0.32-0.32-0.32l-1.67-0.02
			c-0.19,0-0.34,0.14-0.35,0.31l-0.04,0.93C37.17,72.03,37.31,72.18,37.5,72.18z"/>
		<path class="st9" d="M44.96,72.28l1.67,0.02c0.19,0,0.34-0.14,0.35-0.31l0.04-0.93c0.01-0.18-0.14-0.32-0.32-0.32l-1.67-0.02
			c-0.19,0-0.34,0.14-0.35,0.31l-0.04,0.93C44.63,72.14,44.78,72.28,44.96,72.28z"/>
		<path class="st9" d="M48.69,72.34l1.67,0.02c0.19,0,0.34-0.14,0.35-0.31l0.04-0.93c0.01-0.18-0.14-0.32-0.32-0.32l-1.67-0.02
			c-0.19,0-0.34,0.14-0.35,0.31l-0.04,0.93C48.36,72.19,48.51,72.34,48.69,72.34z"/>
		<path class="st9" d="M41.23,72.23l1.67,0.02c0.19,0,0.34-0.14,0.35-0.31l0.04-0.93c0.01-0.18-0.14-0.32-0.32-0.32l-1.67-0.02
			c-0.19,0-0.34,0.14-0.35,0.31l-0.04,0.93C40.9,72.08,41.04,72.23,41.23,72.23z"/>
	</g>
	<polygon class="st8" points="77.08,55.85 76.99,57.85 63.98,56.96 64.02,56.3 	"/>
</g>
<rect class="st3" width="457.89" height="21.34"/>
<text transform="matrix(1 0 0 1 9.0182 15.1773)" class="st0 st5 st10">ONLINE RIDAISAI</text>
<line class="st11" x1="81.58" y1="56.37" x2="367.8" y2="56.37"/>
<polygon class="st0" points="164.32,166.61 158.02,162.98 158.02,170.24 "/>
<polygon class="st0" points="381.08,168.38 374.79,164.74 374.79,172.01 "/>
<polygon class="st0" points="272.95,166.61 266.65,162.98 266.65,170.24 "/>
</svg>
