<?xml version="1.0" encoding="utf-8"?>
<!-- Generator: Adobe Illustrator 24.1.3, SVG Export Plug-In . SVG Version: 6.00 Build 0)  -->
<svg version="1.1" id="レイヤー_1" xmlns="http://www.w3.org/2000/svg" xmlns:xlink="http://www.w3.org/1999/xlink" x="0px"
	 y="0px" viewBox="0 0 284.29 283.17" style="enable-background:new 0 0 284.29 283.17;" xml:space="preserve">
<style type="text/css">
	.st0{opacity:0.8;}
	.st1{clip-path:url(#SVGID_2_);}
	.st2{fill:#FFFFFF;stroke:#000000;stroke-miterlimit:10;}
	.st3{fill:#00913A;}
	.st4{fill:#1D2088;}
	.st5{fill:#FFFFFF;}
	.st6{display:none;fill:#FFFFFF;}
	.st7{opacity:0.7;fill:#FFF100;}
	.st8{fill:#FFF100;stroke:#000000;stroke-miterlimit:10;}
	.st9{clip-path:url(#SVGID_4_);}
	.st10{clip-path:url(#SVGID_6_);}
</style>
<g>
	<g class="st0">
		<defs>
			<rect id="SVGID_1_" x="25.3" y="43.34" class="st0" width="76.58" height="246.52"/>
		</defs>
		<clipPath id="SVGID_2_">
			<use xlink:href="#SVGID_1_"  style="overflow:visible;"/>
		</clipPath>
		<g class="st1">
			<g>
				<path class="st2" d="M193.5,252.93l68.36,11.61V84.33l-68.36-9.87 M193.5,74.46L28.26,50.59v174.27l165.24,28.07 M252.85,254.08
					L37.27,217.74V60.54l215.58,31.41V254.08z"/>
				<polygon class="st3" points="166.94,79.44 166.94,90.75 37.27,71.65 37.27,60.54 				"/>
				<polygon class="st4" points="166.94,90.75 166.94,105.75 37.27,86.37 37.27,71.65 				"/>
				<polygon class="st5" points="227.59,88.27 227.59,91.89 219.95,90.77 219.95,87.16 				"/>
				<polygon class="st5" points="227.59,113.14 227.59,134.39 219.95,133.23 219.95,112 				"/>
				<polygon points="227.59,134.39 227.59,155.65 219.95,154.46 219.95,133.23 				"/>
				<polygon class="st5" points="227.59,155.65 227.59,176.91 219.95,175.7 219.95,154.46 				"/>
				<polygon points="227.59,176.91 227.59,198.16 219.95,196.92 219.95,175.7 				"/>
				<polygon class="st5" points="227.59,198.16 227.59,219.41 219.95,218.16 219.95,196.92 				"/>
				<polygon points="227.59,219.41 227.59,240.67 219.95,239.39 219.95,218.16 				"/>
				<polygon class="st6" points="227.59,240.67 227.59,249.82 219.95,248.54 219.95,239.39 				"/>
				<polygon class="st3" points="252.85,118.59 252.85,254.08 227.59,249.82 227.59,114.82 				"/>
				<polygon class="st3" points="219.95,113.67 219.95,248.54 185.49,242.73 193.5,135.38 193.5,109.72 				"/>
				<polygon class="st3" points="166.51,142.5 159.32,238.31 37.27,217.74 37.27,122.51 				"/>
				<polygon class="st3" points="166.94,105.75 166.94,131.32 37.27,111.46 37.27,86.37 				"/>
				<polygon class="st7" points="193.5,83.31 193.5,135.38 185.49,242.73 159.32,238.31 166.51,142.5 37.27,122.51 37.27,111.46 
					166.94,131.32 166.94,79.44 				"/>
				<polygon class="st3" points="219.95,87.16 219.95,98.56 193.5,94.66 193.5,83.31 				"/>
				<polygon class="st3" points="252.85,91.95 252.85,103.41 227.59,99.68 227.59,88.27 				"/>
				<polygon class="st4" points="252.85,103.41 252.85,118.59 227.59,114.82 227.59,99.68 				"/>
				<polygon class="st4" points="219.95,98.56 219.95,113.67 193.5,109.72 193.5,94.66 				"/>
				<polygon points="227.59,91.89 227.59,113.14 219.95,112 219.95,90.77 				"/>
				<line class="st8" x1="166.94" y1="142.57" x2="166.51" y2="142.5"/>
			</g>
		</g>
	</g>
	<g class="st0">
		<defs>
			<rect id="SVGID_3_" x="187" y="-0.98" class="st0" width="71.99" height="252.52"/>
		</defs>
		<clipPath id="SVGID_4_">
			<use xlink:href="#SVGID_3_"  style="overflow:visible;"/>
		</clipPath>
		<g class="st9">
			<g>
				<path class="st2" d="M194.54,220.85l64.26,11.4V55.38l-64.26-9.69 M194.54,45.69L39.2,22.26v171.04l155.34,27.55 M250.33,221.99
					L47.68,186.32V32.03l202.65,30.83V221.99z"/>
				<polygon class="st3" points="169.57,50.58 169.57,61.68 47.68,42.93 47.68,32.03 				"/>
				<polygon class="st4" points="169.57,61.68 169.57,76.4 47.68,57.38 47.68,42.93 				"/>
				<polygon class="st5" points="226.58,59.25 226.58,62.8 219.4,61.7 219.4,58.16 				"/>
				<polygon class="st5" points="226.58,83.66 226.58,104.51 219.4,103.37 219.4,82.54 				"/>
				<polygon points="226.58,104.51 226.58,125.38 219.4,124.21 219.4,103.37 				"/>
				<polygon class="st5" points="226.58,125.38 226.58,146.24 219.4,145.05 219.4,124.21 				"/>
				<polygon points="226.58,146.24 226.58,167.1 219.4,165.89 219.4,145.05 				"/>
				<polygon class="st5" points="226.58,167.1 226.58,187.96 219.4,186.73 219.4,165.89 				"/>
				<polygon points="226.58,187.96 226.58,208.82 219.4,207.57 219.4,186.73 				"/>
				<polygon class="st6" points="226.58,208.82 226.58,217.81 219.4,216.54 219.4,207.57 				"/>
				<polygon class="st3" points="250.33,89 250.33,221.99 226.58,217.81 226.58,85.3 				"/>
				<polygon class="st3" points="219.4,84.18 219.4,216.54 187.01,210.84 194.54,105.49 194.54,80.3 				"/>
				<polygon class="st3" points="169.16,112.47 162.4,206.51 47.68,186.32 47.68,92.85 				"/>
				<polygon class="st3" points="169.57,76.4 169.57,101.49 47.68,82.01 47.68,57.38 				"/>
				<polygon class="st7" points="194.54,54.37 194.54,105.49 187.01,210.84 162.4,206.51 169.16,112.47 47.68,92.85 47.68,82.01 
					169.57,101.49 169.57,50.58 				"/>
				<polygon class="st3" points="219.4,58.16 219.4,69.34 194.54,65.52 194.54,54.37 				"/>
				<polygon class="st3" points="250.33,62.86 250.33,74.1 226.58,70.45 226.58,59.25 				"/>
				<polygon class="st4" points="250.33,74.1 250.33,89 226.58,85.3 226.58,70.45 				"/>
				<polygon class="st4" points="219.4,69.34 219.4,84.18 194.54,80.3 194.54,65.52 				"/>
				<polygon points="226.58,62.8 226.58,83.66 219.4,82.54 219.4,61.7 				"/>
				<line class="st8" x1="169.57" y1="112.54" x2="169.16" y2="112.47"/>
			</g>
		</g>
	</g>
	<g class="st0">
		<defs>
			<rect id="SVGID_5_" x="102.34" y="-7.56" class="st0" width="83.38" height="307.74"/>
		</defs>
		<clipPath id="SVGID_6_">
			<use xlink:href="#SVGID_5_"  style="overflow:visible;"/>
		</clipPath>
		<g class="st10">
			<g>
				<path class="st2" d="M193.74,218.79l68.36-13.78V27.91l-68.36,14.5 M193.74,42.41L28.49,77.46v174.65l165.24-33.32
					 M253.08,198.05L37.51,241.63V84.21L253.08,38.6V198.05z"/>
				<polygon class="st3" points="167.18,56.77 167.18,67.98 37.51,95.33 37.51,84.21 				"/>
				<polygon class="st4" points="167.18,67.98 167.18,82.84 37.51,110.07 37.51,95.33 				"/>
				<polygon class="st5" points="227.82,43.94 227.82,47.5 220.19,49.12 220.19,45.56 				"/>
				<polygon class="st5" points="227.82,68.45 227.82,89.39 220.19,90.99 220.19,70.06 				"/>
				<polygon points="227.82,89.39 227.82,110.34 220.19,111.93 220.19,90.99 				"/>
				<polygon class="st5" points="227.82,110.34 227.82,131.29 220.19,132.87 220.19,111.93 				"/>
				<polygon points="227.82,131.29 227.82,152.23 220.19,153.8 220.19,132.87 				"/>
				<polygon class="st5" points="227.82,152.23 227.82,173.18 220.19,174.74 220.19,153.8 				"/>
				<polygon points="227.82,173.18 227.82,194.13 220.19,195.68 220.19,174.74 				"/>
				<polygon class="st3" points="253.08,64.79 253.08,198.05 227.82,203.15 227.82,70.1 				"/>
				<polygon class="st3" points="220.19,71.7 220.19,204.7 185.72,211.66 193.74,102.62 193.74,77.26 				"/>
				<polygon class="st3" points="166.74,119.4 159.55,216.96 37.51,241.63 37.51,146.26 				"/>
				<polygon class="st3" points="167.18,82.84 167.18,108.16 37.51,135.2 37.51,110.07 				"/>
				<polygon class="st7" points="193.74,51.15 193.74,102.62 185.72,211.66 159.55,216.96 166.74,119.4 37.51,146.26 37.51,135.2 
					167.18,108.16 167.18,56.77 				"/>
				<polygon class="st3" points="220.19,45.56 220.19,56.8 193.74,62.38 193.74,51.15 				"/>
				<polygon class="st3" points="253.08,38.6 253.08,49.86 227.82,55.19 227.82,43.94 				"/>
				<polygon class="st4" points="253.08,49.86 253.08,64.79 227.82,70.1 227.82,55.19 				"/>
				<polygon class="st4" points="220.19,56.8 220.19,71.7 193.74,77.26 193.74,62.38 				"/>
				<polygon points="227.82,47.5 227.82,68.45 220.19,70.06 220.19,49.12 				"/>
				<line class="st8" x1="167.18" y1="119.31" x2="166.74" y2="119.4"/>
			</g>
		</g>
	</g>
</g>
</svg>
