<svg id="レイヤー_1" data-name="レイヤー 1" xmlns="http://www.w3.org/2000/svg" width="237.89mm" height="92.24mm" viewBox="0 0 674.33 261.46"><defs><style>.cls-1{fill:#1da0a7;}.cls-2,.cls-3{fill:#38a6d3;}.cls-3{stroke:#fff;stroke-miterlimit:10;stroke-width:0.5px;}.cls-4{fill:#efefef;}.cls-5{fill:#fff;}.cls-6{fill:#339fd1;}.cls-7{opacity:0.87;}.cls-8{fill:#56acb2;}.cls-9{fill:#f9c04f;}.cls-10{fill:#d1d2d2;}.cls-11{opacity:0.74;}.cls-12{opacity:0.81;}.cls-13{opacity:0.55;}</style></defs><polygon class="cls-1" points="80.78 124.27 161.43 138.49 145.8 172.22 83.93 161.31 80.78 124.27"/><polyline class="cls-2" points="233.05 154.27 198.29 148.14 174.78 109.47 225.59 118.43"/><polyline class="cls-2" points="251.8 47.97 222.75 42.84 192.28 72 234.72 79.48"/><ellipse class="cls-3" cx="133.2" cy="83.9" rx="54.63" ry="113.83" transform="translate(27.44 200.52) rotate(-80)"/><ellipse class="cls-4" cx="133.2" cy="83.9" rx="44.98" ry="113.83" transform="translate(27.44 200.52) rotate(-80)"/><ellipse class="cls-3" cx="133.24" cy="83.91" rx="38.16" ry="113.8" transform="translate(27.47 200.56) rotate(-80)"/><ellipse class="cls-4" cx="133.14" cy="83.89" rx="26.49" ry="113.77" transform="translate(27.4 200.45) rotate(-80)"/><ellipse class="cls-2" cx="133.25" cy="83.91" rx="13.66" ry="113.79" transform="translate(27.47 200.57) rotate(-80)"/><rect class="cls-5" x="90.13" y="142.05" width="9.9" height="6.96" rx="3.48" transform="translate(163.45 305.35) rotate(-170)"/><rect class="cls-5" x="121.15" y="147.52" width="9.9" height="6.96" rx="3.48" transform="translate(224.06 321.59) rotate(-170)"/><rect class="cls-5" x="136.65" y="150.25" width="9.9" height="6.96" rx="3.48" transform="translate(254.36 329.71) rotate(-170)"/><rect class="cls-5" x="105.64" y="144.78" width="9.9" height="6.96" rx="3.48" transform="translate(193.75 313.47) rotate(-170)"/><path class="cls-6" d="M335.31,88.38a.7.7,0,0,1-.71.72H296.17a.68.68,0,0,1-.71-.72.71.71,0,0,1,.71-.71H312.3V83.4H298.07a.7.7,0,0,1-.71-.71.68.68,0,0,1,.71-.71H312.3V77.81H296.74a.73.73,0,0,1-.71-.72.73.73,0,0,1,.71-.71H312.3v-1a3.09,3.09,0,1,1,6.17,0v1H334a.73.73,0,0,1,.72.71.74.74,0,0,1-.72.72H318.47V82H332.7a.7.7,0,0,1,.71.71.73.73,0,0,1-.71.71H318.47v4.27H334.6A.73.73,0,0,1,335.31,88.38Zm-2.94,5.94v17.59a.73.73,0,0,1-.71.72H318.8a.73.73,0,0,1-.71-.72.7.7,0,0,1,.71-.71h7.4v-4.55H304.52v5.26a.73.73,0,0,1-.71.72h-4.74a.7.7,0,0,1-.71-.72V94.32a3.08,3.08,0,0,1,3.08-3.09,3.16,3.16,0,0,1,3,2.37H326.3a3.11,3.11,0,0,1,3-2.37A3.08,3.08,0,0,1,332.37,94.32ZM326.2,95H304.52v4.36H326.2Zm0,5.78H304.52v4.42H326.2Z"/><path class="cls-6" d="M383.13,96.35a.75.75,0,0,1-1,.24l-10.72-6.12s-.05,0-.1-.09H354.09l-10.62,6.21a.68.68,0,0,1-1-.24.74.74,0,0,1,.23-1l8.54-5h-8.06a.7.7,0,0,1-.71-.71.73.73,0,0,1,.71-.72h10.48l6-3.51v-1.7H344.65a.73.73,0,0,1-.71-.72.7.7,0,0,1,.71-.71h15.09V77.9h-16a.71.71,0,1,1,0-1.42h16v-1a3.08,3.08,0,0,1,6.16,0v1h16a.71.71,0,0,1,0,1.42h-16v4.41h15a.7.7,0,0,1,.71.71.73.73,0,0,1-.71.72h-15v1.89L371.83,89h10.54a.73.73,0,0,1,.71.72.7.7,0,0,1-.71.71l-7.88,0,8.35,4.94A.75.75,0,0,1,383.13,96.35ZM378.67,98v13.89a.74.74,0,0,1-.72.72H347.69a.73.73,0,0,1-.71-.72V98a3.08,3.08,0,0,1,6.07-.72h19.5a3.1,3.1,0,0,1,6.12.72Zm-6.17.71H353.14v5.36H372.5Zm0,6.78H353.14v5.69H372.5ZM368.89,89l-4.27-2.42h-3.93L356.51,89Z"/><path class="cls-6" d="M430.18,75.91a.69.69,0,0,1-.71.71H404.23v8.59h17.88a3.08,3.08,0,0,1,6.08.71v26a.71.71,0,0,1-.71.72H413.67a.72.72,0,0,1,0-1.43H422V86.63H404.23v16.84a.69.69,0,0,1-.71.71h-4.27l-8.44,9a.7.7,0,0,1-1,0,.69.69,0,0,1-.05-1l8.3-8.82V76.62h-7a.67.67,0,0,1-.71-.71.7.7,0,0,1,.71-.71h38.43A.73.73,0,0,1,430.18,75.91Z"/><path class="cls-6" d="M449.81,84.54a.73.73,0,0,1-.71.71h-2.75v26.66a.73.73,0,0,1-.71.72h-4.27a.73.73,0,0,1-.71-.72V85.25h-2.75a.73.73,0,0,1-.71-.71.7.7,0,0,1,.71-.71h2.75V76.15a2.85,2.85,0,1,1,5.69,0v7.68h2.75A.7.7,0,0,1,449.81,84.54Zm27.57-6.16a.71.71,0,0,1-.71.71h-10.3v3.46h4a2.86,2.86,0,0,1,5.64.66V96a.73.73,0,0,1-.71.71H451.71A.73.73,0,0,1,451,96V83.21a2.85,2.85,0,0,1,2.85-2.84,2.82,2.82,0,0,1,2.8,2.18h4V79.09H450.34a.71.71,0,0,1-.72-.71.74.74,0,0,1,.72-.72h10.34v-1.8a2.85,2.85,0,1,1,5.69,0v1.8h2.42V76.34a2.65,2.65,0,0,1,2.66-2.66,2.61,2.61,0,0,1,2.61,2.66v1.32h2.61A.74.74,0,0,1,477.38,78.38Zm-.19,23.15a.73.73,0,0,1-.71.71h-2v9.67a.7.7,0,0,1-.71.72H463.9a.72.72,0,0,1,0-1.43h4.94v-9H450.53a.73.73,0,0,1-.72-.71.74.74,0,0,1,.72-.72h18.31v-.57a2.85,2.85,0,0,1,2.84-2.84,2.82,2.82,0,0,1,2.85,2.84v.57h2A.73.73,0,0,1,477.19,101.53Zm-17.27,5.12v3.08a.69.69,0,0,1-.71.71h-4.27a.67.67,0,0,1-.71-.71v-3.08a2.82,2.82,0,0,1,2.84-2.85A2.86,2.86,0,0,1,459.92,106.65ZM460.68,84h-4v4.89h4Zm0,6.31h-4v5h4ZM466.37,84v4.89h3.94V84Zm3.94,6.31h-3.94v5h3.94Z"/><g class="cls-7"><polygon class="cls-8" points="645.68 141.5 636.5 138.74 627.17 140.95 620.19 147.52 617.44 156.7 619.64 166.03 626.21 173.01 635.39 175.76 644.72 173.56 651.7 166.99 654.46 157.81 652.25 148.48 645.68 141.5"/><polygon class="cls-8" points="604.19 144.15 593.7 147.21 586.14 155.1 583.55 165.72 586.61 176.21 594.5 183.77 605.12 186.37 615.61 183.31 623.17 175.41 625.76 164.8 622.71 154.3 614.81 146.75 604.19 144.15"/><polygon class="cls-8" points="585.48 138.73 567.67 137.77 551.77 145.85 542.03 160.8 541.08 178.61 549.16 194.51 564.11 204.24 581.92 205.2 597.82 197.12 607.55 182.17 608.51 164.36 600.43 148.46 585.48 138.73"/><polygon class="cls-8" points="546.08 145.58 532.72 147.87 522.29 156.53 517.58 169.24 519.87 182.61 528.53 193.04 541.25 197.74 554.61 195.46 565.04 186.8 569.74 174.08 567.46 160.72 558.8 150.28 546.08 145.58"/><polygon class="cls-8" points="519.24 164.96 506.39 163.84 494.7 169.3 487.31 179.87 486.2 192.72 491.66 204.4 502.23 211.79 515.08 212.9 526.76 207.44 534.15 196.88 535.26 184.03 529.8 172.34 519.24 164.96"/><polygon class="cls-8" points="481.52 156.69 468.25 158.43 457.62 166.58 452.49 178.95 454.23 192.23 462.38 202.85 474.75 207.98 488.03 206.24 498.66 198.09 503.79 185.72 502.04 172.44 493.89 161.81 481.52 156.69"/><polygon class="cls-8" points="447.92 150.36 439.51 152.35 433.23 158.29 430.76 166.57 432.75 174.97 438.69 181.26 446.97 183.73 455.37 181.74 461.66 175.81 464.13 167.53 462.14 159.12 456.2 152.83 447.92 150.36"/><polygon class="cls-8" points="418.98 157.18 409.86 157.07 401.91 161.54 397.26 169.38 397.15 178.5 401.62 186.46 409.46 191.11 418.58 191.22 426.54 186.75 431.19 178.9 431.3 169.78 426.83 161.83 418.98 157.18"/><polygon class="cls-8" points="400.83 150.74 385.54 146.26 370.07 150.03 358.55 161.03 354.07 176.31 357.84 191.78 368.83 203.3 384.12 207.78 399.59 204.02 411.11 193.02 415.59 177.73 411.82 162.26 400.83 150.74"/><polygon class="cls-8" points="351.5 150.11 339.93 152.54 331.13 160.43 327.45 171.66 329.88 183.22 337.77 192.02 349 195.7 360.56 193.27 369.36 185.38 373.04 174.16 370.61 162.59 362.72 153.79 351.5 150.11"/><polygon class="cls-8" points="326.99 172.07 314.66 175.08 305.49 183.85 301.93 196.03 304.94 208.36 313.71 217.53 325.89 221.09 338.22 218.09 347.39 209.31 350.95 197.13 347.94 184.8 339.17 175.63 326.99 172.07"/></g><polygon class="cls-9" points="228.72 173.43 224.44 172.62 220.32 174.06 217.48 177.36 216.66 181.64 218.1 185.76 221.4 188.6 225.68 189.41 229.8 187.98 232.64 184.68 233.46 180.39 232.02 176.28 228.72 173.43"/><polygon class="cls-8" points="250.36 178.43 246.12 178.54 242.5 180.77 240.48 184.5 240.59 188.75 242.82 192.37 246.56 194.39 250.8 194.27 254.42 192.04 256.44 188.31 256.32 184.06 254.1 180.45 250.36 178.43"/><polygon class="cls-8" points="259.97 185.24 256.85 184.44 253.75 185.31 251.5 187.62 250.7 190.74 251.57 193.84 253.88 196.09 257 196.88 260.1 196.01 262.35 193.71 263.15 190.59 262.27 187.49 259.97 185.24"/><polygon class="cls-8" points="248.04 174.61 243.77 175.88 240.72 179.11 239.68 183.44 240.95 187.71 244.18 190.76 248.51 191.8 252.78 190.53 255.84 187.3 256.87 182.97 255.6 178.7 252.37 175.65 248.04 174.61"/><polygon class="cls-8" points="261.99 189.82 256.07 189.94 251.01 193 248.16 198.19 248.28 204.1 251.34 209.16 256.53 212.01 262.44 211.89 267.5 208.83 270.36 203.65 270.23 197.73 267.17 192.67 261.99 189.82"/><polygon class="cls-8" points="576.08 139.04 571.81 137.75 567.48 138.76 564.23 141.81 562.93 146.07 563.95 150.41 566.99 153.66 571.25 154.95 575.59 153.94 578.84 150.89 580.13 146.63 579.12 142.29 576.08 139.04"/><polygon class="cls-8" points="600.54 127.97 596.81 128.12 593.65 130.12 591.92 133.42 592.07 137.15 594.07 140.31 597.38 142.04 601.11 141.89 604.26 139.89 605.99 136.58 605.84 132.85 603.84 129.7 600.54 127.97"/><polygon class="cls-8" points="389.75 201.22 385.29 199.99 380.82 201.16 377.53 204.41 376.3 208.87 377.47 213.35 380.72 216.64 385.18 217.86 389.66 216.69 392.95 213.44 394.17 208.98 393 204.51 389.75 201.22"/><polygon class="cls-9" points="434.98 205.33 430.52 205.91 426.96 208.65 425.24 212.8 425.83 217.25 428.56 220.81 432.71 222.53 437.16 221.95 440.73 219.22 442.45 215.06 441.86 210.61 439.13 207.05 434.98 205.33"/><polygon class="cls-9" points="453.99 210.24 449.12 209.91 444.74 212.06 442.02 216.11 441.69 220.98 443.84 225.36 447.89 228.08 452.76 228.41 457.14 226.26 459.86 222.21 460.19 217.34 458.04 212.96 453.99 210.24"/><polygon class="cls-10" points="465.06 204.62 459.63 205.74 455.49 209.43 453.75 214.69 454.87 220.12 458.56 224.26 463.82 226 469.25 224.88 473.39 221.19 475.13 215.93 474.01 210.5 470.32 206.36 465.06 204.62"/><polygon class="cls-8" points="465.69 205.57 459.08 205.71 453.41 209.14 450.22 214.94 450.36 221.56 453.79 227.22 459.59 230.41 466.21 230.27 471.87 226.84 475.06 221.04 474.92 214.43 471.5 208.76 465.69 205.57"/><polygon class="cls-8" points="486.93 209 480.79 209.68 475.81 213.35 473.33 219.01 474.01 225.16 477.68 230.14 483.34 232.62 489.49 231.93 494.47 228.27 496.95 222.6 496.26 216.46 492.6 211.48 486.93 209"/><polygon class="cls-8" points="286.11 191.28 283.15 190.23 280.06 190.79 277.66 192.82 276.61 195.78 277.17 198.87 279.2 201.27 282.16 202.33 285.25 201.76 287.65 199.73 288.7 196.77 288.14 193.68 286.11 191.28"/><polygon class="cls-8" points="524.3 113.09 519.77 112.13 515.37 113.56 512.26 117 511.3 121.53 512.73 125.94 516.17 129.04 520.7 130 525.11 128.57 528.21 125.13 529.17 120.6 527.74 116.19 524.3 113.09"/><polygon class="cls-8" points="533.78 100.44 527.35 101.85 522.48 106.3 520.49 112.58 521.91 119.01 526.35 123.87 532.63 125.86 539.07 124.45 543.93 120 545.92 113.72 544.5 107.29 540.06 102.43 533.78 100.44"/><polygon class="cls-8" points="525.9 113.97 521.91 115.03 518.99 117.96 517.92 121.95 518.99 125.94 521.91 128.86 525.9 129.93 529.89 128.86 532.81 125.94 533.88 121.95 532.82 117.96 529.89 115.04 525.9 113.97"/><polygon class="cls-9" points="491.21 191.35 486.77 192.2 483.35 195.15 481.86 199.41 482.7 203.85 485.65 207.28 489.92 208.76 494.36 207.92 497.78 204.97 499.27 200.71 498.43 196.26 495.48 192.84 491.21 191.35"/><polygon class="cls-9" points="479.31 184.72 473.67 186.25 469.54 190.39 468.04 196.05 469.57 201.69 473.71 205.82 479.37 207.32 485.01 205.79 489.14 201.65 490.64 195.99 489.11 190.35 484.97 186.22 479.31 184.72"/><polygon class="cls-9" points="472.12 189.98 467.79 189 463.56 190.31 460.54 193.56 459.56 197.88 460.86 202.11 464.11 205.13 468.44 206.11 472.67 204.81 475.69 201.56 476.67 197.23 475.37 193 472.12 189.98"/><polygon class="cls-9" points="460.48 194.14 457.08 193.13 453.62 193.95 451.04 196.39 450.03 199.8 450.85 203.25 453.29 205.83 456.7 206.85 460.15 206.02 462.74 203.58 463.75 200.18 462.93 196.72 460.48 194.14"/><polygon class="cls-9" points="633.31 132.88 627.07 132.99 621.72 136.21 618.7 141.67 618.81 147.9 622.03 153.25 627.49 156.27 633.73 156.16 639.07 152.94 642.09 147.49 641.98 141.25 638.76 135.9 633.31 132.88"/><polygon class="cls-9" points="617.85 139.99 611.1 140.28 605.4 143.91 602.29 149.91 602.58 156.66 606.22 162.36 612.21 165.47 618.96 165.18 624.66 161.55 627.78 155.55 627.48 148.8 623.85 143.1 617.85 139.99"/><polygon class="cls-9" points="600.64 136.6 594.96 135.8 589.65 137.95 586.12 142.46 585.32 148.14 587.47 153.45 591.99 156.98 597.66 157.78 602.98 155.63 606.5 151.11 607.3 145.44 605.15 140.12 600.64 136.6"/><polygon class="cls-9" points="588.84 147.54 581.38 146.72 574.51 149.73 570.07 155.78 569.24 163.24 572.26 170.11 578.31 174.56 585.77 175.38 592.64 172.36 597.08 166.31 597.91 158.85 594.89 151.98 588.84 147.54"/><polygon class="cls-9" points="292.79 200.1 286.22 200.31 280.63 203.79 277.54 209.59 277.75 216.16 281.23 221.75 287.03 224.84 293.6 224.62 299.19 221.15 302.28 215.35 302.06 208.78 298.59 203.19 292.79 200.1"/><polygon class="cls-9" points="305.05 204.03 299.06 203.59 293.66 206.21 290.29 211.17 289.85 217.16 292.46 222.56 297.43 225.93 303.41 226.37 308.81 223.76 312.18 218.79 312.62 212.81 310.01 207.41 305.05 204.03"/><polygon class="cls-9" points="313.01 200.94 309.26 201.52 306.3 203.9 304.92 207.44 305.5 211.2 307.88 214.16 311.43 215.54 315.18 214.96 318.14 212.57 319.52 209.03 318.94 205.28 316.56 202.31 313.01 200.94"/><polygon class="cls-5" points="632.81 162.65 627.21 160.97 621.52 162.32 617.27 166.34 615.59 171.94 616.94 177.63 620.96 181.88 626.56 183.56 632.25 182.21 636.5 178.19 638.18 172.59 636.83 166.9 632.81 162.65"/><polygon class="cls-5" points="616.13 164.3 608.53 163.95 601.79 167.44 597.69 173.84 597.34 181.43 600.83 188.18 607.23 192.28 614.82 192.63 621.57 189.14 625.67 182.74 626.02 175.15 622.53 168.4 616.13 164.3"/><polygon class="cls-5" points="598.85 177.28 593.02 178.59 588.63 182.64 586.85 188.34 588.16 194.17 592.21 198.56 597.91 200.34 603.74 199.03 608.13 194.98 609.91 189.28 608.6 183.46 604.55 179.06 598.85 177.28"/><polygon class="cls-5" points="612.48 162.83 605.76 161.02 599.03 162.81 594.11 167.73 592.29 174.45 594.09 181.18 599 186.11 605.72 187.92 612.45 186.13 617.38 181.21 619.19 174.49 617.4 167.76 612.48 162.83"/><polygon class="cls-5" points="595.51 170.85 588.84 171.56 583.41 175.52 580.69 181.66 581.4 188.33 585.36 193.76 591.5 196.48 598.17 195.77 603.6 191.81 606.32 185.67 605.61 179 601.65 173.57 595.51 170.85"/><polygon class="cls-5" points="586.79 186.1 581 184.17 575.02 185.4 570.46 189.45 568.53 195.25 569.75 201.22 573.8 205.79 579.6 207.72 585.58 206.49 590.14 202.44 592.07 196.65 590.85 190.67 586.79 186.1"/><g class="cls-11"><polygon class="cls-8" points="425.42 175.27 418.54 174.68 412.29 177.62 408.35 183.28 407.76 190.16 410.7 196.41 416.36 200.35 423.24 200.94 429.49 198 433.43 192.34 434.02 185.46 431.08 179.21 425.42 175.27"/><polygon class="cls-8" points="405.87 172.01 400.81 172.34 396.59 175.16 394.34 179.71 394.67 184.77 397.49 188.99 402.04 191.24 407.11 190.91 411.32 188.09 413.57 183.54 413.24 178.48 410.42 174.26 405.87 172.01"/><polygon class="cls-8" points="387.83 169.02 380.52 170.57 374.97 175.57 372.65 182.67 374.2 189.98 379.2 195.54 386.3 197.85 393.61 196.3 399.17 191.31 401.48 184.2 399.93 176.89 394.94 171.34 387.83 169.02"/><polygon class="cls-8" points="377.39 170.17 370.57 167.74 363.44 169.04 357.92 173.73 355.48 180.56 356.78 187.69 361.48 193.21 368.3 195.65 375.43 194.34 380.95 189.65 383.39 182.82 382.09 175.7 377.39 170.17"/><polygon class="cls-8" points="357.17 182.44 352.12 182.81 347.92 185.65 345.71 190.21 346.07 195.26 348.91 199.46 353.47 201.67 358.53 201.31 362.72 198.47 364.94 193.91 364.57 188.85 361.73 184.66 357.17 182.44"/><polygon class="cls-8" points="341.08 188.15 333.92 190.67 328.98 196.43 327.58 203.88 330.1 211.04 335.86 215.98 343.31 217.38 350.47 214.86 355.41 209.1 356.81 201.65 354.29 194.49 348.53 189.55 341.08 188.15"/></g><g class="cls-11"><polygon class="cls-8" points="597.66 175.27 590.78 174.68 584.53 177.62 580.59 183.28 580 190.16 582.94 196.41 588.61 200.35 595.48 200.94 601.73 198 605.68 192.34 606.26 185.46 603.32 179.21 597.66 175.27"/><polygon class="cls-8" points="578.11 172.01 573.05 172.34 568.83 175.16 566.59 179.71 566.92 184.77 569.73 188.99 574.28 191.24 579.35 190.91 583.57 188.09 585.81 183.54 585.48 178.48 582.66 174.26 578.11 172.01"/><polygon class="cls-8" points="560.08 169.02 552.76 170.57 547.21 175.57 544.9 182.67 546.45 189.98 551.44 195.54 558.54 197.85 565.86 196.3 571.41 191.31 573.72 184.2 572.18 176.89 567.18 171.34 560.08 169.02"/><polygon class="cls-8" points="549.63 170.17 542.81 167.74 535.68 169.04 530.16 173.73 527.72 180.56 529.03 187.69 533.72 193.21 540.54 195.65 547.67 194.34 553.2 189.65 555.63 182.82 554.33 175.7 549.63 170.17"/><polygon class="cls-8" points="529.41 182.44 524.36 182.81 520.16 185.65 517.95 190.21 518.32 195.26 521.16 199.46 525.72 201.67 530.77 201.31 534.97 198.47 537.18 193.91 536.82 188.85 533.97 184.66 529.41 182.44"/><polygon class="cls-8" points="513.32 188.15 506.16 190.67 501.22 196.43 499.82 203.88 502.34 211.04 508.1 215.98 515.55 217.38 522.71 214.86 527.65 209.1 529.05 201.65 526.53 194.49 520.77 189.55 513.32 188.15"/></g><g class="cls-11"><polygon class="cls-5" points="391.81 165.41 385.43 164.86 379.63 167.57 375.96 172.82 375.41 179.2 378.13 185 383.38 188.67 389.76 189.22 395.56 186.5 399.22 181.25 399.77 174.88 397.06 169.07 391.81 165.41"/><polygon class="cls-5" points="378.17 176.13 371.21 176.13 365.19 179.61 361.72 185.64 361.72 192.59 365.2 198.62 371.22 202.09 378.18 202.09 384.2 198.61 387.68 192.58 387.68 185.63 384.19 179.6 378.17 176.13"/></g><g class="cls-11"><polygon class="cls-5" points="500.15 162.34 490.88 163.09 483.23 168.37 479.25 176.76 479.99 186.03 485.27 193.68 493.67 197.66 502.93 196.92 510.58 191.64 514.57 183.25 513.82 173.98 508.54 166.33 500.15 162.34"/><polygon class="cls-5" points="480.42 161.16 472.68 162.28 466.53 167.12 463.63 174.38 464.75 182.13 469.58 188.27 476.85 191.18 484.59 190.06 490.74 185.22 493.64 177.96 492.52 170.21 487.68 164.07 480.42 161.16"/><polygon class="cls-5" points="466.67 162.93 457.9 162.81 450.25 167.09 445.77 174.63 445.65 183.4 449.93 191.05 457.47 195.54 466.24 195.65 473.89 191.37 478.38 183.84 478.49 175.07 474.21 167.41 466.67 162.93"/><polygon class="cls-5" points="450.15 176.22 443.12 177.54 437.69 182.2 435.32 188.95 436.64 195.98 441.29 201.41 448.04 203.78 455.07 202.46 460.5 197.8 462.88 191.05 461.56 184.02 456.9 178.59 450.15 176.22"/></g><g class="cls-12"><polygon class="cls-8" points="577.2 201.48 570 202.84 564.45 207.62 562.03 214.53 563.39 221.73 568.16 227.28 575.08 229.7 582.27 228.34 587.83 223.57 590.25 216.65 588.89 209.46 584.11 203.9 577.2 201.48"/><polygon class="cls-8" points="563.4 211.84 556.93 211.44 551.13 214.32 547.55 219.72 547.15 226.18 550.03 231.98 555.42 235.56 561.89 235.97 567.69 233.09 571.27 227.69 571.67 221.23 568.79 215.43 563.4 211.84"/><polygon class="cls-8" points="543.46 210.77 538.88 211.57 535.32 214.55 533.73 218.92 534.53 223.49 537.51 227.05 541.88 228.65 546.45 227.84 550.01 224.86 551.61 220.5 550.81 215.92 547.82 212.36 543.46 210.77"/></g><g class="cls-12"><polygon class="cls-8" points="305.73 198.9 298.69 200.43 293.36 205.28 291.16 212.14 292.69 219.18 297.54 224.51 304.4 226.71 311.44 225.17 316.77 220.33 318.97 213.47 317.43 206.43 312.59 201.1 305.73 198.9"/></g><g class="cls-13"><polygon class="cls-8" points="542.56 109.27 536.2 107.69 529.91 109.51 525.36 114.22 523.78 120.58 525.59 126.88 530.31 131.42 536.67 133 542.96 131.19 547.51 126.47 549.09 120.12 547.28 113.82 542.56 109.27"/></g><g class="cls-13"><polygon class="cls-8" points="323.52 171.81 318.79 170.96 314.27 172.58 311.17 176.25 310.31 180.98 311.94 185.5 315.61 188.6 320.34 189.46 324.86 187.83 327.96 184.16 328.81 179.43 327.19 174.91 323.52 171.81"/><polygon class="cls-8" points="334.66 164.44 328.72 163.64 323.19 165.91 319.53 170.65 318.73 176.58 321 182.12 325.74 185.78 331.67 186.58 337.21 184.3 340.87 179.56 341.67 173.63 339.39 168.1 334.66 164.44"/><polygon class="cls-8" points="339.44 155.73 333.33 156.95 328.66 161.06 326.67 166.96 327.89 173.06 332 177.74 337.9 179.73 344 178.5 348.68 174.39 350.67 168.49 349.44 162.39 345.33 157.72 339.44 155.73"/></g><g class="cls-13"><polygon class="cls-8" points="646.8 149.75 641.97 149.13 637.48 151.01 634.53 154.88 633.91 159.71 635.79 164.2 639.66 167.15 644.49 167.77 648.98 165.89 651.92 162.02 652.54 157.19 650.67 152.71 646.8 149.75"/></g><g class="cls-13"><polygon class="cls-9" points="557.49 181.21 551.18 181.12 545.68 184.2 542.45 189.62 542.37 195.93 545.45 201.43 550.87 204.66 557.17 204.74 562.68 201.66 565.9 196.24 565.99 189.94 562.91 184.43 557.49 181.21"/><polygon class="cls-9" points="544.28 179.4 537.72 180.28 532.48 184.32 529.96 190.45 530.84 197.01 534.89 202.25 541.01 204.77 547.57 203.89 552.81 199.84 555.33 193.72 554.45 187.16 550.41 181.92 544.28 179.4"/></g><path class="cls-1" d="M302.55,126.17a2.54,2.54,0,0,0-.06-.6h1.64v.19a2.1,2.1,0,0,0,0,.41v1.1h3.64a3.13,3.13,0,0,0,.6-.06v.6a3.29,3.29,0,0,0-.6-.06h-3.64v1.19a6.36,6.36,0,0,1,3.1.54,3.18,3.18,0,0,1,1.9,2.9,3,3,0,0,1-1.54,2.69,5.88,5.88,0,0,1-3,.73,1.71,1.71,0,0,0-.5.06l-.12-.5a4.15,4.15,0,0,0,.59,0,3.53,3.53,0,0,0,2-.8,2.85,2.85,0,0,0,.94-2.25,2.67,2.67,0,0,0-1.37-2.54,17.3,17.3,0,0,1-3.13,4.49c-.83.83-1.32,1.12-1.9,1.12-1.17,0-2-1-2-2.53a3.62,3.62,0,0,1,1.67-3,5.39,5.39,0,0,1,1.79-.74v-1.37h-2.76a4.35,4.35,0,0,0-.6.06v-.6a3.05,3.05,0,0,0,.6.06h2.76Zm-.06,6.92a2.65,2.65,0,0,0,.06-.6v-2.84a3.45,3.45,0,0,0-2.05,3.3c0,1.06.33,1.84.81,1.84s1.31-.66,2.16-1.7Zm1.58-.79a19.81,19.81,0,0,0,1.62-2.71,4.26,4.26,0,0,0-1.62-.24Z"/><path class="cls-1" d="M311,127.5a4.76,4.76,0,0,0,.72,0h1.86c.4-1.16.62-1.85.7-2.23l1.62.51a1.48,1.48,0,0,0-.24.52l0,.08c-.17.48-.3.84-.39,1.12H318a4.59,4.59,0,0,0,.72,0v.58A4.59,4.59,0,0,0,318,128h-3a44,44,0,0,1-2.44,5.52c-.06.12-.14.3-.24.55l-1.46-.81a29,29,0,0,0,2.49-5.26h-1.68a4.76,4.76,0,0,0-.72.05Zm9.58,1.44a4.59,4.59,0,0,0,.72-.05v.58a4.59,4.59,0,0,0-.72-.05h-1.38v3.05a11.57,11.57,0,0,1,1.77.94,3.68,3.68,0,0,0,.5.28l-.87,1.32-.34-.4-.06-.06a5.68,5.68,0,0,0-1-.91c0,1.42-.84,2.06-2.55,2.06-1.54,0-2.49-.73-2.49-1.94s.95-1.87,2.41-1.87a7.15,7.15,0,0,1,1.11.1v-3.05Zm-2.9,3.73a3.36,3.36,0,0,0-1.36-.31,1.52,1.52,0,0,0-1.66,1.41,1.51,1.51,0,0,0,1.63,1.41,1.28,1.28,0,0,0,1.39-1.45Z"/><path class="cls-1" d="M323.13,127.47h.1l.4,0h1.95c.25-1,.38-1.69.44-2.12l1.6.32a2.58,2.58,0,0,0-.21.66c-.11.47-.11.51-.15.71a1.68,1.68,0,0,0-.11.43h3.15a3.44,3.44,0,0,0,.6-.06v.6a3.21,3.21,0,0,0-.6-.06H327c-.68,2.79-1.44,5.38-2,6.82a6,6,0,0,0-.18.61l-1.57-.48a46.18,46.18,0,0,0,2.14-7h-1.83a3.29,3.29,0,0,0-.6.06v-.6Zm9.94,7.95-1,0c-.36,0-1.59.05-2,.05-1.94,0-2.95-.68-2.95-2a2.31,2.31,0,0,1,1-1.87,1.72,1.72,0,0,0,.33-.34l.37.36a1.67,1.67,0,0,0-.88,1.36c0,.77.64,1.08,2.18,1.08a26.07,26.07,0,0,0,3-.15Zm-4.31-5.63a4.67,4.67,0,0,0-.72.05v-.58a4.59,4.59,0,0,0,.72.05h3.41a2.78,2.78,0,0,0,.58-.06v.54a6.53,6.53,0,0,0-2.6.93l-.23-.33a9,9,0,0,1,1.07-.6Z"/><path class="cls-1" d="M339.9,135.09a3.4,3.4,0,0,0,1.55-.4,4,4,0,0,0,2.06-4,5.08,5.08,0,0,0-.6-2.58,2.75,2.75,0,0,0-2.17-1.42c-.08,4.94-1.36,7.93-3.39,7.93-1.34,0-2.4-1.39-2.4-3.16,0-3.1,2.17-5.19,5.4-5.19,3,0,4.87,1.74,4.87,4.48s-1.59,4.27-4.84,4.69a3.06,3.06,0,0,0-.44.09l-.11-.48Zm-.73-8.22a3.57,3.57,0,0,0-2.28,1.94,6.44,6.44,0,0,0-.5,2.7c0,1.51.43,2.67,1,2.67.92,0,1.69-3,1.77-7Z"/><path class="cls-1" d="M357.47,124.85v.43h-4v7.28H353v-7.71Z"/><path class="cls-1" d="M368.05,125.75a5.79,5.79,0,0,0,.9,0,5.45,5.45,0,0,0-.06.9v4.59a5.23,5.23,0,0,0,.06.89c-.31,0-.39,0-.8,0H368v2.19c0,.3.07.35.46.35s.51,0,.56-.24a4.32,4.32,0,0,0,.11-.89V133l.49.15,0,.45,0,.33c0,.62,0,.67,0,.9,0,.73-.34.93-1.57.93s-1.41-.19-1.41-.9v-2.84h-.43a3.85,3.85,0,0,1-2.29,3.8l-.32.22-.33-.35.35-.18,0,0,0,0a4.26,4.26,0,0,0-.63,0h-2.91a6.13,6.13,0,0,0-.9,0,4.47,4.47,0,0,0,.06-.9v-2.82c-.13.12-.22.2-.5.42l-.29.25-.3-.32.31-.24a9.77,9.77,0,0,0,1.77-3.19h-.95c-.16.2-.23.31-.43.55l-.22.31-.37-.16.2-.32a14.91,14.91,0,0,0,.8-3.53v-.44l1.71.31-.21.42c-.08.24-.11.33-.17.49H363a6,6,0,0,0,.72,0v.57a6.09,6.09,0,0,0-.72,0h-.63l0,.12a6.74,6.74,0,0,1-.32,1.29h1.16a6.09,6.09,0,0,0,.72,0v.57a6,6,0,0,0-.72,0h-1.4a8.85,8.85,0,0,1-.9,1.51h1a8.42,8.42,0,0,0,.21-1.05l0-.42,1.43.47-.37.36a4.48,4.48,0,0,1-.72.64h.67a4.51,4.51,0,0,0,.72-.05v.58a4.51,4.51,0,0,0-.72-.05h-.25v1H363a6.23,6.23,0,0,0,.72-.05v.57a6.13,6.13,0,0,0-.72,0h-.12v1.14H363a6.23,6.23,0,0,0,.72-.05v.57a6.13,6.13,0,0,0-.72,0h-.12V135h.29a4.59,4.59,0,0,0,.72-.05v.48a4.43,4.43,0,0,0,1.06-3.33c-.31,0-.45,0-.76,0a5.23,5.23,0,0,0,.06-.89v-4.59a5.71,5.71,0,0,0-.06-.9,6.59,6.59,0,0,0,.9,0Zm-7.52,1a8.92,8.92,0,0,1-.78,1.41h.78a9.32,9.32,0,0,0,.35-1.41Zm.33,3.88v1h.66v-1Zm0,2.64h.66v-1.14h-.66Zm0,1.65h.66v-1.17h-.66Zm6.64-8.73h-1.93v1.43h1.93Zm-1.93,1.91v1.42h1.93v-1.42Zm0,1.9v1.54h1.93V130Z"/><path class="cls-1" d="M371.13,127.47h.1l.4,0h1.95c.25-1,.38-1.69.44-2.12l1.6.32a2.58,2.58,0,0,0-.21.66c-.11.47-.11.51-.15.71a1.68,1.68,0,0,0-.11.43h3.15a3.44,3.44,0,0,0,.6-.06v.6a3.21,3.21,0,0,0-.6-.06H375c-.68,2.79-1.44,5.38-2,6.82a6,6,0,0,0-.18.61l-1.57-.48a46.18,46.18,0,0,0,2.14-7h-1.83a3.29,3.29,0,0,0-.6.06v-.6Zm9.94,7.95-1,0c-.36,0-1.59.05-2,.05-1.95,0-2.95-.68-2.95-2a2.3,2.3,0,0,1,1-1.87,1.72,1.72,0,0,0,.33-.34l.37.36a1.67,1.67,0,0,0-.88,1.36c0,.77.64,1.08,2.18,1.08a26.07,26.07,0,0,0,3-.15Zm-4.31-5.63a4.67,4.67,0,0,0-.72.05v-.58a4.59,4.59,0,0,0,.72.05h3.41a2.78,2.78,0,0,0,.58-.06v.54a6.53,6.53,0,0,0-2.6.93l-.23-.33a9,9,0,0,1,1.07-.6Z"/><path class="cls-1" d="M388.4,132.06a1.16,1.16,0,0,0-.23.51,7.72,7.72,0,0,1-1,2.09,1.56,1.56,0,0,1-1.21.66c-.71,0-1.39-.57-1.83-1.59-.61-1.4-.84-3-.84-5.88v-.35a4.61,4.61,0,0,0,0-.71l1.67.11a5.73,5.73,0,0,0-.06.84v.71a12.81,12.81,0,0,0,.49,4.24c.3.82.68,1.23,1.11,1.23s.6-.23,1-.88a3.68,3.68,0,0,0,.48-1.24Zm3.22,1.4c-.06-2.11-1.21-4.84-2.38-5.66l.57-.49.07.07a1.1,1.1,0,0,1,.17.15,9.6,9.6,0,0,1,3.23,4.92c0,.09,0,.14.09.35l0,.11Z"/><path class="cls-1" d="M399.14,128.53v7.71h-4.46v-.43h4v-7.28Z"/><path class="cls-1" d="M407.08,128.35a2.43,2.43,0,0,0,.51.05h1.88a15.12,15.12,0,0,0,.73-2.82l1.61.41a3.64,3.64,0,0,0-.21.56c-.22.77-.41,1.39-.56,1.85h1.4c1.48,0,2.15.71,2.15,2.28a9,9,0,0,1-.95,4.14,1.47,1.47,0,0,1-1.4.91,2.87,2.87,0,0,1-2.11-1.2,2,2,0,0,0-.34-.28l.34-.4a2,2,0,0,0,1.37.91c.28,0,.48-.17.72-.6a9.19,9.19,0,0,0,.87-3.76c0-1.12-.3-1.52-1.17-1.52h-1c-.77,2.33-1.52,4.32-2.22,6a3.89,3.89,0,0,0-.17.47l-1.49-.68a2.82,2.82,0,0,0,.44-.81c.74-1.74,1.28-3.19,1.86-5h-1.72a2.91,2.91,0,0,0-.6.06v-.6Zm9.11,4a10.09,10.09,0,0,0-1.62-4.79,1.54,1.54,0,0,0-.29-.28l.59-.43a1.86,1.86,0,0,0,.26.31,11,11,0,0,1,2.47,4,4.68,4.68,0,0,0,.18.51Zm-.39-7.23v1.48h-.72v-1.48Zm1.42,0v1.48h-.72v-1.48Z"/><path class="cls-1" d="M428,135.25c-.59,0-.64,0-1.23.07-.42,0-1.24.05-2,.05a9.17,9.17,0,0,1-3.3-.38,2.25,2.25,0,0,1-1.49-2.26,3.19,3.19,0,0,1,1.21-2.41,1.38,1.38,0,0,0,.32-.32l.37.38a2.31,2.31,0,0,0-1.07,1.93,1.28,1.28,0,0,0,1,1.33,10.2,10.2,0,0,0,2.63.22,19.48,19.48,0,0,0,3.55-.24Zm-6.5-8.08a5.39,5.39,0,0,0-.72,0v-.57a4.39,4.39,0,0,0,.72,0h4.89a6.75,6.75,0,0,0,.84-.06v.62a7.53,7.53,0,0,0-3.69,1.62l-.29-.31a18.53,18.53,0,0,1,2-1.39Z"/><path class="cls-1" d="M440,135.25c-.59,0-.64,0-1.23.07-.42,0-1.24.05-2,.05a9.17,9.17,0,0,1-3.3-.38,2.25,2.25,0,0,1-1.49-2.26,3.19,3.19,0,0,1,1.21-2.41,1.38,1.38,0,0,0,.32-.32l.37.38a2.31,2.31,0,0,0-1.07,1.93,1.28,1.28,0,0,0,1,1.33,10.2,10.2,0,0,0,2.63.22,19.48,19.48,0,0,0,3.55-.24Zm-6.5-8.08a5.39,5.39,0,0,0-.72,0v-.57a4.39,4.39,0,0,0,.72,0h4.89a6.75,6.75,0,0,0,.84-.06v.62a7.53,7.53,0,0,0-3.69,1.62l-.29-.31a18.53,18.53,0,0,1,2-1.39Z"/><path class="cls-1" d="M443.82,135.2a.62.62,0,0,0,0-.2v-.3c-.06-1-.1-2.1-.1-2.64,0-1,.16-3.54.33-5.36,0-.24,0-.28,0-.34v-.07l1.61.2a28.73,28.73,0,0,0-.44,5.38c0,.74.06,2.12.1,2.6a.2.2,0,0,1,0,.08v0a3.14,3.14,0,0,0,.08.48Zm8.92-.23c-.27,0-.35,0-.88,0s-1.09.05-1.58.05a5.59,5.59,0,0,1-2.74-.48,2.21,2.21,0,0,1-1.16-2.06,3,3,0,0,1,.91-2,2,2,0,0,0,.27-.35l.39.32a2.3,2.3,0,0,0-.81,1.71c0,1,.87,1.44,3,1.44a16.6,16.6,0,0,0,1.68-.08,5.72,5.72,0,0,0,1-.13Zm-5.11-7.35a4.07,4.07,0,0,0-.6.06v-.6a3.05,3.05,0,0,0,.6.06h4a6,6,0,0,0,.83-.06v.55a8.25,8.25,0,0,0-3.29,1.56l-.29-.3a11.29,11.29,0,0,1,1.8-1.27Z"/><path class="cls-1" d="M458.55,126.17a2.54,2.54,0,0,0-.06-.6h1.64v.19a2.1,2.1,0,0,0,0,.41v1.1h3.64a3.13,3.13,0,0,0,.6-.06v.6a3.29,3.29,0,0,0-.6-.06h-3.64v1.19a6.36,6.36,0,0,1,3.1.54,3.18,3.18,0,0,1,1.9,2.9,3,3,0,0,1-1.54,2.69,5.88,5.88,0,0,1-3,.73,1.71,1.71,0,0,0-.5.06l-.12-.5a4.15,4.15,0,0,0,.59,0,3.5,3.5,0,0,0,2-.8,2.85,2.85,0,0,0,.94-2.25,2.67,2.67,0,0,0-1.37-2.54,17.3,17.3,0,0,1-3.13,4.49c-.83.83-1.32,1.12-1.9,1.12-1.17,0-2-1-2-2.53a3.61,3.61,0,0,1,1.66-3,5.39,5.39,0,0,1,1.79-.74v-1.37h-2.76a4.35,4.35,0,0,0-.6.06v-.6a3.05,3.05,0,0,0,.6.06h2.76Zm-.06,6.92a2.65,2.65,0,0,0,.06-.6v-2.84a3.45,3.45,0,0,0-2.05,3.3c0,1.06.33,1.84.81,1.84s1.31-.66,2.16-1.7Zm1.58-.79a19.81,19.81,0,0,0,1.62-2.71,4.26,4.26,0,0,0-1.62-.24Z"/><path class="cls-1" d="M468.87,126.7a2.58,2.58,0,0,0-.6,0v-.59h.19a2.1,2.1,0,0,0,.41,0h6.37v.56l-4.05,3a6.8,6.8,0,0,1,1.81-.22c2.3,0,3.75,1.07,3.75,2.77,0,2.12-1.55,3.24-4.5,3.24-1.74,0-2.86-.76-2.86-1.91a1.41,1.41,0,0,1,1.59-1.37c1.3,0,2.29.71,3.09,2.2a2.59,2.59,0,0,0,1-2.18A2.26,2.26,0,0,0,472.5,130a4.16,4.16,0,0,0-2.36.67,16.36,16.36,0,0,0-1.69,1.35l-.18.15-.16.16-.92-1.19a1.25,1.25,0,0,0,.38-.24L473,126.7Zm1.93,6.15c-.6,0-1,.34-1,.83,0,.85,1,1.46,2.34,1.46a3.1,3.1,0,0,0,.6,0l.1,0C472.41,133.62,471.69,132.85,470.8,132.85Z"/><path class="cls-1" d="M482.61,134.15a1.66,1.66,0,1,1-1.64-1.66A1.68,1.68,0,0,1,482.61,134.15Zm-2.88,0a1.23,1.23,0,0,0,2.45,0,1.23,1.23,0,1,0-2.45,0Z"/><polygon class="cls-3" points="265.39 102.86 263.82 111.58 210.21 98.96 210.73 96.05 265.39 102.86"/></svg>